<?xml version="1.0" encoding="utf-8"?>
<!-- Generator: Adobe Illustrator 15.0.0, SVG Export Plug-In . SVG Version: 6.00 Build 0)  -->
<!DOCTYPE svg PUBLIC "-//W3C//DTD SVG 1.1//EN" "http://www.w3.org/Graphics/SVG/1.1/DTD/svg11.dtd">
<svg version="1.1" id="Layer_1" xmlns="http://www.w3.org/2000/svg" xmlns:xlink="http://www.w3.org/1999/xlink" x="0px" y="0px"
	 width="49.25px" height="49.25px" viewBox="0 0 49.25 49.25" enable-background="new 0 0 49.25 49.25" xml:space="preserve">
<g>
	<circle fill="#231F20" cx="20.757" cy="13.603" r="0.97"/>
	<path fill="#231F20" d="M24.625,0.002C11.025,0.002,0,11.025,0,24.625S11.025,49.25,24.625,49.25
		c13.599,0,24.625-11.025,24.625-24.625S38.224,0.002,24.625,0.002z M14.292,28.686c0,1.072-0.869,1.939-1.94,1.939
		s-1.938-0.867-1.938-1.939V20.39c0-1.071,0.867-1.939,1.938-1.939s1.94,0.868,1.94,1.939V28.686z M33.685,20.063v1.315v11.294
		c0,1.129-0.918,2.048-2.047,2.048h-1.477c0.048,0.171,0.076,0.352,0.076,0.537v0.108v0.646v3.34c0,1.071-0.868,1.94-1.94,1.94
		c-1.069,0-1.939-0.869-1.939-1.94v-3.34v-0.646v-0.108c0-0.186,0.028-0.366,0.078-0.537h-3.602
		c0.049,0.171,0.077,0.352,0.077,0.537v0.108v0.646v3.34c0,1.071-0.869,1.94-1.939,1.94c-1.071,0-1.94-0.869-1.94-1.94v-3.34v-0.646
		v-0.108c0-0.186,0.028-0.366,0.078-0.537h-1.479c-1.128,0-2.046-0.919-2.046-2.048V21.379v-1.315V18.45h0.14h17.82h0.141V20.063z
		 M15.585,17.157c0-2.771,1.855-5.191,4.599-6.468l-0.362-0.547L19.46,9.604l-0.805-1.209c-0.099-0.149-0.059-0.35,0.09-0.448
		s0.349-0.059,0.449,0.09l0.864,1.297l0.362,0.545l0.368,0.553c1.168-0.453,2.471-0.707,3.845-0.707
		c1.375,0,2.679,0.254,3.846,0.707l0.369-0.553l0.363-0.545l0.865-1.297c0.098-0.149,0.298-0.19,0.448-0.09
		c0.147,0.099,0.188,0.299,0.088,0.448l-0.805,1.209l-0.359,0.539l-0.364,0.547c2.743,1.276,4.6,3.697,4.6,6.468H15.585z
		 M38.857,28.686c0,1.072-0.867,1.939-1.939,1.939s-1.939-0.867-1.939-1.939V20.39c0-1.071,0.867-1.939,1.939-1.939
		s1.939,0.868,1.939,1.939V28.686z"/>
	<circle fill="#231F20" cx="28.514" cy="13.603" r="0.97"/>
</g>
</svg>
