<?xml version="1.0" encoding="utf-8"?>
<!-- Generator: Adobe Illustrator 15.0.0, SVG Export Plug-In . SVG Version: 6.00 Build 0)  -->
<!DOCTYPE svg PUBLIC "-//W3C//DTD SVG 1.1//EN" "http://www.w3.org/Graphics/SVG/1.1/DTD/svg11.dtd">
<svg version="1.1" id="Layer_1" xmlns="http://www.w3.org/2000/svg" xmlns:xlink="http://www.w3.org/1999/xlink" x="0px" y="0px"
	 width="49.25px" height="49.25px" viewBox="0 0 49.25 49.25" enable-background="new 0 0 49.25 49.25" xml:space="preserve">
<path fill="#231F20" d="M24.625,0C11.025,0,0,11.025,0,24.625C0,38.227,11.025,49.25,24.625,49.25S49.25,38.227,49.25,24.625
	C49.25,11.025,38.225,0,24.625,0z M26.037,9.986c1.117-1.311,3.006-2.283,4.564-2.346c0.199,1.816-0.532,3.637-1.613,4.947
	c-1.083,1.309-2.857,2.328-4.598,2.193C24.156,13.002,25.033,11.146,26.037,9.986z M34.904,34.785
	c-1.293,1.889-2.632,3.771-4.744,3.809c-2.076,0.039-2.743-1.23-5.115-1.23c-2.373,0-3.115,1.193-5.08,1.27
	c-2.037,0.076-3.589-2.037-4.892-3.92c-2.665-3.848-4.698-10.875-1.964-15.619c1.354-2.357,3.779-3.846,6.411-3.887
	c2.003-0.037,3.893,1.35,5.114,1.35c1.226,0,3.521-1.666,5.936-1.42c1.01,0.041,3.847,0.406,5.668,3.07
	c-0.146,0.092-3.386,1.977-3.348,5.902c0.043,4.689,4.113,6.246,4.16,6.27C37.014,30.486,36.398,32.602,34.904,34.785z"/>
</svg>
