<?xml version="1.0" encoding="utf-8"?>
<!-- Generator: Adobe Illustrator 15.0.0, SVG Export Plug-In . SVG Version: 6.00 Build 0)  -->
<!DOCTYPE svg PUBLIC "-//W3C//DTD SVG 1.1//EN" "http://www.w3.org/Graphics/SVG/1.1/DTD/svg11.dtd">
<svg version="1.1" id="Layer_1" xmlns="http://www.w3.org/2000/svg" xmlns:xlink="http://www.w3.org/1999/xlink" x="0px" y="0px"
	 width="334.102px" height="347.485px" viewBox="0 0 334.102 347.485" enable-background="new 0 0 334.102 347.485"
	 xml:space="preserve">
<g>
	<rect x="67.894" fill="none" width="266.208" height="307.269"/>
	<g>
		<path d="M158.427,104.368h-14.735c-0.721,0-1.36,0.409-1.857,1.046h-1.239c-5.118,0-9.404,5.188-10.392,12.064
			c-0.818,0.596-1.398,1.64-1.398,2.884v17.951c0,1.126,0.489,2.078,1.18,2.705v67.642c0,8.323,4.762,15.101,10.61,15.101h145.443
			c5.858,0,10.616-6.777,10.616-15.101v-88.135c0-8.336-4.758-15.111-10.616-15.111H168.02c-0.159-0.637-0.353-1.046-0.569-1.046
			h-4.485c-0.22,0-0.413,0.409-0.568,1.046h-2.113C159.79,104.777,159.142,104.368,158.427,104.368z"/>
		<rect x="143.183" y="117.733" fill="#FFFFFF" width="140.46" height="96.314"/>
		<g>
			<g>
				<path fill="#F2C69F" d="M129.785,137.136c0,0-1.357,0.791-3.141,2.319c-1.784,1.53-6.479,5.934-8.223,6.988
					c-1.75,1.056-4.333,2.878-5.096,3.239c-3.714,2.365-3.897,4.989-4.733,7.682c-0.838,2.693-1.819,6.332-2.219,8.003
					c-0.404,1.679-2.949,13.728-3.97,17.508c-1.017,3.79-1.82,6.481-5.896,11.941c-4.074,5.458-17.034,23.438-18.343,24.97
					c-1.31,1.53-14.487,18.125-16.015,20.09c-1.529,1.967-11.864,13.541-13.904,15.143c14.414-0.074,45.205,0,45.205,0
					s3.933-5.896,5.39-8.442c1.454-2.548,7.13-14.126,10.19-17.836c3.055-3.714,4.367-6.697,5.68-8.009
					c1.307-1.312,2.546-3.127,3.273-3.421c0.727-0.29,9.099-18.997,9.099-18.997s3.278-3.136,4.807-6.155
					c1.53-3.022,3.605-7.821,4.114-10.229c0.506-2.401,1.454-7.062,1.419-8.226c-0.04-1.163-0.145-2.798-0.113-3.163
					c0.04-0.365,0.33-2.221,0.256-2.915c-0.07-0.691,0-2.111,0.22-2.908c0.216-0.805,0.911-6.625,2.258-8.12
					c1.346-1.493,6.146-7.351,7.459-10.844c1.312-3.498,2.222-8.953,2.001-10.089c-0.398-4.653-6.299-5.746-8.188-3.854
					c-1.896,1.896-2.588,2.948-2.914,3.241c-0.327,0.291-1.784,2.618-2.146,3.272c-0.366,0.657-2.476,4.079-2.949,4.591
					c-0.475,0.513-1.64,1.381-2.037,2.615c-0.4,1.24-1.201,3.645-1.38,4.081C129.702,150.054,129.785,137.136,129.785,137.136z"/>
				<path fill="#F3DECB" d="M146.76,138.354c-0.381,0.797-1.74,2.153-2.403,2.153c-0.662,0-5.047-1.387-5.395-1.981
					c-0.347-0.594,0.348-2.818,0.348-2.818s0.871-2.16,1.877-2.996c1.187-0.939,6.376-0.52,6.096,3.236
					C147.181,136.683,147.145,137.552,146.76,138.354z"/>
			</g>
		</g>
		<path fill="#E51A20" d="M67.95,346.894l28.584-81.27c3.846-2.032,7.516-15.498,8.11-18.047c0.633-2.713-11.959-4.946-16.814-7.493
			c-4.86-2.548-10.991-11.604-14.926-13.049c-3.938-1.446-5.728,0.539-7.129,2.768c0,0-5.207,3.978-8.251,8.807
			c-1.466,2.321-1.634,3.777,0.106,5.683C44.048,262.536,0,347.485,0,347.485L67.95,346.894z"/>
		<g>
			<path fill="#D91F20" d="M191.846,162.644h-1.874v6.829c0.541,0.071,1.188,0.071,2.126,0.071c2.48,0,4.673-0.972,4.673-3.52
				C196.771,163.616,194.578,162.644,191.846,162.644z"/>
			<path fill="#D91F20" d="M256.504,134.001h-83.64c-5.634,0-10.199,4.562-10.199,10.197v32.639c0,5.635,4.565,10.201,10.199,10.201
				h83.64c5.631,0,10.197-4.566,10.197-10.201v-32.639C266.701,138.563,262.135,134.001,256.504,134.001z"/>
			<path fill="#D91F20" d="M196.195,155.74c0-1.834-1.402-2.806-3.881-2.806c-1.225,0-1.908,0.071-2.343,0.145v5.645h1.804
				C194.688,158.724,196.195,157.534,196.195,155.74z"/>
		</g>
		<g>
			<path fill="#DDB089" d="M293.029,303.505c-0.004-0.01-0.007-0.025-0.008-0.039C293.022,303.479,293.025,303.495,293.029,303.505z
				"/>
			<path fill="#DDB089" d="M293.021,303.466c-0.008-0.047-0.016-0.09-0.025-0.129C293.006,303.386,293.014,303.419,293.021,303.466z
				"/>
			<path fill="#DDB089" d="M292.838,302.541c-0.007-0.04-0.018-0.078-0.023-0.112C292.82,302.463,292.831,302.501,292.838,302.541z"
				/>
			<path fill="#DDB089" d="M293.047,303.604c0-0.01-0.004-0.02-0.007-0.029C293.043,303.585,293.047,303.595,293.047,303.604z"/>
			<path fill="#DDB089" d="M292.996,303.337c-0.015-0.067-0.029-0.137-0.044-0.207C292.967,303.196,292.981,303.268,292.996,303.337
				z"/>
			<path fill="#DDB089" d="M292.893,302.827c-0.014-0.076-0.029-0.146-0.043-0.219C292.863,302.681,292.879,302.757,292.893,302.827
				z"/>
			<path fill="#DDB089" d="M292.85,302.608c-0.004-0.021-0.01-0.045-0.012-0.067C292.84,302.563,292.846,302.588,292.85,302.608z"/>
			<path fill="#DDB089" d="M293.066,303.681c-0.008-0.027-0.012-0.051-0.02-0.076C293.055,303.63,293.059,303.653,293.066,303.681z"
				/>
			<path fill="#DDB089" d="M292.934,303.036c-0.011-0.07-0.025-0.141-0.041-0.209C292.908,302.896,292.923,302.962,292.934,303.036z
				"/>
			<path fill="#DDB089" d="M292.952,303.13c-0.005-0.029-0.011-0.068-0.019-0.094C292.943,303.065,292.947,303.101,292.952,303.13z"
				/>
			<path fill="#DDB089" d="M293.04,303.575c-0.003-0.021-0.008-0.042-0.011-0.07C293.032,303.533,293.037,303.554,293.04,303.575z"
				/>
			<path fill="#DDB089" d="M293.2,304.353c-0.006-0.017-0.009-0.032-0.013-0.043C293.194,304.326,293.194,304.345,293.2,304.353z"/>
			<path fill="#DDB089" d="M293.188,304.31c-0.002-0.02-0.006-0.039-0.012-0.058C293.18,304.271,293.186,304.29,293.188,304.31z"/>
			<path fill="#DDB089" d="M293.176,304.252c-0.005-0.021-0.005-0.048-0.012-0.071C293.171,304.21,293.172,304.232,293.176,304.252z
				"/>
			<path fill="#DDB089" d="M293.2,304.36c0,0,0-0.004,0-0.008C293.2,304.356,293.2,304.356,293.2,304.36z"/>
			<path fill="#DDB089" d="M293.11,303.92c-0.015-0.073-0.029-0.149-0.044-0.239C293.08,303.761,293.096,303.838,293.11,303.92z"/>
			<path fill="#DDB089" d="M293.164,304.181c-0.003-0.006-0.003-0.014-0.003-0.019C293.161,304.167,293.161,304.175,293.164,304.181
				z"/>
			<path fill="#DDB089" d="M293.124,303.977c0-0.021-0.011-0.038-0.014-0.057C293.113,303.938,293.124,303.956,293.124,303.977z"/>
			<path fill="#DDB089" d="M293.141,304.065c-0.006-0.029-0.012-0.058-0.017-0.089C293.129,304.005,293.135,304.032,293.141,304.065
				z"/>
			<path fill="#DDB089" d="M292.54,301.046c-0.003-0.011-0.005-0.019-0.005-0.028C292.535,301.027,292.537,301.035,292.54,301.046z"
				/>
			<path fill="#DDB089" d="M292.546,301.089c-0.002-0.015-0.006-0.031-0.006-0.043C292.54,301.058,292.544,301.074,292.546,301.089z
				"/>
			<path fill="#DDB089" d="M292.563,301.171c-0.005-0.027-0.012-0.059-0.018-0.082C292.552,301.112,292.559,301.144,292.563,301.171
				z"/>
			<path fill="#DDB089" d="M292.582,301.272c-0.008-0.037-0.012-0.075-0.019-0.102C292.57,301.197,292.574,301.235,292.582,301.272z
				"/>
			<path fill="#DDB089" d="M292.607,301.385c-0.011-0.041-0.02-0.073-0.025-0.112C292.588,301.305,292.597,301.344,292.607,301.385z
				"/>
			<path fill="#DDB089" d="M292.611,301.401c-0.004-0.004-0.004-0.009-0.004-0.017C292.607,301.393,292.607,301.397,292.611,301.401
				z"/>
			<path fill="#DDB089" d="M292.505,300.882L292.505,300.882L292.505,300.882z"/>
			<path fill="#DDB089" d="M292.505,300.886v-0.004V300.886z"/>
			<path fill="#DDB089" d="M292.641,301.559c-0.009-0.054-0.021-0.104-0.029-0.157C292.62,301.454,292.632,301.501,292.641,301.559z
				"/>
			<path fill="#DDB089" d="M292.522,300.966c-0.009-0.039-0.015-0.067-0.018-0.08C292.508,300.898,292.514,300.923,292.522,300.966z
				"/>
			<path fill="#DDB089" d="M292.535,301.018c-0.006-0.021-0.006-0.037-0.013-0.052C292.529,300.98,292.529,300.997,292.535,301.018z
				"/>
			<path fill="#DDB089" d="M292.709,301.892c-0.01-0.043-0.02-0.086-0.024-0.117C292.689,301.815,292.699,301.853,292.709,301.892z"
				/>
			<path fill="#DDB089" d="M292.734,302.028c-0.002-0.012-0.006-0.021-0.006-0.031C292.729,302.008,292.732,302.017,292.734,302.028
				z"/>
			<path fill="#DDB089" d="M292.729,301.997c-0.009-0.036-0.015-0.073-0.02-0.105C292.714,301.924,292.72,301.961,292.729,301.997z"
				/>
			<path fill="#DDB089" d="M292.643,301.571c-0.002-0.003-0.002-0.009-0.002-0.013C292.641,301.562,292.641,301.568,292.643,301.571
				z"/>
			<path fill="#DDB089" d="M292.779,302.247c-0.004-0.011-0.007-0.02-0.007-0.031C292.772,302.228,292.775,302.236,292.779,302.247z
				"/>
			<path fill="#DDB089" d="M292.772,302.216c-0.012-0.065-0.028-0.125-0.038-0.188C292.744,302.087,292.761,302.15,292.772,302.216z
				"/>
			<path fill="#DDB089" d="M292.664,301.683c0-0.004-0.003-0.012-0.003-0.019C292.661,301.671,292.664,301.679,292.664,301.683z"/>
			<path fill="#DDB089" d="M292.814,302.429c-0.013-0.065-0.027-0.123-0.035-0.182C292.787,302.306,292.802,302.363,292.814,302.429
				z"/>
			<path fill="#DDB089" d="M292.661,301.664c-0.006-0.032-0.012-0.06-0.019-0.093C292.649,301.604,292.655,301.632,292.661,301.664z
				"/>
			<path fill="#DDB089" d="M292.685,301.774c-0.008-0.03-0.015-0.061-0.021-0.092C292.67,301.714,292.677,301.744,292.685,301.774z"
				/>
			<g>
				<g>
					<path fill="#F2C69F" d="M283.65,261.928c-0.008-4.143-0.801-8.263-0.982-12.405c-0.08-1.859,0.412-3.568,0.945-5.338
						c0.742-2.453,0.701-4.76,1.219-7.233c1.209-5.841,3.09-28.858,3.042-29.648c-0.594-10.326-1.329-18.193-7.508-18.329
						c-0.87-0.016-1.671,0.601-2.382,1.562c-1.516-3.92-0.899-6.618-5.463-6.487c-3.996,0.117-4.205,4.604-5.318,5.664
						c-0.66-0.786-1.893-5.685-4.488-5.828c-2.405-0.134-4.769-0.313-6.573,2.693c-0.196,0.322-2.937,5.919-3.102,5.114
						c-0.304-1.492-0.524-3.005-0.777-4.505c-0.671-4.01-1.245-8.045-2.052-12.031c-0.741-3.676-1.757-7.34-1.824-11.098
						c-0.075-3.82,0.152-8.295-1.207-11.926c-0.913-2.425-2.344-3.328-4.878-2.848c-2.239,0.423-2.937,2.776-3.281,4.807
						c-0.71,4.149,0.536,8.756,0.624,12.965c0.076,3.903,0.142,7.822,0.391,11.723c0.219,3.468,0.778,6.905,1.01,10.373
						c0.228,3.334,0.189,6.645,0.265,9.979c0.045,1.956,0.133,3.95-0.085,5.9c-0.205,1.807-2.131,6.061-4.557,4.823
						c-1.444-0.737-3.072-1.753-4.307-2.803c-1.268-1.079-2.441-2.24-3.66-3.391c-1.182-1.11-2.461-2.208-3.936-2.819
						c-1.634-0.671-3.631-0.661-5.354-0.816c-2.656-0.249-7.244,0.086-6.918,4.14c0.136,1.69,1.477,1.571,2.672,1.908
						c1.558,0.439,3.047,1.262,4.434,2.135c2.043,1.286,4.027,2.77,5.984,4.209c0.912,0.669,1.846,1.349,2.656,2.155
						c0.594,0.589,0.967,1.399,1.424,2.104c1.379,2.132,2.846,4.511,4.688,6.211c1.908,1.761,3.832,3.507,5.762,5.24
						c1.545,1.386,3.233,2.571,4.806,3.91c0.768,2.478,1.491,4.954,2.101,7.454c1.844,7.548,1.75,15.625,2.072,23.349
						c0.28,6.567,0.457,13.14,0.763,19.707c0.05,1.079-0.806,5.859,0.475,5.882c1.972,0.037,5.098-0.445,7.069-0.408
						c10.721,0.211,20.598-2.01,31.32-1.804c-0.9-4.519-2.016-8.995-3.031-13.49C284.902,269.278,283.657,265.496,283.65,261.928z"
						/>
					<path fill="#F3DECB" d="M247.106,153.13c0.126,2.261,0.194,4.186-3.562,4.314c-3.606,0.209-3.9-1.615-4.029-3.875
						c-0.133-2.264,1.461-4.193,3.555-4.314C245.169,149.137,246.973,150.872,247.106,153.13z"/>
				</g>
				<g>
					<defs>
						<path id="SVGID_1_" d="M283.65,261.928c-0.008-4.143-0.801-8.263-0.982-12.405c-0.08-1.859,0.412-3.568,0.945-5.338
							c0.742-2.453,0.701-4.76,1.219-7.233c1.209-5.841,3.09-28.858,3.042-29.648c-0.594-10.326-1.329-18.193-7.508-18.329
							c-0.87-0.016-1.671,0.601-2.382,1.562c-1.516-3.92-0.899-6.618-5.463-6.487c-3.996,0.117-4.205,4.604-5.318,5.664
							c-0.66-0.786-1.893-5.685-4.488-5.828c-2.405-0.134-4.769-0.313-6.573,2.693c-0.196,0.322-2.937,5.919-3.102,5.114
							c-0.304-1.492-0.524-3.005-0.777-4.505c-0.671-4.01-1.245-8.045-2.052-12.031c-0.741-3.676-1.757-7.34-1.824-11.098
							c-0.075-3.82,0.152-8.295-1.207-11.926c-0.913-2.425-2.344-3.328-4.878-2.848c-2.239,0.423-2.937,2.776-3.281,4.807
							c-0.71,4.149,0.536,8.756,0.624,12.965c0.076,3.903,0.142,7.822,0.391,11.723c0.219,3.468,0.778,6.905,1.01,10.373
							c0.228,3.334,0.189,6.645,0.265,9.979c0.045,1.956,0.133,3.95-0.085,5.9c-0.205,1.807-2.131,6.061-4.557,4.823
							c-1.444-0.737-3.072-1.753-4.307-2.803c-1.268-1.079-2.441-2.24-3.66-3.391c-1.182-1.11-2.461-2.208-3.936-2.819
							c-1.634-0.671-3.631-0.661-5.354-0.816c-2.656-0.249-7.244,0.086-6.918,4.14c0.136,1.69,1.477,1.571,2.672,1.908
							c1.558,0.439,3.047,1.262,4.434,2.135c2.043,1.286,4.027,2.77,5.984,4.209c0.912,0.669,1.846,1.349,2.656,2.155
							c0.594,0.589,0.967,1.399,1.424,2.104c1.379,2.132,2.846,4.511,4.688,6.211c1.908,1.761,3.832,3.507,5.762,5.24
							c1.545,1.386,3.233,2.571,4.806,3.91c0.768,2.478,1.491,4.954,2.101,7.454c1.844,7.548,1.75,15.625,2.072,23.349
							c0.28,6.567,0.457,13.14,0.763,19.707c0.05,1.079-0.806,5.859,0.475,5.882c1.972,0.037,5.098-0.445,7.069-0.408
							c10.721,0.211,20.598-2.01,31.32-1.804c-0.9-4.519-2.016-8.995-3.031-13.49C284.902,269.278,283.657,265.496,283.65,261.928z"
							/>
					</defs>
					<clipPath id="SVGID_2_">
						<use xlink:href="#SVGID_1_"  overflow="visible"/>
					</clipPath>
					<path clip-path="url(#SVGID_2_)" fill="#F3DECB" d="M219.588,206.725c0.447-0.959-0.98-2.315-2.896-2.911
						c-1.919-0.604-3.727-0.271-4.041,0.738c-0.315,1.014,0.98,2.318,2.896,2.92C217.466,208.063,218.361,209.375,219.588,206.725z"
						/>
				</g>
			</g>
			<path fill="#E51A20" d="M307.363,346.513l-12.627-46.967c2.046-4.072-3.025-17.79-4.074-20.328
				c-1.109-2.697-13.21,3.062-18.9,3.852c-5.691,0.788-16.438-3.196-20.674-2.032c-4.238,1.166-4.554,3.95-4.397,6.701
				c0,0-2.01,6.565-1.666,12.532c0.165,2.873,0.906,4.219,3.55,4.782c-0.465,23.828,0.745,41.215,0.745,41.215L307.363,346.513z"/>
		</g>
	</g>
</g>
<g>
	<path fill="#FFFFFF" d="M192.692,153.108v13.622h-4.411v-2.215c-0.631,0.944-1.337,1.637-2.127,2.077
		c-0.784,0.445-1.709,0.661-2.766,0.661c-1.816,0-3.27-0.661-4.355-1.989c-1.093-1.322-1.635-3.105-1.635-5.334
		c0-2.22,0.568-3.98,1.705-5.292c1.139-1.308,2.67-1.964,4.592-1.964c1.025,0,1.91,0.22,2.651,0.656
		c0.741,0.436,1.378,1.107,1.907,2.018v-2.24H192.692z M188.469,159.903c0-1.059-0.279-1.898-0.85-2.52
		c-0.566-0.619-1.34-0.934-2.316-0.934c-0.981,0-1.756,0.309-2.314,0.926c-0.564,0.616-0.839,1.459-0.839,2.527
		c0,1.062,0.276,1.898,0.845,2.51c0.567,0.611,1.336,0.919,2.309,0.919c0.977,0,1.75-0.308,2.316-0.919
		C188.189,161.802,188.469,160.965,188.469,159.903z"/>
	<path fill="#FFFFFF" d="M196.207,172.748v-19.64h4.427v2.293c0.61-0.918,1.296-1.603,2.058-2.054
		c0.769-0.443,1.617-0.673,2.555-0.673c1.911,0,3.438,0.656,4.568,1.964c1.135,1.312,1.702,3.082,1.702,5.32
		c0,2.176-0.567,3.937-1.696,5.28c-1.128,1.345-2.603,2.015-4.412,2.015c-1.153,0-2.093-0.212-2.814-0.632
		c-0.724-0.426-1.368-1.123-1.938-2.093c0.048,0.269,0.08,0.602,0.102,0.983c0.023,0.391,0.038,0.865,0.038,1.434v5.802H196.207z
		 M200.473,159.959c0,1.062,0.272,1.897,0.829,2.511c0.551,0.609,1.313,0.912,2.281,0.912c0.972,0,1.739-0.303,2.299-0.912
		c0.565-0.613,0.848-1.448,0.848-2.511c0-1.06-0.278-1.896-0.841-2.508c-0.555-0.611-1.322-0.917-2.306-0.917
		c-0.968,0-1.73,0.306-2.281,0.917C200.745,158.062,200.473,158.899,200.473,159.959z"/>
	<path fill="#FFFFFF" d="M214.303,172.748v-19.64h4.428v2.293c0.609-0.918,1.295-1.603,2.057-2.054
		c0.77-0.443,1.617-0.673,2.553-0.673c1.912,0,3.438,0.656,4.571,1.964c1.134,1.312,1.698,3.082,1.698,5.32
		c0,2.176-0.564,3.937-1.693,5.28c-1.127,1.345-2.602,2.015-4.415,2.015c-1.15,0-2.089-0.212-2.811-0.632
		c-0.727-0.426-1.369-1.123-1.938-2.093c0.044,0.269,0.08,0.602,0.099,0.983c0.025,0.391,0.037,0.865,0.037,1.434v5.802H214.303z
		 M218.568,159.959c0,1.062,0.27,1.897,0.83,2.511c0.551,0.609,1.311,0.912,2.281,0.912s1.736-0.303,2.299-0.912
		c0.562-0.613,0.844-1.448,0.844-2.511c0-1.06-0.275-1.896-0.838-2.508c-0.554-0.611-1.322-0.917-2.305-0.917
		c-0.971,0-1.73,0.306-2.281,0.917C218.838,158.062,218.568,158.899,218.568,159.959z"/>
</g>
</svg>
