<?xml version="1.0" encoding="utf-8"?>
<!-- Generator: Adobe Illustrator 15.0.0, SVG Export Plug-In . SVG Version: 6.00 Build 0)  -->
<!DOCTYPE svg PUBLIC "-//W3C//DTD SVG 1.1//EN" "http://www.w3.org/Graphics/SVG/1.1/DTD/svg11.dtd">
<svg version="1.1" id="Layer_1" xmlns="http://www.w3.org/2000/svg" xmlns:xlink="http://www.w3.org/1999/xlink" x="0px" y="0px"
	 width="334.102px" height="307.308px" viewBox="0 0 334.102 307.308" enable-background="new 0 0 334.102 307.308"
	 xml:space="preserve">
<g>
	<g>
		<path d="M115.754,139.553h-12.889c-0.633,0-1.191,0.359-1.625,0.917h-1.083c-4.481,0-8.229,4.54-9.096,10.556
			c-0.715,0.52-1.223,1.435-1.223,2.521v15.703c0,0.986,0.427,1.82,1.034,2.365v59.177c0,7.286,4.164,13.216,9.284,13.216H227.4
			c5.12,0,9.284-5.93,9.284-13.216v-77.104c0-7.29-4.164-13.218-9.284-13.218H124.145c-0.136-0.558-0.307-0.917-0.494-0.917h-3.927
			c-0.193,0-0.36,0.359-0.495,0.917h-1.85C116.945,139.912,116.383,139.553,115.754,139.553"/>
		<path fill="#F5F5F5" d="M105.57,197.648v-10.444c0-0.962,0.779-1.741,1.743-1.741c0.958,0,1.736,0.779,1.736,1.741v10.444
			c0,0.958-0.778,1.737-1.736,1.737C106.35,199.386,105.57,198.606,105.57,197.648"/>
		<rect x="113.824" y="150.199" fill="#F9F8DE" width="104.424" height="84.262"/>
	</g>
	<g>
		<g>
			<defs>
				<rect id="SVGID_1_" x="181.757" y="112.851" width="44.408" height="44.408"/>
			</defs>
			<clipPath id="SVGID_2_">
				<use xlink:href="#SVGID_1_"  overflow="visible"/>
			</clipPath>
			<path clip-path="url(#SVGID_2_)" fill="#FB518C" d="M226.164,135.055c0,12.263-9.94,22.204-22.203,22.204
				c-12.264,0-22.204-9.941-22.204-22.204s9.94-22.204,22.204-22.204C216.224,112.851,226.164,122.792,226.164,135.055"/>
			<path clip-path="url(#SVGID_2_)" fill="#FFFFFF" d="M203.268,127.514L203.268,127.514c1.034-0.91,2.097-1.766,3.183-2.396
				c0.512-0.296,1.046-0.544,1.622-0.726c1.194-0.415,2.407-0.467,3.623-0.398c3.776,0.322,5.504,3.732,5.65,7.159
				c0.41,9.584-12.881,17.299-13.967,17.565c-1.09-0.256-14.459-7.831-14.149-17.419c0.111-3.428,1.803-6.856,5.575-7.218
				c1.217-0.081,2.428-0.041,3.628,0.362c0.577,0.174,1.113,0.416,1.629,0.707C201.153,125.77,202.226,126.613,203.268,127.514"/>
		</g>
		<g>
			<defs>
				<rect id="SVGID_3_" x="214.593" y="82.594" width="26.2" height="26.2"/>
			</defs>
			<clipPath id="SVGID_4_">
				<use xlink:href="#SVGID_3_"  overflow="visible"/>
			</clipPath>
			<path clip-path="url(#SVGID_4_)" fill="#FC7803" d="M240.794,95.693c0,7.235-5.865,13.101-13.101,13.101
				s-13.101-5.865-13.101-13.101s5.865-13.1,13.101-13.1S240.794,88.458,240.794,95.693"/>
			<path clip-path="url(#SVGID_4_)" fill="#FFFFFF" d="M234.818,94.51c0-0.143,0.115-0.257,0.256-0.257h0.353
				c0.142,0,0.256,0.114,0.256,0.257c0,0.142-0.114,0.256-0.256,0.256h-0.353C234.934,94.766,234.818,94.651,234.818,94.51"/>
			<rect x="224.776" y="92.78" clip-path="url(#SVGID_4_)" fill="#FFFFFF" width="4.889" height="0.064"/>
			<path clip-path="url(#SVGID_4_)" fill="#FFFFFF" d="M229.693,92.873h-4.945v-0.121h4.945V92.873z M224.807,92.815h4.83v-0.007
				h-4.83V92.815z"/>
			<path clip-path="url(#SVGID_4_)" fill="#FFFFFF" d="M228.063,94.35h-0.129c0-0.441-0.295-0.8-0.658-0.8h-0.651
				c-0.363,0-0.658,0.358-0.658,0.8h-0.129c0-0.512,0.354-0.929,0.787-0.929h0.651C227.709,93.421,228.063,93.838,228.063,94.35"/>
			<path clip-path="url(#SVGID_4_)" fill="#FFFFFF" d="M228.092,94.378h-0.186V94.35c0-0.426-0.282-0.771-0.63-0.771h-0.651
				c-0.348,0-0.63,0.346-0.63,0.771v0.028h-0.187V94.35c0-0.527,0.366-0.958,0.816-0.958h0.651c0.448,0,0.815,0.431,0.815,0.958
				V94.378z M227.963,94.32h0.07c-0.012-0.482-0.348-0.871-0.757-0.871h-0.651c-0.41,0-0.745,0.389-0.758,0.871h0.07
				c0.013-0.444,0.316-0.801,0.688-0.801h0.651C227.646,93.52,227.95,93.876,227.963,94.32"/>
			<path clip-path="url(#SVGID_4_)" fill="#FFFFFF" d="M221.316,98.553c-0.933,0-1.727-0.505-2.029-1.005
				c-0.501-0.827-0.662-1.781-0.521-3.095c0.133-1.238,1.165-2.064,2.632-2.106c0.149-0.005,0.296-0.006,0.436-0.006
				c1.875,0,3.16,0.397,3.926,1.218c0.04,0.068,0.534,0.994-0.618,2.527c-1.247,1.661-2.178,2.151-3.274,2.404
				C221.689,98.532,221.504,98.553,221.316,98.553L221.316,98.553z"/>
			<path clip-path="url(#SVGID_4_)" fill="#FFFFFF" d="M225.812,93.52c-1.045-1.123-2.87-1.281-4.415-1.236
				c-1.547,0.044-2.562,0.927-2.694,2.163c-0.132,1.236-0.019,2.229,0.53,3.136c0.395,0.651,1.52,1.231,2.648,0.971
				c1.2-0.275,2.12-0.842,3.312-2.428C226.431,94.478,225.812,93.52,225.812,93.52 M225.142,96.086
				c-1.247,1.661-2.178,2.151-3.274,2.404c-0.178,0.042-0.363,0.062-0.551,0.062l0,0c-0.933,0-1.727-0.505-2.029-1.005
				c-0.501-0.827-0.662-1.781-0.521-3.095c0.133-1.238,1.165-2.064,2.632-2.106c0.149-0.004,0.296-0.006,0.436-0.006
				c1.875,0,3.16,0.397,3.926,1.218C225.8,93.627,226.294,94.553,225.142,96.086"/>
			<path clip-path="url(#SVGID_4_)" fill="#FFFFFF" d="M221.316,98.646L221.316,98.646c-0.968,0-1.793-0.528-2.109-1.049
				c-0.512-0.846-0.676-1.818-0.533-3.153c0.138-1.287,1.206-2.146,2.721-2.189c0.151-0.004,0.299-0.007,0.438-0.007
				c1.906,0,3.216,0.409,3.999,1.253c0.01,0.013,0.62,0.998-0.615,2.643c-1.266,1.684-2.212,2.18-3.329,2.438
				C221.702,98.624,221.51,98.646,221.316,98.646 M221.833,92.305c-0.14,0-0.286,0.003-0.437,0.007
				c-1.484,0.042-2.531,0.882-2.666,2.138c-0.141,1.322,0.021,2.283,0.526,3.117c0.308,0.508,1.114,1.021,2.06,1.021l0,0
				c0.189,0,0.378-0.021,0.559-0.063c1.104-0.254,2.041-0.748,3.296-2.417c1.209-1.609,0.622-2.563,0.616-2.572
				C225.018,92.709,223.723,92.305,221.833,92.305 M221.316,98.582c-0.944,0-1.748-0.513-2.055-1.019
				c-0.504-0.833-0.666-1.794-0.524-3.113c0.134-1.253,1.179-2.09,2.659-2.133c0.147-0.004,0.295-0.006,0.438-0.006
				c1.883,0,3.175,0.401,3.947,1.227l0.004,0.005c0.058,0.102,0.534,1.024-0.62,2.561c-1.253,1.668-2.188,2.16-3.291,2.415
				C221.693,98.561,221.506,98.582,221.316,98.582 M221.834,92.369c-0.142,0-0.288,0.002-0.436,0.006
				c-1.451,0.042-2.473,0.858-2.604,2.081c-0.141,1.308,0.02,2.256,0.517,3.077c0.298,0.492,1.083,0.991,2.005,0.991
				c0.185,0,0.368-0.021,0.544-0.062c1.091-0.252,2.016-0.74,3.259-2.395c1.132-1.506,0.655-2.426,0.618-2.493
				C224.977,92.764,223.699,92.369,221.834,92.369"/>
			<path clip-path="url(#SVGID_4_)" fill="#FFFFFF" d="M232.586,98.553c0.934,0,1.728-0.505,2.03-1.005
				c0.5-0.827,0.661-1.781,0.521-3.095c-0.133-1.238-1.166-2.064-2.632-2.106c-0.149-0.005-0.296-0.006-0.436-0.006
				c-1.876,0-3.16,0.397-3.927,1.218c-0.04,0.068-0.534,0.994,0.618,2.527c1.248,1.661,2.178,2.151,3.274,2.404
				C232.215,98.532,232.399,98.553,232.586,98.553L232.586,98.553z"/>
			<path clip-path="url(#SVGID_4_)" fill="#FFFFFF" d="M228.709,96.125c1.191,1.586,2.113,2.152,3.312,2.428
				c1.129,0.261,2.254-0.319,2.648-0.971c0.549-0.906,0.663-1.899,0.53-3.136s-1.148-2.119-2.693-2.163
				c-1.546-0.045-3.37,0.113-4.416,1.236C228.091,93.52,227.472,94.478,228.709,96.125 M228.143,93.559
				c0.767-0.82,2.051-1.218,3.927-1.218c0.14,0,0.286,0.002,0.436,0.006c1.466,0.042,2.499,0.868,2.632,2.106
				c0.141,1.313-0.021,2.268-0.521,3.095c-0.303,0.5-1.097,1.005-2.03,1.005h-0.001c-0.186,0-0.37-0.021-0.55-0.062
				c-1.097-0.253-2.026-0.743-3.274-2.404C227.608,94.553,228.103,93.627,228.143,93.559"/>
			<path clip-path="url(#SVGID_4_)" fill="#FFFFFF" d="M232.587,98.646L232.587,98.646c-0.195,0-0.387-0.021-0.572-0.065
				c-1.117-0.258-2.063-0.754-3.329-2.438c-1.234-1.645-0.625-2.63-0.618-2.639c0.787-0.848,2.095-1.257,4.002-1.257
				c0.14,0,0.288,0.003,0.438,0.007c1.516,0.043,2.583,0.902,2.722,2.189c0.143,1.335-0.022,2.308-0.534,3.153
				C234.38,98.117,233.554,98.646,232.587,98.646 M232.069,92.305c-1.89,0-3.185,0.404-3.958,1.234
				c-0.002,0.005-0.589,0.959,0.621,2.568c1.255,1.669,2.19,2.163,3.295,2.417c0.182,0.042,0.369,0.063,0.559,0.063
				c0.946,0,1.753-0.514,2.06-1.021c0.506-0.834,0.668-1.795,0.526-3.117c-0.135-1.256-1.181-2.096-2.666-2.138
				C232.355,92.308,232.209,92.305,232.069,92.305 M232.586,98.582c-0.188,0-0.376-0.021-0.557-0.063
				c-1.104-0.255-2.038-0.747-3.292-2.415c-1.153-1.536-0.678-2.459-0.62-2.561l0.004-0.005c0.772-0.825,2.063-1.227,3.948-1.227
				c0.142,0,0.288,0.002,0.436,0.006c1.482,0.043,2.525,0.88,2.66,2.133c0.142,1.319-0.021,2.28-0.525,3.113
				C234.334,98.069,233.529,98.582,232.586,98.582 M228.166,93.575c-0.038,0.067-0.514,0.988,0.617,2.493
				c1.243,1.654,2.168,2.143,3.259,2.395c0.177,0.04,0.359,0.062,0.543,0.062c0.924,0,1.708-0.499,2.006-0.991
				c0.498-0.821,0.657-1.77,0.517-3.077c-0.131-1.223-1.152-2.039-2.604-2.081c-0.147-0.004-0.293-0.006-0.435-0.006
				C230.203,92.369,228.927,92.764,228.166,93.575"/>
			<path clip-path="url(#SVGID_4_)" fill="#FFFFFF" d="M218.012,94.51c0-0.143,0.114-0.257,0.256-0.257h0.352
				c0.142,0,0.256,0.114,0.256,0.257c0,0.142-0.114,0.256-0.256,0.256h-0.352C218.126,94.766,218.012,94.651,218.012,94.51"/>
			<path clip-path="url(#SVGID_4_)" fill="#FFFFFF" d="M225.591,95.393c-0.139,0.292-0.329,0.493-0.426,0.447
				c-0.096-0.045-0.06-0.32,0.079-0.612c0.139-0.293,0.329-0.493,0.425-0.448C225.765,94.825,225.729,95.099,225.591,95.393"/>
			<path clip-path="url(#SVGID_4_)" fill="#FFFFFF" d="M228.317,95.393c0.139,0.292,0.329,0.493,0.425,0.447
				c0.096-0.045,0.061-0.32-0.078-0.612c-0.139-0.293-0.329-0.493-0.425-0.448C228.144,94.825,228.178,95.099,228.317,95.393"/>
		</g>
		<g>
			<defs>
				<rect id="SVGID_5_" x="215.659" y="13.054" width="39.052" height="39.053"/>
			</defs>
			<clipPath id="SVGID_6_">
				<use xlink:href="#SVGID_5_"  overflow="visible"/>
			</clipPath>
			<path clip-path="url(#SVGID_6_)" fill="#3DCABF" d="M254.712,32.58c0,10.784-8.743,19.526-19.526,19.526
				c-10.784,0-19.526-8.742-19.526-19.526s8.742-19.526,19.526-19.526C245.969,13.054,254.712,21.796,254.712,32.58"/>
			<path clip-path="url(#SVGID_6_)" fill="#FFFFFF" d="M230.707,42.973c0.166-0.164,0.166-0.432,0-0.597
				c-0.164-0.165-0.432-0.165-0.598,0l-0.894,0.896c-0.166,0.165-0.166,0.432,0,0.598c0.164,0.164,0.431,0.164,0.596,0
				L230.707,42.973z"/>
			<path clip-path="url(#SVGID_6_)" fill="#FFFFFF" d="M235.448,24.103c0-0.233-0.188-0.422-0.422-0.422s-0.422,0.188-0.422,0.422
				v1.267c0,0.233,0.188,0.422,0.422,0.422s0.422-0.188,0.422-0.422V24.103z"/>
			<path clip-path="url(#SVGID_6_)" fill="#FFFFFF" d="M238.027,42.973c-0.165-0.164-0.165-0.432,0-0.597s0.433-0.165,0.598,0
				l0.895,0.896c0.165,0.165,0.165,0.432,0,0.598c-0.164,0.164-0.433,0.164-0.597,0L238.027,42.973z"/>
			<path clip-path="url(#SVGID_6_)" fill="#FFFFFF" d="M228.003,23.184c-1.178,0.6-2.021,1.484-2.298,2.301l5.509-2.811
				C230.392,22.419,229.18,22.583,228.003,23.184"/>
			<path clip-path="url(#SVGID_6_)" fill="#FFFFFF" d="M225.705,25.484c-0.003,0.665,0.153,1.355,0.486,2.009l6.363-3.246
				c-0.334-0.652-0.801-1.184-1.341-1.573L225.705,25.484z"/>
			
				<rect x="229.404" y="25.821" transform="matrix(-0.8923 0.4514 -0.4514 -0.8923 446.3406 -53.826)" clip-path="url(#SVGID_6_)" fill="#FFFFFF" width="0.372" height="1.006"/>
			<path clip-path="url(#SVGID_6_)" fill="#FFFFFF" d="M241.662,23.184c1.179,0.6,2.022,1.484,2.299,2.301l-5.51-2.811
				C239.274,22.419,240.485,22.583,241.662,23.184"/>
			<path clip-path="url(#SVGID_6_)" fill="#FFFFFF" d="M243.961,25.484c0.002,0.665-0.153,1.355-0.487,2.009l-6.362-3.246
				c0.333-0.652,0.8-1.184,1.34-1.573L243.961,25.484z"/>
			
				<rect x="239.89" y="25.821" transform="matrix(0.8923 0.4514 -0.4514 0.8923 37.7346 -105.5374)" clip-path="url(#SVGID_6_)" fill="#FFFFFF" width="0.372" height="1.005"/>
			<path clip-path="url(#SVGID_6_)" fill="#FFFFFF" d="M244.172,34.262c0,5.266-4.27,9.534-9.534,9.534
				c-5.267,0-9.535-4.269-9.535-9.534c0-5.267,4.269-9.535,9.535-9.535C239.902,24.727,244.172,28.995,244.172,34.262"/>
			<path clip-path="url(#SVGID_6_)" fill="#FFFFFF" d="M244.035,34.262c0,5.189-4.207,9.397-9.397,9.397s-9.398-4.208-9.398-9.397
				c0-5.191,4.208-9.398,9.398-9.398S244.035,29.07,244.035,34.262"/>
			<path clip-path="url(#SVGID_6_)" fill="#FFFFFF" d="M242.457,34.262c0,4.319-3.501,7.82-7.819,7.82
				c-4.32,0-7.821-3.501-7.821-7.82c0-4.32,3.501-7.821,7.821-7.821C238.956,26.44,242.457,29.941,242.457,34.262"/>
			<path clip-path="url(#SVGID_6_)" fill="#3DCABF" d="M242.363,34.262c0,4.267-3.459,7.726-7.726,7.726
				c-4.268,0-7.727-3.459-7.727-7.726c0-4.268,3.459-7.727,7.727-7.727C238.904,26.535,242.363,29.994,242.363,34.262"/>
			<polygon clip-path="url(#SVGID_6_)" fill="#FFFFFF" points="239.389,28.982 239.39,28.982 233.709,34.331 234.452,35.022 
				239.387,28.984 			"/>
			<polygon clip-path="url(#SVGID_6_)" fill="#FFFFFF" points="233.993,33.222 233.531,33.909 238.69,36.918 			"/>
			<path clip-path="url(#SVGID_6_)" fill="#FFFFFF" d="M235.191,34.698c-0.309,0.328-0.824,0.347-1.154,0.04
				c-0.329-0.308-0.347-0.824-0.04-1.154c0.308-0.329,0.823-0.348,1.153-0.039C235.48,33.851,235.499,34.367,235.191,34.698"/>
			<path clip-path="url(#SVGID_6_)" fill="#FFFFFF" d="M234.871,34.399c-0.142,0.153-0.383,0.162-0.536,0.02
				c-0.153-0.144-0.161-0.384-0.019-0.536c0.144-0.154,0.383-0.163,0.537-0.02C235.007,34.006,235.015,34.247,234.871,34.399"/>
			<path clip-path="url(#SVGID_6_)" fill="#FFFFFF" d="M234.733,34.271c-0.072,0.077-0.192,0.081-0.269,0.009
				c-0.077-0.07-0.081-0.191-0.009-0.268c0.071-0.076,0.19-0.08,0.268-0.01C234.801,34.073,234.805,34.193,234.733,34.271"/>
			<path clip-path="url(#SVGID_6_)" fill="#FFFFFF" d="M235,21.5c0.739,0,1.338,0.598,1.338,1.336s-0.599,1.337-1.338,1.337
				c-0.737,0-1.336-0.599-1.336-1.337S234.263,21.5,235,21.5"/>
			<path clip-path="url(#SVGID_6_)" fill="#FFFFFF" d="M235,21.57c0.7,0,1.267,0.567,1.267,1.266c0,0.7-0.566,1.267-1.267,1.267
				c-0.699,0-1.265-0.566-1.265-1.267C233.735,22.138,234.301,21.57,235,21.57"/>
			<path clip-path="url(#SVGID_6_)" fill="#FFFFFF" d="M228.141,34.074c0,0.171-0.14,0.311-0.311,0.311
				c-0.172,0-0.311-0.14-0.311-0.311c0-0.172,0.139-0.311,0.311-0.311C228.001,33.764,228.141,33.902,228.141,34.074"/>
			<path clip-path="url(#SVGID_6_)" fill="#FFFFFF" d="M241.631,34.074c0,0.171-0.14,0.311-0.311,0.311s-0.311-0.14-0.311-0.311
				c0-0.172,0.14-0.311,0.311-0.311S241.631,33.902,241.631,34.074"/>
			<path clip-path="url(#SVGID_6_)" fill="#FFFFFF" d="M234.969,41.232c0,0.172-0.14,0.311-0.312,0.311
				c-0.171,0-0.31-0.139-0.31-0.311c0-0.171,0.139-0.31,0.31-0.31C234.829,40.923,234.969,41.062,234.969,41.232"/>
			<path clip-path="url(#SVGID_6_)" fill="#FFFFFF" d="M234.969,27.246c0,0.172-0.14,0.311-0.312,0.311
				c-0.171,0-0.31-0.139-0.31-0.311s0.139-0.311,0.31-0.311C234.829,26.936,234.969,27.074,234.969,27.246"/>
		</g>
		<g>
			<defs>
				<rect id="SVGID_7_" x="95.354" y="137.666" width="36.91" height="36.91"/>
			</defs>
			<clipPath id="SVGID_8_">
				<use xlink:href="#SVGID_7_"  overflow="visible"/>
			</clipPath>
			<path clip-path="url(#SVGID_8_)" fill="#98D925" d="M132.264,156.121c0,10.192-8.264,18.455-18.455,18.455
				c-10.193,0-18.456-8.263-18.456-18.455c0-10.193,8.263-18.455,18.456-18.455C124,137.666,132.264,145.928,132.264,156.121"/>
			<path clip-path="url(#SVGID_8_)" fill="#FFFFFF" d="M113.355,144.463c-5.85,0-10.592,4.743-10.592,10.594
				c0,5.85,4.742,10.593,10.592,10.593c5.851,0,10.594-4.743,10.594-10.593C123.949,149.206,119.206,144.463,113.355,144.463
				 M114.263,159.842l-0.124,0.02v1.668h-1.328v-1.553l-0.142-0.006c-0.932-0.041-1.944-0.287-2.623-0.634l0.416-1.624
				c0.548,0.276,1.498,0.651,2.627,0.651c1.058,0,1.741-0.458,1.741-1.166c0-0.789-0.742-1.197-1.857-1.569
				c-2-0.672-2.854-1.528-2.854-2.861c0-1.428,0.992-2.465,2.653-2.775l0.12-0.023v-1.533h1.311v1.439l0.146,0.004
				c1.039,0.032,1.73,0.262,2.224,0.479l-0.414,1.559c-0.448-0.209-1.191-0.512-2.265-0.512c-1.448,0-1.561,0.83-1.561,1.084
				c0,0.658,0.732,1.048,2.084,1.534c1.865,0.659,2.626,1.512,2.626,2.946C117.043,158.457,115.978,159.558,114.263,159.842"/>
		</g>
		<g>
			<defs>
				<rect id="SVGID_9_" x="127.142" y="24.322" width="43.023" height="52.059"/>
			</defs>
			<clipPath id="SVGID_10_">
				<use xlink:href="#SVGID_9_"  overflow="visible"/>
			</clipPath>
			<path clip-path="url(#SVGID_10_)" fill="#FFFFFF" d="M170.157,41.242c0.163-5.442-2.379-10.847-7.227-14.114
				c-7.513-5.065-17.71-3.081-22.775,4.433c-1.995,2.959-2.891,6.332-2.792,9.646c-0.131,4.366,1.483,8.708,4.63,11.94
				c-0.132,0.254-0.118,0.473,0.059,0.72c-0.068,0.14-0.093,0.278-0.072,0.396c-0.438-0.153-1.209,0.235-1.792,0.931
				c-4.104,4.865-8.043,9.724-12.068,14.536c-0.63,0.75-1.063,1.797-0.963,2.328c0.001,0.001,0.37,1.962,2.141,3.223
				c1.729,1.315,3.711,1.088,3.711,1.088c0.539-0.061,1.41-0.787,1.94-1.607c3.401-5.273,6.87-10.479,10.3-15.838
				c0.488-0.76,0.632-1.604,0.365-1.982c0.154-0.023,0.33-0.135,0.459-0.312l0.074-0.101c0.134,0.004,0.25-0.03,0.354-0.103
				c7.251,3.589,16.216,1.354,20.864-5.54C169.359,47.928,170.256,44.555,170.157,41.242 M166.042,49.013
				c-4.572,6.783-13.778,8.573-20.562,4.001c-4.101-2.762-6.373-7.218-6.523-11.808c0.09-2.687,0.908-5.379,2.521-7.771
				c4.572-6.784,13.777-8.575,20.562-4.003c4.1,2.764,6.372,7.219,6.521,11.811C168.473,43.927,167.655,46.621,166.042,49.013"/>
		</g>
		<g>
			<defs>
				<rect id="SVGID_11_" x="117.771" y="71.7" width="58.327" height="58.328"/>
			</defs>
			<clipPath id="SVGID_12_">
				<use xlink:href="#SVGID_11_"  overflow="visible"/>
			</clipPath>
			<path clip-path="url(#SVGID_12_)" fill="#12AEF2" d="M176.098,100.864c0,16.106-13.057,29.163-29.163,29.163
				s-29.164-13.057-29.164-29.163S130.828,71.7,146.935,71.7S176.098,84.758,176.098,100.864"/>
			<path clip-path="url(#SVGID_12_)" fill="#FFFFFF" d="M140.452,91.512v2.113c4.661,0,8.452,3.791,8.452,8.452h2.113
				C151.018,96.251,146.278,91.512,140.452,91.512"/>
			<path clip-path="url(#SVGID_12_)" fill="#FFFFFF" d="M140.452,82.003v2.113c9.903,0,17.962,8.057,17.962,17.961h2.111
				C160.525,91.008,151.521,82.003,140.452,82.003"/>
			<path clip-path="url(#SVGID_12_)" fill="#FFFFFF" d="M140.452,86.757v2.114c7.281,0,13.207,5.924,13.207,13.206h2.112
				C155.771,93.631,148.899,86.757,140.452,86.757"/>
			<path clip-path="url(#SVGID_12_)" fill="#FFFFFF" d="M146.9,108.745l0.511-0.433c1.101-0.934,2.166-1.291,3.196-1.079
				c1.031,0.213,2.143,1.022,3.336,2.431c0.849,1.001,1.117,1.826,1.226,2.449c0.224,1.298-2.044,2.639-2.044,2.639
				C152.65,113.568,149.943,109.709,146.9,108.745 M131.349,89.157l0.659-0.559c0.836-0.709,1.565-1.02,2.188-0.933
				c0.62,0.087,1.343,0.614,2.163,1.582c2.284,2.694,2.439,4.877,0.472,6.545l-0.627,0.531
				C135.787,94.428,132.192,89.707,131.349,89.157 M130.739,89.675c0.688-0.841,4.225,5.187,4.771,7.238l-0.297,0.25
				c-1.353,1.147-0.292,3.771,3.186,7.872c3.59,4.236,6.059,5.779,7.411,4.633l0.298-0.25c2.073-0.133,7.173,5.15,6.356,5.893
				c-4.797,4.359-9.618-0.488-11.527-2.095c-1.906-1.605-3.724-3.425-5.447-5.457c-1.772-2.091-3.298-4.217-4.583-6.378
				C129.623,99.218,126.145,95.277,130.739,89.675"/>
		</g>
		<g>
			<defs>
				<rect id="SVGID_13_" x="161.437" y="69.889" width="44.407" height="44.408"/>
			</defs>
			<clipPath id="SVGID_14_">
				<use xlink:href="#SVGID_13_"  overflow="visible"/>
			</clipPath>
			<path clip-path="url(#SVGID_14_)" fill="#FB450B" d="M205.844,92.094c0,12.262-9.939,22.203-22.203,22.203
				c-12.263,0-22.204-9.941-22.204-22.203c0-12.264,9.941-22.204,22.204-22.204C195.904,69.89,205.844,79.83,205.844,92.094"/>
			<path clip-path="url(#SVGID_14_)" fill="#FFFFFF" d="M195.069,92.85c0,6.259-5.073,11.33-11.33,11.33
				c-6.258,0-11.331-5.071-11.331-11.33c0-6.257,5.073-11.33,11.331-11.33C189.996,81.52,195.069,86.593,195.069,92.85"/>
			<path clip-path="url(#SVGID_14_)" fill="#FB450B" d="M192.804,92.85c0,5.007-4.06,9.064-9.064,9.064
				c-5.007,0-9.064-4.058-9.064-9.064c0-5.006,4.058-9.063,9.064-9.063C188.744,83.786,192.804,87.844,192.804,92.85"/>
			<path clip-path="url(#SVGID_14_)" fill="#FFFFFF" d="M190.537,92.85c0,3.756-3.043,6.799-6.798,6.799s-6.799-3.043-6.799-6.799
				c0-3.754,3.044-6.798,6.799-6.798S190.537,89.096,190.537,92.85"/>
			<path clip-path="url(#SVGID_14_)" fill="#FB450B" d="M188.271,92.85c0,2.503-2.029,4.533-4.532,4.533s-4.532-2.03-4.532-4.533
				s2.029-4.531,4.532-4.531S188.271,90.347,188.271,92.85"/>
			<path clip-path="url(#SVGID_14_)" fill="#FFFFFF" d="M186.005,92.85c0,1.252-1.015,2.267-2.266,2.267
				c-1.252,0-2.266-1.015-2.266-2.267c0-1.251,1.014-2.265,2.266-2.265C184.99,90.585,186.005,91.599,186.005,92.85"/>
			<polygon clip-path="url(#SVGID_14_)" fill="#FFFFFF" points="186.962,89.223 186.094,88.248 183.451,92.85 188.326,90.754 
				187.458,89.779 195.253,82.834 197.096,82.939 199.602,80.708 197.232,80.57 197.369,78.202 194.863,80.435 194.757,82.277 			
				"/>
			<path clip-path="url(#SVGID_14_)" fill="#FB450B" d="M183.154,93.115l2.917-5.081l0.901,1.011l7.662-6.826l0.106-1.844
				l2.771-2.469l-0.146,2.546l2.547,0.147l-2.771,2.469l-1.843-0.106l-7.662,6.828l0.9,1.011L183.154,93.115z M186.115,88.463
				l-2.366,4.122l4.367-1.878l-0.836-0.938l7.928-7.064l1.843,0.106l2.24-1.996l-2.191-0.126l0.127-2.191l-2.24,1.996l-0.106,1.842
				l-7.928,7.064L186.115,88.463z"/>
		</g>
		<g>
			<defs>
				<rect id="SVGID_15_" x="107.584" y="53.311" width="26.2" height="26.2"/>
			</defs>
			<clipPath id="SVGID_16_">
				<use xlink:href="#SVGID_15_"  overflow="visible"/>
			</clipPath>
			<path clip-path="url(#SVGID_16_)" fill="#3DCABF" d="M133.784,66.41c0,7.235-5.865,13.101-13.1,13.101
				c-7.235,0-13.101-5.865-13.101-13.101c0-7.234,5.865-13.1,13.101-13.1C127.919,53.311,133.784,59.176,133.784,66.41"/>
			<path clip-path="url(#SVGID_16_)" fill="#FFFFFF" d="M114.663,60.09l0.094,0.091c0.002-0.009,0.003-0.018,0.005-0.025
				L114.663,60.09z"/>
			<path clip-path="url(#SVGID_16_)" fill="#FFFFFF" d="M126.43,68.771c-0.41-0.415-0.947-0.628-1.483-0.636
				c-0.149-0.104-0.302-0.236-0.412-0.399l-2.712-3.674l0.846-0.846l0.823,0.242c0.116,0.034,0.263-0.015,0.335-0.111l2.274-3.042
				c0.072-0.097,0.066-0.251-0.014-0.342l-0.244-0.275c-0.066-0.077-0.18-0.197-0.252-0.27c-0.071-0.072-0.192-0.185-0.269-0.252
				l-0.276-0.244c-0.091-0.08-0.244-0.086-0.341-0.014l-3.043,2.274c-0.096,0.072-0.146,0.22-0.111,0.335l0.242,0.824l-0.712,0.712
				c-0.104-0.158-0.32-0.519-0.687-1.261c0.419-1.042,0.205-2.297-0.643-3.176c-0.688-0.711-1.672-1.043-2.632-0.888l-0.149,0.024
				L117,57.783c-0.014,0.003-0.027,0.004-0.041,0.007l-0.148,0.024l1.292,1.386c0.487,0.522,0.562,1.261,0.164,1.644l-0.01,0.01
				l-0.801,0.746c-0.062,0.058-0.131,0.103-0.205,0.138c-0.373,0.092-0.832-0.066-1.287-0.396l-1.207-1.16c0,0.004,0,0.008,0,0.011
				l-0.135-0.145l-0.022,0.168c-0.124,0.91,0.178,1.816,0.826,2.487c0.734,0.761,1.771,1.055,2.721,0.87
				c0.813,0.776,0.978,1.032,0.978,1.032l0.173,0.232l-0.632,0.632l-0.845-0.844c-0.149-0.15-0.482-0.062-0.741,0.197
				c-0.26,0.259-0.348,0.592-0.197,0.742l0.349,0.348c-0.455,0.335-1.198,0.012-1.683-0.055c-0.513-0.069-3.921,3.297-3.192,4.359
				c1.046,1.522,2.448,2.449,2.448,2.449c1.122,0.58,4.429-2.68,4.358-3.194c-0.065-0.483-0.389-1.226-0.055-1.683l0.338,0.339
				c0.151,0.149,0.482,0.062,0.742-0.198c0.259-0.259,0.348-0.591,0.197-0.741l-0.845-0.845l0.5-0.501l2.462,3.335
				c0.143,0.175,0.229,0.391,0.281,0.584c-0.15,0.673,0.04,1.416,0.57,1.953c0.493,0.498,1.191,0.725,1.87,0.606l0.105-0.019
				l-0.028-0.03c0.028-0.004,0.057-0.007,0.085-0.012l0.104-0.019l-0.927-0.971c-0.349-0.366-0.408-0.888-0.13-1.162l0.008-0.007
				l0.56-0.534c0.036-0.034,0.074-0.062,0.114-0.085c0.28-0.063,0.628,0.052,0.887,0.322l0.856,0.897l0.001-0.004l0.006,0.009
				l0.129-0.252C127.073,69.812,126.895,69.24,126.43,68.771"/>
		</g>
		<g>
			<defs>
				<rect id="SVGID_17_" x="180.436" y="35.906" width="48.331" height="48.332"/>
			</defs>
			<clipPath id="SVGID_18_">
				<use xlink:href="#SVGID_17_"  overflow="visible"/>
			</clipPath>
			<path clip-path="url(#SVGID_18_)" fill="#FDBF12" d="M228.767,60.072c0,13.346-10.818,24.166-24.165,24.166
				c-13.348,0-24.166-10.82-24.166-24.166c0-13.348,10.818-24.167,24.166-24.167C217.948,35.905,228.767,46.725,228.767,60.072"/>
			<path clip-path="url(#SVGID_18_)" fill="#FFFFFF" d="M201.543,70.244l0.386-0.331c0.832-0.718,1.642-0.996,2.427-0.841
				c0.788,0.155,1.639,0.766,2.557,1.83c0.652,0.758,0.861,1.385,0.947,1.857c0.178,0.988-1.54,2.023-1.54,2.023
				C205.95,73.884,203.866,70.961,201.543,70.244 M189.58,55.422l0.498-0.431c0.633-0.544,1.186-0.785,1.66-0.722
				c0.474,0.062,1.026,0.459,1.656,1.191c1.756,2.037,1.888,3.698,0.399,4.98l-0.474,0.408
				C192.992,59.408,190.226,55.836,189.58,55.422 M189.117,55.819c0.521-0.646,3.25,3.925,3.68,5.483l-0.225,0.193
				c-1.024,0.881-0.2,2.873,2.473,5.976c2.76,3.204,4.65,4.365,5.674,3.482l0.225-0.192c1.577-0.112,5.494,3.881,4.877,4.45
				c-3.628,3.349-7.329-0.313-8.792-1.525c-1.462-1.211-2.856-2.586-4.183-4.123c-1.362-1.582-2.537-3.191-3.527-4.831
				C188.325,63.095,185.652,60.113,189.117,55.819"/>
			<path clip-path="url(#SVGID_18_)" fill="#FFFFFF" d="M204.412,45.854c-5.023,0-9.686,2.728-12.169,7.118l-0.014,0.039
				c-0.031,0.191,0.01,0.364,0.12,0.499c0.135,0.167,0.366,0.265,0.652,0.276l0.075,0.003l0.034-0.064
				c2.256-4.16,6.585-6.743,11.301-6.743c7.083,0,12.846,5.761,12.846,12.844c0,5.421-3.438,10.286-8.554,12.105l-0.05,0.019
				l-0.021,0.049c-0.095,0.237-0.106,0.433-0.032,0.599c0.073,0.163,0.229,0.289,0.461,0.375l0.041,0.015l0.041-0.015
				c5.526-1.996,9.239-7.278,9.239-13.146C218.384,52.122,212.116,45.854,204.412,45.854"/>
			<path clip-path="url(#SVGID_18_)" fill="#FFFFFF" d="M202.17,59.529c0,0.077-0.004,0.142-0.01,0.196
				c-0.007,0.054-0.018,0.099-0.03,0.132c-0.014,0.035-0.03,0.06-0.052,0.074c-0.021,0.015-0.045,0.022-0.07,0.022h-2.953
				c-0.057,0-0.107-0.005-0.15-0.017c-0.042-0.01-0.077-0.031-0.103-0.061c-0.026-0.031-0.046-0.075-0.058-0.133
				c-0.012-0.059-0.018-0.134-0.018-0.226c0-0.089,0.003-0.163,0.012-0.225c0.008-0.062,0.022-0.118,0.044-0.167
				c0.021-0.049,0.049-0.097,0.081-0.143c0.033-0.047,0.075-0.098,0.129-0.154l0.889-0.951c0.177-0.186,0.32-0.354,0.429-0.506
				c0.107-0.151,0.193-0.291,0.254-0.417c0.061-0.125,0.103-0.24,0.125-0.347c0.022-0.105,0.032-0.207,0.032-0.302
				c0-0.088-0.013-0.17-0.04-0.248c-0.028-0.078-0.069-0.146-0.123-0.204s-0.123-0.104-0.205-0.137
				c-0.081-0.033-0.178-0.051-0.289-0.051c-0.156,0-0.295,0.021-0.415,0.061c-0.12,0.04-0.226,0.084-0.317,0.133
				c-0.091,0.049-0.166,0.094-0.228,0.135c-0.061,0.042-0.108,0.062-0.144,0.062c-0.022,0-0.044-0.008-0.061-0.023
				c-0.018-0.017-0.031-0.042-0.042-0.079c-0.011-0.038-0.02-0.087-0.026-0.149c-0.007-0.062-0.01-0.139-0.01-0.228
				c0-0.062,0.002-0.112,0.006-0.152c0.004-0.042,0.01-0.077,0.019-0.108c0.008-0.03,0.018-0.057,0.031-0.078
				c0.013-0.023,0.037-0.05,0.069-0.082c0.033-0.032,0.095-0.071,0.183-0.12c0.089-0.05,0.198-0.098,0.328-0.144
				c0.129-0.047,0.271-0.086,0.428-0.117s0.319-0.048,0.488-0.048c0.267,0,0.5,0.033,0.7,0.101c0.199,0.068,0.365,0.162,0.498,0.283
				c0.132,0.12,0.23,0.263,0.295,0.427c0.064,0.166,0.099,0.344,0.099,0.535c0,0.165-0.017,0.33-0.048,0.491
				c-0.032,0.162-0.099,0.336-0.199,0.521c-0.101,0.187-0.242,0.395-0.425,0.619c-0.183,0.228-0.425,0.489-0.726,0.788l-0.599,0.615
				h2.022c0.026,0,0.052,0.008,0.074,0.023s0.041,0.041,0.057,0.073c0.017,0.033,0.028,0.077,0.036,0.13
				C202.166,59.391,202.17,59.455,202.17,59.529"/>
			<path clip-path="url(#SVGID_18_)" fill="#FFFFFF" d="M206.446,58.478c0,0.135-0.014,0.237-0.04,0.308
				c-0.029,0.07-0.066,0.105-0.114,0.105h-0.456v0.93c0,0.025-0.008,0.048-0.023,0.068c-0.016,0.02-0.044,0.036-0.084,0.05
				c-0.039,0.013-0.091,0.022-0.154,0.03c-0.064,0.005-0.146,0.009-0.246,0.009c-0.096,0-0.176-0.004-0.239-0.009
				c-0.066-0.008-0.117-0.018-0.156-0.03c-0.038-0.014-0.064-0.03-0.079-0.05c-0.015-0.021-0.021-0.043-0.021-0.068v-0.93h-1.964
				c-0.038,0-0.071-0.005-0.101-0.014c-0.028-0.01-0.053-0.031-0.073-0.064c-0.02-0.033-0.034-0.08-0.043-0.143
				c-0.011-0.062-0.014-0.145-0.014-0.247c0-0.085,0.001-0.158,0.005-0.221c0.005-0.062,0.011-0.118,0.021-0.169
				c0.009-0.05,0.022-0.097,0.04-0.143c0.018-0.045,0.038-0.093,0.064-0.143l1.596-2.813c0.014-0.023,0.036-0.045,0.067-0.062
				c0.031-0.018,0.075-0.03,0.133-0.043c0.057-0.013,0.129-0.021,0.217-0.026c0.086-0.005,0.192-0.007,0.317-0.007
				c0.134,0,0.25,0.003,0.345,0.01c0.096,0.006,0.171,0.017,0.228,0.031c0.058,0.015,0.099,0.032,0.126,0.053
				c0.026,0.022,0.039,0.047,0.039,0.077v3.09h0.456c0.042,0,0.078,0.032,0.11,0.097C206.431,58.221,206.446,58.327,206.446,58.478
				 M204.833,55.697h-0.008l-1.354,2.36h1.361V55.697z"/>
			<path clip-path="url(#SVGID_18_)" fill="#FFFFFF" d="M207.613,60.981c-0.013,0.034-0.03,0.062-0.051,0.083
				c-0.021,0.021-0.052,0.039-0.09,0.053c-0.038,0.013-0.086,0.021-0.144,0.028c-0.057,0.007-0.129,0.011-0.216,0.011
				c-0.109,0-0.197-0.006-0.266-0.016c-0.068-0.011-0.121-0.026-0.156-0.048c-0.036-0.021-0.057-0.048-0.062-0.082
				c-0.006-0.032,0-0.071,0.016-0.117l2.372-6.661c0.011-0.033,0.027-0.062,0.048-0.085c0.021-0.023,0.05-0.04,0.088-0.054
				c0.036-0.013,0.085-0.023,0.145-0.03c0.059-0.006,0.131-0.01,0.216-0.01c0.111,0,0.2,0.006,0.268,0.017s0.118,0.026,0.153,0.047
				c0.034,0.021,0.054,0.049,0.06,0.082c0.005,0.033,0.001,0.072-0.013,0.117L207.613,60.981z"/>
			<path clip-path="url(#SVGID_18_)" fill="#FFFFFF" d="M213.895,55.26c0,0.077-0.003,0.145-0.008,0.201
				c-0.006,0.057-0.014,0.109-0.022,0.159c-0.01,0.048-0.021,0.095-0.038,0.138c-0.016,0.044-0.034,0.091-0.056,0.141l-1.689,3.917
				c-0.016,0.033-0.036,0.062-0.062,0.083c-0.026,0.021-0.061,0.038-0.105,0.049c-0.045,0.014-0.102,0.021-0.172,0.023
				c-0.071,0.006-0.157,0.007-0.261,0.007c-0.141,0-0.251-0.005-0.333-0.013c-0.082-0.011-0.143-0.024-0.181-0.045
				c-0.037-0.02-0.058-0.045-0.061-0.076c-0.004-0.029,0.006-0.067,0.026-0.112l1.817-4.007h-2.157
				c-0.057,0-0.099-0.036-0.126-0.108s-0.042-0.188-0.042-0.349c0-0.078,0.005-0.146,0.013-0.204
				c0.008-0.057,0.019-0.104,0.033-0.141s0.031-0.063,0.052-0.079c0.02-0.016,0.043-0.023,0.07-0.023h3.051
				c0.047,0,0.087,0.004,0.119,0.014c0.03,0.01,0.057,0.029,0.074,0.062c0.02,0.031,0.032,0.077,0.042,0.135
				C213.889,55.088,213.895,55.166,213.895,55.26"/>
		</g>
		<g>
			<defs>
				<rect id="SVGID_19_" x="237.465" y="55.342" width="49.761" height="49.761"/>
			</defs>
			<clipPath id="SVGID_20_">
				<use xlink:href="#SVGID_19_"  overflow="visible"/>
			</clipPath>
			<path clip-path="url(#SVGID_20_)" fill="#FB518C" d="M287.226,80.222c0,13.741-11.14,24.881-24.88,24.881
				c-13.742,0-24.881-11.14-24.881-24.881s11.139-24.88,24.881-24.88C276.086,55.342,287.226,66.48,287.226,80.222"/>
			<g clip-path="url(#SVGID_20_)">
				<rect x="254.742" y="68.051" fill="#FFFFFF" width="22.134" height="16.309"/>
				<path fill="#FFFFFF" d="M252.011,85.525c-1.373,0-2.487,1.113-2.487,2.488c0,1.373,1.114,2.487,2.487,2.487
					c1.374,0,2.488-1.114,2.488-2.487C254.499,86.639,253.385,85.525,252.011,85.525 M252.011,88.843
					c-0.457,0-0.829-0.372-0.829-0.829c0-0.458,0.372-0.83,0.829-0.83c0.458,0,0.83,0.372,0.83,0.83
					C252.841,88.471,252.469,88.843,252.011,88.843"/>
				<path fill="#FFFFFF" d="M274.058,85.525c-1.374,0-2.487,1.113-2.487,2.488c0,1.373,1.113,2.487,2.487,2.487
					c1.375,0,2.488-1.114,2.488-2.487C276.546,86.639,275.433,85.525,274.058,85.525 M274.058,88.843
					c-0.458,0-0.829-0.372-0.829-0.829c0-0.458,0.371-0.83,0.829-0.83c0.459,0,0.829,0.372,0.829,0.83
					C274.887,88.471,274.517,88.843,274.058,88.843"/>
				<rect x="255.908" y="85.137" fill="#FFFFFF" width="15.144" height="0.776"/>
				<path fill="#FFFFFF" d="M247.753,72.711l-2.33,4.66v9.318h2.955c0.806-1.392,2.311-2.33,4.035-2.33
					c0.331,0,0.652,0.035,0.965,0.102l0.2-0.102V72.711H247.753z M252.413,78.536h-5.824l2.33-4.66h3.494V78.536z"/>
			</g>
		</g>
		<g>
			<defs>
				<rect id="SVGID_21_" x="133.251" y="126.238" width="26.2" height="26.201"/>
			</defs>
			<clipPath id="SVGID_22_">
				<use xlink:href="#SVGID_21_"  overflow="visible"/>
			</clipPath>
			<path clip-path="url(#SVGID_22_)" fill="#98D925" d="M159.451,139.339c0,7.235-5.864,13.101-13.1,13.101
				s-13.101-5.865-13.101-13.101s5.865-13.101,13.101-13.101S159.451,132.104,159.451,139.339"/>
			<path clip-path="url(#SVGID_22_)" fill="#FFFFFF" d="M152.153,133.207c-0.01-0.013-0.021-0.024-0.03-0.037
				c-0.115-0.126-0.293-0.208-0.491-0.208h-13.443c-0.199,0-0.376,0.082-0.491,0.208c-0.011,0.013-0.021,0.024-0.03,0.037
				c-0.066,0.085-0.104,0.188-0.104,0.298v0.048v9.166v0.018c0,0.108,0.038,0.21,0.104,0.295c0.01,0.014,0.02,0.025,0.03,0.037
				c0.115,0.125,0.292,0.207,0.491,0.207h13.443c0.198,0,0.376-0.082,0.491-0.207c0.01-0.012,0.021-0.023,0.03-0.037
				c0.065-0.085,0.104-0.187,0.104-0.295v-0.018v-9.166v-0.048C152.257,133.395,152.219,133.292,152.153,133.207 M151.092,142.075
				c0,0.083-0.028,0.162-0.081,0.23c-0.006,0.011-0.015,0.02-0.022,0.028c-0.082,0.09-0.203,0.145-0.322,0.145h-9.194h-2.317
				c-0.119,0-0.24-0.055-0.322-0.145c-0.008-0.009-0.016-0.019-0.023-0.027c-0.052-0.069-0.08-0.148-0.08-0.231v-7.862
				c0-0.082,0.028-0.162,0.08-0.23c0.008-0.01,0.016-0.019,0.023-0.027c0.082-0.09,0.203-0.145,0.322-0.145h9.186h2.326
				c0.119,0,0.24,0.055,0.322,0.145c0.008,0.009,0.017,0.018,0.022,0.027c0.053,0.068,0.081,0.148,0.081,0.23V142.075z"/>
			<path clip-path="url(#SVGID_22_)" fill="#FFFFFF" d="M153.716,144.02h-16.932c-0.179,0-0.326,0.154-0.326,0.342v0.342
				c0,0.188,0.147,0.342,0.326,0.342h16.932c0.18,0,0.326-0.154,0.326-0.342v-0.342C154.042,144.174,153.896,144.02,153.716,144.02
				 M141.319,144.741c-0.126,0-0.228-0.103-0.228-0.229s0.102-0.228,0.228-0.228s0.228,0.102,0.228,0.228
				S141.445,144.741,141.319,144.741 M141.966,144.741c-0.127,0-0.228-0.103-0.228-0.229s0.101-0.228,0.228-0.228
				c0.125,0,0.228,0.102,0.228,0.228S142.091,144.741,141.966,144.741 M150.244,144.816h-5.734v-0.342h5.734V144.816z"/>
		</g>
		<g>
			<defs>
				<rect id="SVGID_23_" x="230.945" y="111.15" width="68.323" height="68.322"/>
			</defs>
			<clipPath id="SVGID_24_">
				<use xlink:href="#SVGID_23_"  overflow="visible"/>
			</clipPath>
			<path clip-path="url(#SVGID_24_)" fill="#FC7803" d="M299.268,145.311c0,18.867-15.294,34.161-34.161,34.161
				c-18.866,0-34.161-15.294-34.161-34.161s15.295-34.16,34.161-34.16C283.974,111.15,299.268,126.443,299.268,145.311"/>
			<path clip-path="url(#SVGID_24_)" fill="#FFFFFF" d="M286.005,162.139c0.213,0.204,0.146,0.369-0.148,0.369h-42.771
				c-0.295,0-0.36-0.165-0.147-0.369L264.084,142c0.213-0.203,0.562-0.203,0.775,0L286.005,162.139z"/>
			<path clip-path="url(#SVGID_24_)" fill="#FC7803" d="M284.956,162.986h-40.97c-0.798,0-1.064-0.37-1.153-0.592
				c-0.088-0.221-0.15-0.673,0.427-1.223l19.843-18.897c0.731-0.697,2.006-0.697,2.737,0l19.843,18.897
				c0.577,0.55,0.514,1.002,0.427,1.223C286.021,162.616,285.753,162.986,284.956,162.986 M243.785,162.014
				c0.05,0.009,0.115,0.017,0.201,0.017h40.97c0.086,0,0.151-0.008,0.2-0.017c-0.029-0.039-0.072-0.09-0.134-0.149l-19.842-18.897
				c-0.374-0.355-1.045-0.355-1.419,0l-19.842,18.897C243.857,161.924,243.814,161.975,243.785,162.014"/>
			<path clip-path="url(#SVGID_24_)" fill="#FFFFFF" d="M243.008,162.229c-0.252,0.153-0.457,0.038-0.457-0.257v-29.086
				c0-0.294,0.205-0.409,0.457-0.256l23.747,14.521c0.251,0.153,0.251,0.404,0,0.559L243.008,162.229z"/>
			<path clip-path="url(#SVGID_24_)" fill="#FC7803" d="M243.212,162.42c-0.566,0-1.141-0.416-1.141-1.347v-27.286
				c0-0.931,0.574-1.348,1.141-1.348c0.265,0,0.539,0.085,0.812,0.254l22.213,13.581c0.467,0.284,0.733,0.705,0.733,1.155
				s-0.267,0.873-0.733,1.156l-22.213,13.582C243.751,162.335,243.477,162.42,243.212,162.42 M243.212,133.396
				c-0.165,0-0.183,0.273-0.183,0.391v27.286c0,0.118,0.018,0.391,0.183,0.391c0.049,0,0.154-0.015,0.313-0.112l22.213-13.58
				c0.173-0.106,0.274-0.233,0.274-0.342c0-0.107-0.102-0.233-0.274-0.34l-22.213-13.581
				C243.366,133.411,243.261,133.396,243.212,133.396"/>
			<path clip-path="url(#SVGID_24_)" fill="#FFFFFF" d="M285.935,132.717c0.251-0.153,0.457-0.038,0.457,0.256v29.086
				c0,0.295-0.206,0.41-0.457,0.256l-23.746-14.52c-0.252-0.152-0.252-0.404,0-0.559L285.935,132.717z"/>
			<path clip-path="url(#SVGID_24_)" fill="#FC7803" d="M285.729,162.507c-0.264,0-0.537-0.085-0.811-0.253l-22.212-13.58
				c-0.468-0.286-0.734-0.707-0.734-1.158c0-0.449,0.267-0.871,0.734-1.156l22.212-13.581c0.273-0.167,0.547-0.253,0.811-0.253
				c0.568,0,1.141,0.418,1.141,1.348v27.286C286.869,162.09,286.297,162.507,285.729,162.507 M285.729,133.482
				c-0.048,0-0.151,0.015-0.312,0.113l-22.212,13.579c-0.173,0.106-0.277,0.234-0.277,0.341c0,0.107,0.104,0.234,0.277,0.342
				l22.212,13.581c0.16,0.098,0.264,0.111,0.312,0.111c0.167,0,0.185-0.272,0.185-0.391v-27.286
				C285.913,133.755,285.896,133.482,285.729,133.482"/>
			<path clip-path="url(#SVGID_24_)" fill="#FFFFFF" d="M242.938,132.721c-0.213-0.203-0.147-0.369,0.147-0.369h42.771
				c0.295,0,0.361,0.166,0.148,0.369l-21.146,20.14c-0.214,0.202-0.562,0.202-0.775,0L242.938,132.721z"/>
			<path clip-path="url(#SVGID_24_)" fill="#FC7803" d="M264.472,153.127c-0.518,0-1.004-0.192-1.369-0.541l-19.843-18.897
				c-0.577-0.55-0.515-1.002-0.427-1.225c0.089-0.22,0.355-0.59,1.153-0.59h40.97c0.797,0,1.064,0.37,1.153,0.59
				c0.087,0.223,0.15,0.675-0.427,1.225l-19.843,18.897C265.475,152.935,264.989,153.127,264.472,153.127 M243.785,132.846
				c0.029,0.04,0.072,0.091,0.135,0.15l19.842,18.897c0.374,0.356,1.045,0.356,1.419,0l19.842-18.897
				c0.062-0.06,0.104-0.11,0.134-0.15c-0.049-0.009-0.114-0.016-0.2-0.016h-40.97C243.9,132.83,243.835,132.837,243.785,132.846"/>
		</g>
		<g>
			<defs>
				<rect id="SVGID_25_" x="135.883" y="58.403" width="26.202" height="26.2"/>
			</defs>
			<clipPath id="SVGID_26_">
				<use xlink:href="#SVGID_25_"  overflow="visible"/>
			</clipPath>
			<path clip-path="url(#SVGID_26_)" fill="#12AEF2" d="M162.084,71.503c0,7.235-5.865,13.101-13.1,13.101
				c-7.236,0-13.102-5.865-13.102-13.101s5.865-13.1,13.102-13.1C156.219,58.403,162.084,64.268,162.084,71.503"/>
			<path clip-path="url(#SVGID_26_)" fill="#FFFFFF" d="M156.658,69.24h-5.469l-0.92-5.344c-0.021-0.127-0.127-0.227-0.255-0.241
				c-0.028-0.004-0.056-0.003-0.085,0.002l-0.604,0.104c-0.077,0.013-0.145,0.056-0.189,0.12s-0.063,0.142-0.05,0.219l0.885,5.14
				h-2.769l0.646-5.19c0.01-0.077-0.012-0.154-0.061-0.216c-0.047-0.062-0.116-0.103-0.194-0.111l-0.608-0.076
				c-0.028-0.003-0.058-0.003-0.085,0.002c-0.127,0.021-0.228,0.125-0.243,0.254l-0.663,5.338h-4.907
				c-0.211,0-0.382,0.177-0.382,0.395v1.053c0,0.217,0.171,0.394,0.382,0.394h0.578l1.515,6.905h11.535l1.577-6.905h0.366
				c0.21,0,0.383-0.177,0.383-0.394v-1.053C157.041,69.417,156.868,69.24,156.658,69.24 M144.55,76.546
				c0,0.117-0.122,0.212-0.273,0.212h-0.438c-0.15,0-0.274-0.095-0.274-0.212V74.46h0.985V76.546z M144.55,73.752h-0.985v-1.378
				c0-0.117,0.124-0.212,0.274-0.212h0.438c0.151,0,0.273,0.095,0.273,0.212V73.752z M146.521,76.546
				c0,0.117-0.122,0.212-0.273,0.212h-0.438c-0.151,0-0.273-0.095-0.273-0.212V74.46h0.985V76.546z M146.521,73.752h-0.985v-1.378
				c0-0.117,0.122-0.212,0.273-0.212h0.438c0.151,0,0.273,0.095,0.273,0.212V73.752z M148.49,76.546
				c0,0.117-0.123,0.212-0.274,0.212h-0.437c-0.151,0-0.273-0.095-0.273-0.212V74.46h0.984V76.546z M148.49,73.752h-0.984v-1.378
				c0-0.117,0.122-0.212,0.273-0.212h0.437c0.151,0,0.274,0.095,0.274,0.212V73.752z M150.46,76.546
				c0,0.117-0.122,0.212-0.273,0.212h-0.438c-0.15,0-0.273-0.095-0.273-0.212V74.46h0.985V76.546z M150.46,73.752h-0.985v-1.378
				c0-0.117,0.123-0.212,0.273-0.212h0.438c0.151,0,0.273,0.095,0.273,0.212V73.752z M152.431,76.546
				c0,0.117-0.123,0.212-0.274,0.212h-0.438c-0.151,0-0.273-0.095-0.273-0.212V74.46h0.985V76.546z M152.431,73.752h-0.985v-1.378
				c0-0.117,0.122-0.212,0.273-0.212h0.438c0.151,0,0.274,0.095,0.274,0.212V73.752z M154.4,76.546c0,0.117-0.123,0.212-0.273,0.212
				h-0.438c-0.15,0-0.273-0.095-0.273-0.212V74.46h0.985V76.546z M154.4,73.752h-0.985v-1.378c0-0.117,0.123-0.212,0.273-0.212
				h0.438c0.15,0,0.273,0.095,0.273,0.212V73.752z"/>
		</g>
		<g>
			<defs>
				<rect id="SVGID_27_" x="165.435" y="117.892" width="26.201" height="26.2"/>
			</defs>
			<clipPath id="SVGID_28_">
				<use xlink:href="#SVGID_27_"  overflow="visible"/>
			</clipPath>
			<path clip-path="url(#SVGID_28_)" fill="#3DCABF" d="M191.636,130.991c0,7.235-5.865,13.101-13.101,13.101
				s-13.1-5.865-13.1-13.101s5.864-13.1,13.1-13.1S191.636,123.756,191.636,130.991"/>
			<polygon clip-path="url(#SVGID_28_)" fill="#FFFFFF" points="177.714,128.35 179.311,131.583 182.878,132.102 180.296,134.619 
				180.906,138.173 177.714,136.494 174.523,138.173 175.132,134.619 172.55,132.102 176.118,131.583 			"/>
			<polygon clip-path="url(#SVGID_28_)" fill="#FFFFFF" points="173.041,124.066 173.847,125.701 175.651,125.963 174.346,127.235 
				174.654,129.032 173.041,128.184 171.427,129.032 171.734,127.235 170.429,125.963 172.233,125.701 			"/>
			<polygon clip-path="url(#SVGID_28_)" fill="#FFFFFF" points="182.753,123.957 183.561,125.592 185.364,125.854 184.06,127.127 
				184.367,128.924 182.753,128.075 181.14,128.924 181.448,127.127 180.143,125.854 181.947,125.592 			"/>
		</g>
		<g>
			<defs>
				<rect id="SVGID_29_" x="72.661" y="172.273" width="26.201" height="26.2"/>
			</defs>
			<clipPath id="SVGID_30_">
				<use xlink:href="#SVGID_29_"  overflow="visible"/>
			</clipPath>
			<path clip-path="url(#SVGID_30_)" fill="#FDBF12" d="M98.862,185.373c0,7.235-5.865,13.1-13.101,13.1s-13.101-5.864-13.101-13.1
				s5.865-13.101,13.101-13.101S98.862,178.138,98.862,185.373"/>
			<path clip-path="url(#SVGID_30_)" fill="#FFFFFF" d="M85.408,181.329c-0.095-0.026-2.326-0.643-3.645-1.461
				c-0.658-0.409-1.333-0.921-1.354-1.624c-0.015-0.502,0.308-0.975,0.982-1.45c0.644-0.454,1.247-0.596,1.791-0.422
				c1.161,0.37,1.748,2.019,2.368,3.765c0.055,0.152,0.109,0.305,0.163,0.456l-0.139,0.05c0.012,0.004,0.019,0.006,0.02,0.006
				L85.408,181.329z M82.717,177.006c-0.27,0-0.572,0.121-0.92,0.364c-0.315,0.223-0.69,0.552-0.681,0.854
				c0.008,0.281,0.34,0.623,1.019,1.044c0.803,0.498,2.021,0.931,2.775,1.173c-0.008-0.022-0.016-0.046-0.023-0.068
				c-0.536-1.507-1.09-3.066-1.918-3.329C82.889,177.019,82.804,177.006,82.717,177.006"/>
			<path clip-path="url(#SVGID_30_)" fill="#FFFFFF" d="M85.275,181.329l-0.188-0.681c0.002,0,0.008-0.002,0.02-0.006l-0.139-0.05
				c0.054-0.151,0.108-0.304,0.163-0.456c0.62-1.746,1.207-3.395,2.368-3.765c0.545-0.174,1.147-0.032,1.791,0.422
				c0.675,0.476,0.997,0.948,0.982,1.45c-0.021,0.703-0.696,1.215-1.354,1.624C87.602,180.687,85.37,181.303,85.275,181.329
				 M87.966,177.006c-0.087,0-0.171,0.013-0.252,0.038c-0.827,0.263-1.382,1.822-1.918,3.329c-0.008,0.022-0.016,0.046-0.023,0.068
				c0.755-0.242,1.973-0.675,2.775-1.173c0.678-0.421,1.011-0.763,1.02-1.044c0.009-0.303-0.366-0.632-0.682-0.854
				C88.538,177.127,88.235,177.006,87.966,177.006"/>
			<path clip-path="url(#SVGID_30_)" fill="#FFFFFF" d="M79.617,192.523h11.67v-11.67h-11.67V192.523z M91.206,187.665H86.43v4.723
				h-1.954v-4.723h-4.777v-1.954h4.777v-4.723h1.954v4.723h4.776V187.665z"/>
		</g>
		<g>
			<defs>
				<rect id="SVGID_31_" x="109.693" y="13.239" width="76.175" height="76.175"/>
			</defs>
			<clipPath id="SVGID_32_">
				<use xlink:href="#SVGID_31_"  overflow="visible"/>
			</clipPath>
		</g>
		<g>
			<defs>
				<rect id="SVGID_33_" x="59.893" y="81.396" width="76.175" height="76.175"/>
			</defs>
			<clipPath id="SVGID_34_">
				<use xlink:href="#SVGID_33_"  overflow="visible"/>
			</clipPath>
			<path clip-path="url(#SVGID_34_)" fill="#98D925" d="M136.067,119.484c0,21.035-17.053,38.087-38.087,38.087
				c-21.035,0-38.088-17.052-38.088-38.087S76.945,81.396,97.98,81.396C119.015,81.396,136.067,98.449,136.067,119.484"/>
			<path clip-path="url(#SVGID_34_)" fill="#FFFFFF" d="M120.356,109.399c0.163-5.442-2.379-10.847-7.227-14.115
				c-7.513-5.065-17.71-3.08-22.775,4.434c-1.995,2.958-2.892,6.332-2.792,9.646c-0.132,4.365,1.483,8.706,4.63,11.939
				c-0.132,0.254-0.118,0.474,0.06,0.72c-0.07,0.141-0.094,0.277-0.072,0.396c-0.439-0.153-1.21,0.235-1.793,0.93
				c-4.103,4.866-8.044,9.724-12.069,14.537c-0.629,0.749-1.062,1.797-0.962,2.329c0.001,0,0.371,1.961,2.142,3.222
				c1.729,1.315,3.71,1.088,3.71,1.088c0.539-0.061,1.41-0.788,1.94-1.607c3.401-5.272,6.871-10.479,10.299-15.839
				c0.489-0.758,0.633-1.603,0.365-1.981c0.156-0.023,0.331-0.135,0.46-0.312l0.074-0.101c0.134,0.003,0.249-0.029,0.354-0.103
				c7.252,3.589,16.217,1.355,20.865-5.54C119.558,116.086,120.454,112.712,120.356,109.399 M116.241,117.169
				c-4.573,6.784-13.779,8.575-20.562,4.002c-4.1-2.762-6.372-7.218-6.522-11.807c0.09-2.688,0.908-5.38,2.521-7.772
				c4.572-6.784,13.777-8.575,20.561-4.004c4.1,2.764,6.373,7.22,6.523,11.812C118.672,112.084,117.854,114.777,116.241,117.169"/>
		</g>
		<g>
			<defs>
				<rect id="SVGID_35_" x="83.899" y="241.779" width="168.564" height="7.933"/>
			</defs>
			<clipPath id="SVGID_36_">
				<use xlink:href="#SVGID_35_"  overflow="visible"/>
			</clipPath>
			<g clip-path="url(#SVGID_36_)">
				<defs>
					<path id="SVGID_37_" d="M252.464,245.746c0,2.19-37.733,3.966-84.282,3.966c-46.548,0-84.282-1.775-84.282-3.966
						s37.734-3.967,84.282-3.967C214.73,241.779,252.464,243.556,252.464,245.746"/>
				</defs>
				<clipPath id="SVGID_38_">
					<use xlink:href="#SVGID_37_"  overflow="visible"/>
				</clipPath>
				
					<radialGradient id="SVGID_39_" cx="-305.6489" cy="1514.042" r="0.1785" gradientTransform="matrix(472.2159 0 0 -22.2244 144499.7656 33894.4492)" gradientUnits="userSpaceOnUse">
					<stop  offset="0" style="stop-color:#000000"/>
					<stop  offset="0.3251" style="stop-color:#1C1C1C"/>
					<stop  offset="1" style="stop-color:#FFFFFF"/>
				</radialGradient>
				<rect x="83.899" y="241.779" clip-path="url(#SVGID_38_)" fill="url(#SVGID_39_)" width="168.564" height="7.933"/>
			</g>
		</g>
		<path fill="#DDB089" d="M276.08,287.497c-0.007-0.012-0.015-0.023-0.021-0.037C276.065,287.474,276.072,287.484,276.08,287.497"/>
		<path fill="#DDB089" d="M276.059,287.46c-0.021-0.036-0.042-0.073-0.063-0.108C276.017,287.388,276.038,287.425,276.059,287.46"/>
		<path fill="#DDB089" d="M275.595,286.658c-0.02-0.033-0.039-0.066-0.058-0.098C275.557,286.593,275.575,286.625,275.595,286.658"
			/>
		<path fill="#DDB089" d="M276.128,287.58c-0.005-0.008-0.009-0.016-0.014-0.023C276.119,287.564,276.123,287.572,276.128,287.58"/>
		<path fill="#DDB089" d="M275.995,287.352c-0.034-0.06-0.069-0.121-0.105-0.183C275.924,287.229,275.959,287.289,275.995,287.352"
			/>
		<path fill="#DDB089" d="M275.739,286.908c-0.038-0.065-0.075-0.129-0.11-0.189C275.666,286.781,275.703,286.845,275.739,286.908"
			/>
		<path fill="#DDB089" d="M275.629,286.719c-0.011-0.021-0.023-0.041-0.034-0.061C275.605,286.678,275.618,286.698,275.629,286.719"
			/>
		<path fill="#DDB089" d="M276.168,287.649c-0.014-0.023-0.026-0.046-0.04-0.069C276.142,287.604,276.155,287.627,276.168,287.649"
			/>
		<path fill="#DDB089" d="M275.844,287.09c-0.034-0.061-0.068-0.121-0.104-0.182C275.772,286.967,275.808,287.027,275.844,287.09"/>
		<path fill="#DDB089" d="M275.89,287.169c-0.016-0.027-0.03-0.054-0.046-0.079C275.859,287.116,275.874,287.143,275.89,287.169"/>
		<path fill="#DDB089" d="M276.114,287.557c-0.012-0.021-0.023-0.04-0.034-0.06C276.091,287.518,276.104,287.537,276.114,287.557"/>
		<path fill="#DDB089" d="M276.504,288.23c-0.007-0.013-0.015-0.025-0.021-0.038C276.492,288.21,276.5,288.223,276.504,288.23"/>
		<path fill="#DDB089" d="M276.482,288.192c-0.008-0.013-0.017-0.029-0.027-0.048C276.464,288.16,276.473,288.177,276.482,288.192"
			/>
		<path fill="#DDB089" d="M276.455,288.145c-0.013-0.021-0.025-0.042-0.037-0.062C276.432,288.105,276.443,288.127,276.455,288.145"
			/>
		<polyline fill="#DDB089" points="276.509,288.238 276.504,288.23 276.509,288.238 		"/>
		<path fill="#DDB089" d="M276.288,287.856c-0.037-0.063-0.077-0.133-0.12-0.207C276.206,287.717,276.247,287.785,276.288,287.856"
			/>
		<path fill="#DDB089" d="M276.418,288.082c-0.004-0.006-0.006-0.011-0.009-0.016C276.412,288.07,276.414,288.076,276.418,288.082"
			/>
		<path fill="#DDB089" d="M276.315,287.904c-0.009-0.016-0.019-0.031-0.027-0.048C276.297,287.873,276.307,287.889,276.315,287.904"
			/>
		<path fill="#DDB089" d="M276.36,287.981c-0.015-0.024-0.029-0.05-0.045-0.077C276.33,287.93,276.346,287.955,276.36,287.981"/>
		<path fill="#DDB089" d="M274.845,285.362c-0.006-0.01-0.012-0.019-0.016-0.027C274.833,285.344,274.839,285.353,274.845,285.362"
			/>
		<path fill="#DDB089" d="M274.865,285.398c-0.007-0.013-0.015-0.024-0.021-0.036C274.851,285.373,274.858,285.386,274.865,285.398"
			/>
		<path fill="#DDB089" d="M274.906,285.469c-0.016-0.025-0.028-0.049-0.041-0.07C274.878,285.42,274.891,285.443,274.906,285.469"/>
		<path fill="#DDB089" d="M274.957,285.557c-0.019-0.031-0.035-0.061-0.051-0.088C274.922,285.496,274.938,285.525,274.957,285.557"
			/>
		<path fill="#DDB089" d="M275.015,285.656c-0.02-0.034-0.039-0.068-0.058-0.1C274.975,285.587,274.994,285.621,275.015,285.656"/>
		<path fill="#DDB089" d="M275.023,285.673c-0.002-0.005-0.006-0.011-0.009-0.017C275.018,285.662,275.021,285.668,275.023,285.673"
			/>
		<line fill="#DDB089" x1="274.763" y1="285.222" x2="274.763" y2="285.222"/>
		<polyline fill="#DDB089" points="274.765,285.225 274.763,285.222 274.765,285.225 		"/>
		<path fill="#DDB089" d="M275.101,285.805c-0.026-0.046-0.053-0.09-0.077-0.132C275.048,285.713,275.073,285.758,275.101,285.805"
			/>
		<path fill="#DDB089" d="M274.805,285.293c-0.021-0.035-0.034-0.06-0.04-0.068C274.771,285.233,274.783,285.256,274.805,285.293"/>
		<path fill="#DDB089" d="M274.829,285.335c-0.009-0.016-0.018-0.029-0.024-0.042C274.812,285.306,274.82,285.32,274.829,285.335"/>
		<path fill="#DDB089" d="M275.268,286.094c-0.02-0.035-0.04-0.07-0.061-0.104C275.228,286.023,275.248,286.06,275.268,286.094"/>
		<path fill="#DDB089" d="M275.337,286.214c-0.005-0.009-0.01-0.017-0.015-0.024C275.327,286.197,275.332,286.205,275.337,286.214"
			/>
		<path fill="#DDB089" d="M275.322,286.189c-0.019-0.033-0.036-0.064-0.055-0.096C275.286,286.125,275.304,286.156,275.322,286.189"
			/>
		<path fill="#DDB089" d="M275.109,285.82c-0.003-0.006-0.007-0.011-0.009-0.016C275.103,285.81,275.106,285.814,275.109,285.82"/>
		<path fill="#DDB089" d="M275.447,286.405c-0.005-0.009-0.011-0.019-0.016-0.028C275.437,286.387,275.442,286.396,275.447,286.405"
			/>
		<path fill="#DDB089" d="M275.432,286.377c-0.032-0.055-0.063-0.109-0.095-0.163C275.367,286.266,275.398,286.32,275.432,286.377"
			/>
		<path fill="#DDB089" d="M275.165,285.915c-0.004-0.006-0.008-0.012-0.011-0.018C275.157,285.903,275.161,285.909,275.165,285.915"
			/>
		<path fill="#DDB089" d="M275.537,286.561c-0.029-0.053-0.06-0.104-0.09-0.155C275.477,286.455,275.507,286.507,275.537,286.561"/>
		<path fill="#DDB089" d="M275.154,285.897c-0.016-0.026-0.03-0.053-0.045-0.077C275.124,285.845,275.139,285.871,275.154,285.897"
			/>
		<path fill="#DDB089" d="M275.207,285.99c-0.014-0.025-0.028-0.051-0.042-0.075C275.178,285.939,275.192,285.965,275.207,285.99"/>
		<path fill="#F2C69F" d="M254.194,251.76c-1.321-3.857-3.361-7.444-4.84-11.239c-0.664-1.707-0.747-3.456-0.812-5.275
			c-0.089-2.515-0.852-4.649-1.156-7.116c-0.717-5.819-6.254-27.844-6.546-28.563c-3.821-9.426-6.993-16.519-12.788-14.688
			c-0.818,0.259-1.367,1.091-1.721,2.205c-2.657-3.173-2.936-5.874-7.143-4.31c-3.683,1.371-2.457,5.618-3.158,6.954
			c-0.866-0.524-3.562-4.695-6.025-4.005c-2.28,0.638-4.537,1.217-5.267,4.586c-0.08,0.367-0.86,6.438-1.268,5.742
			c-0.754-1.293-1.442-2.629-2.15-3.947c-1.895-3.52-3.704-7.095-5.717-10.551c-1.853-3.182-3.958-6.275-5.213-9.753
			c-1.274-3.534-2.479-7.773-4.896-10.723c-1.613-1.968-3.233-2.358-5.44-1.107c-1.949,1.105-1.856,3.515-1.534,5.517
			c0.655,4.084,3.271,7.984,4.682,11.868c1.312,3.614,2.608,7.239,4.073,10.794c1.301,3.156,2.91,6.178,4.226,9.334
			c1.264,3.031,2.274,6.125,3.402,9.206c0.663,1.808,1.372,3.636,1.786,5.521c0.383,1.747-0.064,6.316-2.715,5.931
			c-1.579-0.229-3.414-0.658-4.895-1.245c-1.522-0.603-2.987-1.315-4.482-1.998c-1.452-0.661-2.989-1.278-4.555-1.38
			c-1.736-0.111-3.589,0.533-5.245,0.932c-2.55,0.611-6.717,2.373-5.13,6.047c0.661,1.527,1.871,0.992,3.092,0.928
			c1.589-0.084,3.234,0.213,4.802,0.586c2.311,0.55,4.626,1.305,6.904,2.024c1.061,0.336,2.145,0.672,3.158,1.167
			c0.737,0.358,1.341,0.996,1.989,1.509c1.96,1.546,4.076,3.298,6.331,4.298c2.332,1.036,4.676,2.057,7.02,3.057
			c1.878,0.801,3.823,1.367,5.713,2.121c1.496,2.061,2.958,4.14,4.314,6.271c4.104,6.447,6.571,13.996,9.317,21.081
			c2.338,6.027,4.58,12.088,6.944,18.106c0.389,0.992,1.101,5.712,2.305,5.329c1.845-0.589,4.604-2.027,6.45-2.616
			c10.047-3.199,18.544-8.389,28.591-11.589c-2.271-3.923-4.724-7.74-7.096-11.604C257.685,258.203,255.332,255.076,254.194,251.76"
			/>
		<path fill="#F3DECB" d="M185.742,162.032c0.837,2.064,1.507,3.834-1.948,5.142c-3.291,1.334-4.142-0.27-4.979-2.334
			c-0.836-2.063,0.036-4.365,1.949-5.14C182.677,158.924,184.906,159.969,185.742,162.032"/>
	</g>
	<g>
		<defs>
			<path id="SVGID_40_" d="M180.056,159.97c-1.949,1.105-1.856,3.515-1.534,5.517c0.655,4.084,3.271,7.984,4.682,11.868
				c1.312,3.614,2.608,7.239,4.073,10.795c1.301,3.155,2.91,6.177,4.226,9.333c1.264,3.031,2.275,6.125,3.402,9.206
				c0.663,1.808,1.372,3.636,1.786,5.521c0.383,1.747-0.064,6.316-2.715,5.931c-1.579-0.229-3.413-0.658-4.895-1.245
				c-1.522-0.603-2.987-1.315-4.482-1.998c-1.452-0.661-2.989-1.278-4.555-1.38c-1.736-0.111-3.589,0.533-5.245,0.932
				c-2.55,0.611-6.717,2.373-5.13,6.047c0.661,1.527,1.871,0.993,3.092,0.928c1.589-0.083,3.234,0.213,4.802,0.586
				c2.311,0.55,4.626,1.305,6.904,2.024c1.061,0.336,2.145,0.672,3.158,1.167c0.737,0.358,1.341,0.996,1.989,1.509
				c1.96,1.546,4.076,3.298,6.331,4.298c2.332,1.036,4.676,2.057,7.02,3.057c1.878,0.801,3.822,1.367,5.712,2.121
				c1.497,2.061,2.959,4.14,4.315,6.271c4.104,6.447,6.571,13.995,9.317,21.081c2.338,6.027,4.581,12.088,6.944,18.106
				c0.389,0.992,1.101,5.712,2.305,5.328c1.845-0.588,4.604-2.026,6.45-2.615c10.048-3.199,18.543-8.389,28.591-11.589
				c-2.271-3.923-4.724-7.74-7.096-11.604c-1.819-2.961-4.172-6.088-5.31-9.404c-1.321-3.857-3.361-7.444-4.84-11.239
				c-0.664-1.707-0.747-3.456-0.812-5.275c-0.089-2.516-0.853-4.649-1.156-7.116c-0.717-5.819-6.254-27.844-6.546-28.563
				c-3.82-9.426-6.993-16.519-12.788-14.687c-0.818,0.258-1.367,1.09-1.721,2.204c-2.657-3.173-2.936-5.874-7.143-4.31
				c-3.683,1.371-2.457,5.618-3.158,6.954c-0.866-0.524-3.562-4.695-6.025-4.005c-2.279,0.637-4.537,1.217-5.267,4.586
				c-0.08,0.367-0.86,6.438-1.268,5.742c-0.754-1.293-1.442-2.629-2.15-3.947c-1.894-3.52-3.704-7.095-5.717-10.551
				c-1.853-3.182-3.958-6.275-5.212-9.753c-1.275-3.534-2.479-7.773-4.896-10.723c-0.993-1.213-1.99-1.825-3.124-1.825
				C181.664,159.252,180.904,159.489,180.056,159.97"/>
		</defs>
		<clipPath id="SVGID_41_">
			<use xlink:href="#SVGID_40_"  overflow="visible"/>
		</clipPath>
		<path clip-path="url(#SVGID_41_)" fill="#F3DECB" d="M177.085,220.633c0.111-1.035-1.646-1.846-3.62-1.797
			s-3.554,0.931-3.527,1.972c0.025,1.04,1.646,1.845,3.62,1.796C175.531,222.556,176.777,223.49,177.085,220.633"/>
	</g>
	<g>
		<defs>
			<rect id="SVGID_42_" x="67.682" y="150.527" width="227.814" height="154.658"/>
		</defs>
		<clipPath id="SVGID_43_">
			<use xlink:href="#SVGID_42_"  overflow="visible"/>
		</clipPath>
		<path clip-path="url(#SVGID_43_)" fill="#FDB152" d="M305.336,329.787l-28.919-46.517c0.613-4.438-8.448-15.603-10.225-17.636
			c-1.889-2.161-11.329,7.032-16.378,9.567c-5.049,2.534-16.316,2.224-19.892,4.647c-3.574,2.426-2.99,5.115-1.971,7.63
			c0,0,0.203,6.748,2.411,12.195c1.063,2.623,2.182,3.641,4.82,3.329c7.106,22.33,17.856,50.26,17.856,50.26L305.336,329.787z"/>
	</g>
</g>
</svg>
