<?xml version="1.0" encoding="utf-8"?>
<!-- Generator: Adobe Illustrator 15.0.0, SVG Export Plug-In . SVG Version: 6.00 Build 0)  -->
<!DOCTYPE svg PUBLIC "-//W3C//DTD SVG 1.1//EN" "http://www.w3.org/Graphics/SVG/1.1/DTD/svg11.dtd">
<svg version="1.1" id="Layer_1" xmlns="http://www.w3.org/2000/svg" xmlns:xlink="http://www.w3.org/1999/xlink" x="0px" y="0px"
	 width="49.25px" height="49.25px" viewBox="0 0 49.25 49.25" enable-background="new 0 0 49.25 49.25" xml:space="preserve">
<path fill="#6D6D6D" d="M24.625,0.002C11.025,0.002,0,11.029,0,24.627c0,13.6,11.025,24.623,24.625,24.623
	c13.6,0,24.625-11.023,24.625-24.623C49.25,11.029,38.225,0.002,24.625,0.002z M31.145,24.523H26.88c0,6.814,0,15.208,0,15.208
	h-6.321c0,0,0-8.308,0-15.208h-3.005v-5.369h3.005v-3.479c0-2.49,1.183-6.377,6.378-6.377l4.681,0.018v5.215c0,0-2.847,0-3.397,0
	c-0.555,0-1.34,0.277-1.34,1.461v3.162h4.816L31.145,24.523z"/>
</svg>
