<?xml version="1.0" encoding="utf-8"?>
<!-- Generator: Adobe Illustrator 15.0.0, SVG Export Plug-In . SVG Version: 6.00 Build 0)  -->
<!DOCTYPE svg PUBLIC "-//W3C//DTD SVG 1.1//EN" "http://www.w3.org/Graphics/SVG/1.1/DTD/svg11.dtd">
<svg version="1.1" id="Layer_1" xmlns="http://www.w3.org/2000/svg" xmlns:xlink="http://www.w3.org/1999/xlink" x="0px" y="0px"
	 width="91.5px" height="24.25px" viewBox="0 0 91.5 24.25" enable-background="new 0 0 91.5 24.25" xml:space="preserve">
<g>
	<path fill="#B6B6B6" d="M86.938,15.371l-2.961-0.047c-1.229-0.021-2.209-1.032-2.19-2.26c0.021-1.225,1.032-2.204,2.259-2.186
		l2.965,0.044c1.227,0.021,2.205,1.033,2.187,2.261C89.177,14.41,88.168,15.391,86.938,15.371z"/>
	<path fill="#B6B6B6" d="M78.236,15.232l-5.736-0.09c-1.229-0.02-2.208-1.03-2.188-2.258c0.019-1.228,1.029-2.208,2.257-2.188
		l5.741,0.091c1.225,0.019,2.205,1.029,2.186,2.257C80.476,14.273,79.465,15.253,78.236,15.232z M66.762,15.053l-5.741-0.093
		c-1.225-0.02-2.205-1.03-2.184-2.257c0.015-1.227,1.027-2.207,2.256-2.187l5.736,0.09c1.229,0.02,2.207,1.03,2.187,2.261
		C69,14.093,67.987,15.072,66.762,15.053z M55.283,14.871l-5.739-0.092c-1.226-0.02-2.206-1.028-2.188-2.259
		c0.02-1.227,1.031-2.207,2.26-2.186l5.74,0.086c1.227,0.023,2.205,1.034,2.186,2.261C57.522,13.91,56.511,14.89,55.283,14.871z
		 M43.806,14.689l-5.737-0.092c-1.227-0.021-2.207-1.031-2.188-2.256c0.019-1.227,1.029-2.208,2.261-2.189l5.734,0.091
		c1.229,0.022,2.209,1.031,2.188,2.258C46.044,13.732,45.035,14.71,43.806,14.689z M32.329,14.507l-5.739-0.09
		c-1.227-0.021-2.206-1.031-2.187-2.259c0.021-1.227,1.033-2.206,2.26-2.186l5.736,0.092c1.23,0.017,2.209,1.029,2.19,2.256
		C34.569,13.548,33.559,14.527,32.329,14.507z"/>
	<path fill="#B6B6B6" d="M20.85,14.326l-2.96-0.047c-1.226-0.02-2.206-1.029-2.187-2.259c0.02-1.231,1.031-2.208,2.257-2.186
		l2.962,0.046c1.227,0.018,2.208,1.03,2.188,2.258C23.092,13.367,22.08,14.346,20.85,14.326z"/>
	<g>
		<polygon fill="#B6B6B6" points="21.34,1.088 1.973,11.864 20.99,23.25 		"/>
	</g>
</g>
</svg>
