<?xml version="1.0" encoding="utf-8"?>
<!-- Generator: Adobe Illustrator 15.0.0, SVG Export Plug-In . SVG Version: 6.00 Build 0)  -->
<!DOCTYPE svg PUBLIC "-//W3C//DTD SVG 1.1//EN" "http://www.w3.org/Graphics/SVG/1.1/DTD/svg11.dtd">
<svg version="1.1" id="Layer_1" xmlns="http://www.w3.org/2000/svg" xmlns:xlink="http://www.w3.org/1999/xlink" x="0px" y="0px"
	 width="145px" height="95px" viewBox="0 0 145 95" enable-background="new 0 0 145 95" xml:space="preserve">
<g>
	<g>
		<path fill="#8A8A8A" d="M18.415,16.304c0.012-0.534,0.317-1.037,0.831-1.275c0.59-0.278,1.187-0.546,1.784-0.807
			c0.731-0.322,1.581,0.013,1.898,0.742c0.321,0.732-0.015,1.581-0.744,1.901c-0.575,0.251-1.147,0.51-1.717,0.776
			c-0.721,0.337-1.582,0.026-1.917-0.693C18.454,16.738,18.409,16.517,18.415,16.304z"/>
		<path fill="#8A8A8A" d="M23.724,14.061c0.014-0.571,0.365-1.104,0.931-1.317c1.218-0.459,2.459-0.892,3.699-1.291
			c0.759-0.244,1.571,0.175,1.815,0.933c0.244,0.758-0.177,1.571-0.935,1.814c-1.188,0.383-2.386,0.798-3.559,1.243
			c-0.745,0.281-1.577-0.095-1.859-0.84C23.749,14.423,23.72,14.24,23.724,14.061z M31.04,11.71c0.014-0.624,0.439-1.19,1.072-1.359
			c1.257-0.334,2.541-0.64,3.809-0.909c0.781-0.165,1.545,0.333,1.711,1.113c0.166,0.778-0.334,1.543-1.111,1.709
			c-1.225,0.26-2.457,0.554-3.667,0.876c-0.769,0.205-1.562-0.254-1.765-1.024C31.052,11.98,31.036,11.844,31.04,11.71z
			 M38.556,10.118c0.018-0.683,0.518-1.278,1.216-1.39c1.284-0.203,2.59-0.378,3.882-0.519c0.795-0.083,1.506,0.491,1.592,1.281
			c0.085,0.792-0.488,1.503-1.282,1.588c-1.245,0.135-2.503,0.302-3.736,0.5c-0.786,0.124-1.524-0.413-1.651-1.199
			C38.561,10.292,38.555,10.203,38.556,10.118z M46.198,9.296c0.018-0.743,0.604-1.364,1.361-1.406
			c1.297-0.073,2.615-0.115,3.913-0.123c0.8-0.005,1.446,0.637,1.452,1.434c-0.002,0.812-0.638,1.445-1.434,1.451
			c-1.251,0.008-2.52,0.048-3.77,0.12c-0.795,0.044-1.475-0.564-1.522-1.359C46.198,9.374,46.198,9.336,46.198,9.296z M53.884,9.246
			c0-0.009,0-0.017,0-0.029c0.037-0.796,0.708-1.412,1.502-1.376l0.68,0.032c1.072,0.055,2.159,0.134,3.228,0.232
			c0.794,0.074,1.381,0.774,1.302,1.569c-0.073,0.794-0.776,1.378-1.57,1.303c-1.029-0.096-2.072-0.172-3.107-0.224l-0.656-0.032
			C54.475,10.688,53.866,10.032,53.884,9.246z M61.532,9.96c0.003-0.055,0.007-0.113,0.016-0.173
			c0.11-0.788,0.846-1.334,1.633-1.221c1.29,0.185,2.59,0.404,3.859,0.656c0.783,0.153,1.292,0.909,1.138,1.692
			c-0.151,0.784-0.908,1.293-1.691,1.138c-1.222-0.24-2.476-0.453-3.718-0.632C62.039,11.316,61.517,10.684,61.532,9.96z
			 M69.071,11.438c0.002-0.103,0.018-0.209,0.044-0.317c0.192-0.772,0.974-1.241,1.748-1.05c1.266,0.315,2.534,0.666,3.773,1.043
			c0.763,0.231,1.193,1.036,0.963,1.799c-0.232,0.762-1.037,1.19-1.8,0.959c-1.194-0.36-2.415-0.699-3.633-1.001
			C69.499,12.704,69.056,12.099,69.071,11.438z M76.424,13.67c0.004-0.153,0.033-0.305,0.087-0.455
			c0.271-0.751,1.094-1.139,1.844-0.868c1.228,0.442,2.457,0.921,3.656,1.422c0.736,0.307,1.081,1.152,0.774,1.889
			c-0.308,0.733-1.153,1.08-1.888,0.771c-1.154-0.481-2.339-0.942-3.521-1.37C76.779,14.843,76.411,14.273,76.424,13.67z
			 M83.523,16.642c0.005-0.197,0.05-0.398,0.144-0.59c0.343-0.716,1.202-1.019,1.922-0.676c1.177,0.565,2.351,1.167,3.493,1.788
			c0.697,0.382,0.956,1.256,0.576,1.958c-0.382,0.698-1.259,0.956-1.957,0.575c-1.098-0.596-2.229-1.175-3.36-1.719
			C83.814,17.724,83.511,17.192,83.523,16.642z M90.279,20.32c0.007-0.246,0.075-0.494,0.214-0.719
			c0.415-0.677,1.302-0.892,1.983-0.477c1.109,0.68,2.216,1.398,3.288,2.133c0.659,0.449,0.828,1.346,0.377,2.003
			c-0.451,0.658-1.347,0.825-2.007,0.377c-1.028-0.708-2.096-1.396-3.163-2.051C90.514,21.307,90.269,20.818,90.279,20.32z
			 M96.626,24.661c0.008-0.292,0.104-0.585,0.295-0.84c0.483-0.632,1.388-0.755,2.021-0.271c1.032,0.785,2.061,1.609,3.058,2.45
			c0.608,0.512,0.688,1.423,0.173,2.033c-0.515,0.606-1.423,0.686-2.034,0.171c-0.957-0.808-1.949-1.602-2.943-2.36
			C96.814,25.552,96.616,25.108,96.626,24.661z M102.503,29.619c0.008-0.339,0.135-0.68,0.386-0.947
			c0.546-0.583,1.459-0.616,2.041-0.072c0.951,0.889,1.89,1.814,2.794,2.745c0.553,0.574,0.537,1.487-0.034,2.042
			c-0.576,0.554-1.485,0.537-2.039-0.034c-0.869-0.9-1.775-1.787-2.691-2.645C102.646,30.417,102.493,30.017,102.503,29.619z
			 M107.847,35.142c0.01-0.388,0.177-0.772,0.492-1.052c0.599-0.523,1.512-0.462,2.034,0.137c0.858,0.98,1.702,1.992,2.503,3.01
			c0.494,0.624,0.388,1.532-0.237,2.024c-0.626,0.496-1.532,0.388-2.025-0.235c-0.774-0.98-1.586-1.957-2.41-2.899
			C107.955,35.845,107.839,35.492,107.847,35.142z M112.607,41.173c0.011-0.44,0.22-0.866,0.608-1.142
			c0.648-0.464,1.55-0.31,2.01,0.339c0.751,1.055,1.489,2.15,2.188,3.245c0.428,0.671,0.231,1.564-0.442,1.992
			c-0.671,0.428-1.56,0.231-1.991-0.441c-0.671-1.054-1.381-2.106-2.104-3.125C112.688,41.776,112.601,41.474,112.607,41.173z
			 M116.735,47.649c0.012-0.491,0.272-0.962,0.732-1.222c0.689-0.392,1.57-0.152,1.966,0.541c0.642,1.125,1.263,2.286,1.847,3.448
			c0.357,0.712,0.072,1.58-0.638,1.939c-0.712,0.356-1.581,0.07-1.938-0.642c-0.565-1.117-1.161-2.235-1.778-3.319
			C116.793,48.159,116.729,47.901,116.735,47.649z M120.188,54.505c0.013-0.543,0.33-1.053,0.858-1.286
			c0.729-0.323,1.583,0.007,1.905,0.737c0.523,1.186,1.022,2.404,1.484,3.617c0.286,0.742-0.089,1.577-0.831,1.859
			c-0.745,0.287-1.579-0.088-1.864-0.832c-0.442-1.164-0.924-2.336-1.431-3.479C120.224,54.921,120.184,54.709,120.188,54.505z
			 M122.926,61.673c0.015-0.598,0.397-1.146,0.996-1.34c0.758-0.246,1.57,0.168,1.817,0.928c0.399,1.232,0.771,2.492,1.109,3.748
			c0.209,0.768-0.247,1.559-1.017,1.766c-0.769,0.207-1.562-0.248-1.767-1.017c-0.324-1.208-0.687-2.423-1.07-3.608
			C122.946,61.989,122.922,61.829,122.926,61.673z M124.919,69.083c0.015-0.651,0.475-1.233,1.139-1.375
			c0.779-0.168,1.546,0.326,1.713,1.106c0.272,1.271,0.515,2.565,0.726,3.849c0.128,0.785-0.409,1.527-1.194,1.654
			c-0.787,0.127-1.526-0.406-1.654-1.193c-0.2-1.234-0.435-2.481-0.696-3.705C124.927,69.308,124.917,69.194,124.919,69.083z"/>
		<path fill="#8A8A8A" d="M126.151,76.708c0.018-0.711,0.557-1.318,1.285-1.398c0.792-0.085,1.505,0.485,1.591,1.277
			c0.07,0.648,0.132,1.297,0.189,1.95c0.066,0.8-0.525,1.489-1.32,1.558c-0.792,0.066-1.49-0.523-1.557-1.314
			c-0.05-0.629-0.112-1.256-0.179-1.879C126.152,76.837,126.151,76.772,126.151,76.708z"/>
		<g>
			<polygon fill="#8A8A8A" points="120.461,76.749 127.979,89.008 134.839,76.367 			"/>
		</g>
	</g>
	<circle fill="none" stroke="#8A8A8A" stroke-width="1.7204" stroke-miterlimit="10" cx="13.196" cy="21.078" r="5.107"/>
</g>
</svg>
