<?xml version="1.0" encoding="utf-8"?>
<!-- Generator: Adobe Illustrator 15.0.0, SVG Export Plug-In . SVG Version: 6.00 Build 0)  -->
<!DOCTYPE svg PUBLIC "-//W3C//DTD SVG 1.1//EN" "http://www.w3.org/Graphics/SVG/1.1/DTD/svg11.dtd">
<svg version="1.1" id="Layer_1" xmlns="http://www.w3.org/2000/svg" xmlns:xlink="http://www.w3.org/1999/xlink" x="0px" y="0px"
	 width="504px" height="116.958px" viewBox="0 0 504 116.958" enable-background="new 0 0 504 116.958" xml:space="preserve">
<rect x="3.68" y="91.214" fill-rule="evenodd" clip-rule="evenodd" fill="#B3B3B3" width="486.285" height="3.186"/>
<g>
	<path fill-rule="evenodd" clip-rule="evenodd" fill="#03669D" d="M332.736,16.15c4.715-0.681,10.49,2.314,10.746,8.827
		c0.516,12.93-20.709,13.643-19.191-0.767C324.744,19.901,327.611,16.889,332.736,16.15z"/>
	<path fill-rule="evenodd" clip-rule="evenodd" fill="#03669D" d="M351.162,41.485c-10.814,6.713-20.639,14.421-31.479,21.111
		c-0.508-1.663-0.645-3.702-0.768-5.758c7.16-7.128,19.064-18.287,27.254-25.72c0.658-0.594,4.023-1.546,4.992,0l-0.576,0.192
		l0.191,0.576c-1.381-0.229-2.164,0.139-2.303,1.152l-0.383-0.193l-0.385,0.193c-2.98,2.721,1.277,6.806,3.838,7.678l-0.576,0.191
		L351.162,41.485z"/>
	<path fill-rule="evenodd" clip-rule="evenodd" fill="#03669D" d="M356.343,38.222l0.193-0.575c1.115,1.267-0.066,3.499-0.387,4.607
		c-0.754-0.653-2.373-0.442-3.07-1.152l0.193-0.576l-0.576,0.192c0-0.128,0-0.256,0-0.383l0.576-0.192l-0.193-0.576
		c1.598,0.187,2.359-0.457,2.688-1.537L356.343,38.222z"/>
	<path fill-rule="evenodd" clip-rule="evenodd" fill="#03669D" d="M336.574,37.646c1.557,0.436-0.703,1.467-0.768,1.534
		c-3.602,4.011-9.166,8.692-13.051,12.668c-0.883-0.781-0.139-3.187-0.385-4.605c-4.723,4.416-4.746,11.465-2.688,18.424
		c0.814,2.746,2.521,5.365,1.92,7.296c-0.395,1.27-2.891,2.806-4.99,1.917c-3.262-1.377-5.758-14.088-4.99-20.344
		c0.578-4.694,2.738-9.11,5.373-11.898C320.949,38.457,326.716,36.692,336.574,37.646z"/>
	<path fill-rule="evenodd" clip-rule="evenodd" fill="#03669D" d="M359.992,49.163c0.877,0.656,0.141,2.93,0.383,4.223
		c-3.545,3.342-8.363,5.979-13.438,8.827c-11.344,6.372-23.389,12.959-35.697,19.962c-2.988,1.7-5.074,3.963-7.295,3.838
		c-2.904-0.162-5.559-4.062-4.99-6.909c0.445-2.229,4.432-3.926,6.527-5.374c2.691-1.861,4.91-3.271,6.91-4.991
		c1.686,2.961,1.713,7.06,5.373,7.294c6.215,0.4,4.611-7.775,1.918-11.899c8.473-6.135,21.443-15.056,30.711-21.112
		c0.666-0.436,3.455-1.664,4.605,0l-0.576,0.191l0.193,0.576c-1.205-0.183-1.568,0.479-1.92,1.152l-0.385-0.192l-0.383-0.192
		c-3.176,2.832,0.836,9.352,4.221,8.061l0.578,0.193l0.191-0.577c0.385,0,0.768,0,1.152,0c0.395-0.886,1.32-1.237,1.15-2.688
		l0.576,0.192L359.992,49.163z"/>
	<path fill-rule="evenodd" clip-rule="evenodd" fill="#03669D" d="M349.242,61.829c2.035-1.419,4.266-2.644,6.525-3.839
		c1.291,4.324-1.225,17.505-4.223,18.427c-2.131,0.654-3.898-0.387-4.607-1.919C345.433,71.231,350.404,66.083,349.242,61.829z"/>
	<path fill-rule="evenodd" clip-rule="evenodd" fill="#03669D" d="M310.857,64.133c1.334,0.329,0.57,2.758,1.535,3.454
		c-3.764,2.893-7.469,5.841-11.9,8.063C302.472,70.335,307.625,68.195,310.857,64.133z"/>
	<path fill-rule="evenodd" clip-rule="evenodd" fill="#03669D" d="M335.423,110.196c-0.998-10.212-0.033-21.275-0.385-33.012
		c-0.035-1.182,0.717-3.063-0.768-3.839c-2.633-0.043-1.525,3.59-1.535,4.989c-0.078,9.847,0.533,21.234-0.385,31.861
		c-1.961,2.501-5.693,3.303-8.061,1.535c-4.996-3.729-0.199-27.298-1.92-34.547c7.287-4.484,15.107-8.438,22.266-13.052
		c0.445-0.062,0.684,0.085,0.768,0.384c0,6.592,0,14.662,0,24.568c0,7.355,1.518,20.083-1.922,22.646
		C340.914,113.649,337.373,112.538,335.423,110.196z"/>
	<path fill-rule="evenodd" clip-rule="evenodd" fill="#03669D" d="M350.585,31.312c3.172,0.756,5.236,3.849,5.758,6.91"/>
	<path fill-rule="evenodd" clip-rule="evenodd" fill="#03669D" d="M353.273,40.525c-0.645,0.394-1.572,0.636-2.305,0.384"/>
	<path fill-rule="evenodd" clip-rule="evenodd" fill="#03669D" d="M353.273,40.143c-3.033-0.944-5.846-3.866-5.182-7.296"/>
	<path fill-rule="evenodd" clip-rule="evenodd" fill="#03669D" d="M354.423,43.212c3.098,0.656,4.615,3.82,5.375,6.525"/>
	<path fill-rule="evenodd" clip-rule="evenodd" fill="#03669D" d="M356.728,52.81c-2.91-1.441-5.418-4.606-4.416-8.062"/>
</g>
<g>
	<path fill-rule="evenodd" clip-rule="evenodd" fill="#03669D" d="M277.455,4.867c11.738-1.193,14.036,16.055,9.162,25.285
		c-2.321,0-4.642,0-6.963,0c-6.497-5.709,2.228-13.568,1.466-19.789C280.816,7.891,279.399,6.493,277.455,4.867z"/>
	<path fill-rule="evenodd" clip-rule="evenodd" fill="#03669D" d="M260.597,11.829c1.698,0.867,2.474,2.657,2.199,5.497
		c2.407,1.503,5.082,2.736,4.764,6.963c-4.238,1.954-8.989-0.471-12.825-2.199c-2.697-1.213-6.239-2.545-5.498-5.861
		c2.688-2.082,9.188-1.066,11.727,0.364C261.702,14.713,260.84,13.652,260.597,11.829z"/>
	<path fill-rule="evenodd" clip-rule="evenodd" fill="#03669D" d="M265.727,26.122c1.627,15.189-20.835,13.461-17.955-0.733
		c0.34-1.678,1.635-2.601,2.564-4.397C255.067,23.102,259.692,25.316,265.727,26.122z"/>
	<path fill-rule="evenodd" clip-rule="evenodd" fill="#03669D" d="M280.02,31.619c2.199,0,4.397,0,6.597,0
		c0.649,4.358,1.317,8.697,1.466,13.56c-3.176,0-6.352,0-9.528,0C278.995,40.608,279.477,36.084,280.02,31.619z"/>
	<path fill-rule="evenodd" clip-rule="evenodd" fill="#03669D" d="M245.573,51.041c-0.926,1.151-1.516,2.639-1.832,4.397
		c-1.812-0.763-4.424-1.39-6.598-0.732c1.521-6.788,4.928-11.687,9.896-15.026c6.229,0,12.46,0,18.688,0
		c3.667,4.624,7.072,9.841,12.461,13.193c0.026,2.416-0.172,5.06,0.366,6.964c-4.714-1.272-7.558-4.414-10.994-6.964
		c0,12.42,0,28.351,0,42.144c0,7.294,1.884,16.772-5.497,16.124c-6.38-0.56-4.397-11.412-4.397-20.522c0-4.778,0.13-8.884,0-13.559
		c-0.032-1.176,0.628-3.285-0.732-3.663c-1.922-0.08-1.046,2.323-1.1,3.298c-0.223,4.036,0,8.494,0,13.192
		c0,8.533,2.506,21.678-5.497,21.254c-5.31-0.28-4.764-5.977-4.764-13.559c0-3.774-0.266-7.719,0-10.627
		c0.161-1.769,0.753-3.196,0.732-4.766c-0.028-2.164-1.296-5.353-0.732-7.328c0.803-2.812,4.403-3.379,5.13-6.963
		c1.145-5.644-1.733-9.065-5.13-11.727C245.573,54.461,245.573,52.752,245.573,51.041z"/>
	<path fill-rule="evenodd" clip-rule="evenodd" fill="#03669D" d="M288.083,46.643c-0.412,18.01-1.801,36.85-2.565,54.237
		c-0.139,3.149-0.206,6.41,0.366,9.162c-1.615,0.654-3.192,0.895-4.764,0c0.119-19.267-2-42.397-2.565-63.399
		C281.731,46.643,284.907,46.643,288.083,46.643z"/>
	<path fill-rule="evenodd" clip-rule="evenodd" fill="#03669D" d="M248.87,70.829c-1.44,2.06-3.828,1.679-4.396,4.032
		c-0.631,2.619,2.139,6.322,1.467,9.527c-0.96,4.567-7.344,5.072-10.994,2.566c-7.174-4.925-10.023-26.169-0.733-30.783
		c7.999-3.973,19.758,3.648,15.024,13.559C249.129,69.956,249.055,70.564,248.87,70.829z M239.343,58.37
		c-0.65,3.198,3.18,4.634,5.13,2.932C244.968,58.118,241.217,56.959,239.343,58.37z M232.379,65.699
		c4.01,0.746,5.245-3.856,3.299-5.862C232.321,59.457,230.633,63.242,232.379,65.699z M233.113,76.327
		c2.003-0.596,2.224-6.112-0.366-6.229C229.92,70.609,230.717,75.953,233.113,76.327z M236.411,80.359
		c-3.611-0.121-1.932,5.146,2.199,4.764C240.292,83.088,237.868,80.408,236.411,80.359z"/>
</g>
<g>
	<rect x="168.545" y="79.937" fill-rule="evenodd" clip-rule="evenodd" fill="#FFFFFF" width="42.263" height="28.03"/>
	<rect x="178.331" y="58.735" fill-rule="evenodd" clip-rule="evenodd" fill="#FFFFFF" width="19.175" height="15.889"/>
	<g>
		<path fill-rule="evenodd" clip-rule="evenodd" fill="#03669D" d="M155.629,12.396c14.373-1.741,13.908,20.039,0.393,19.178
			C145.116,30.879,143.645,13.85,155.629,12.396z"/>
		<path fill-rule="evenodd" clip-rule="evenodd" fill="#03669D" d="M168.545,42.532c-0.191,11.288,0.425,23.386-0.393,34.048
			c-8.453-0.814-7.043,6.159-7.043,16.045c0,8.138-0.772,15.25,1.955,18.004c-3.057,0.318-3.688-1.791-5.086-3.132
			c-0.531-10.662,0.703-22.483,0-33.657c-0.066-1.041,0.736-3.393-1.175-3.521c-1.478,0.639-0.753,2.801-0.782,3.914
			c-0.277,9.994,0.207,22.021,0,32.482c-1.014,3.527-6.436,5.425-9.393,2.739c-2.377-2.157-1.566-9.424-1.566-15.263
			c0-16.388,0-36.015,0-50.094c-2.125,0.915-3.523,4.666-3.913,7.827c-0.915,7.4,2.475,16.829,1.174,22.308
			c-7.551,5.109-8.802-13.382-8.219-21.525c0.519-7.238,3.505-12.34,6.262-14.871c3.812-3.499,9.169-3.523,16.829-3.523
			c11.676,0,16.174,1.123,22.307,8.22c2.24,2.591,4.612,6.601,6.262,9.784c1.959,3.779,4.283,9.705-0.391,10.176
			c-4.295,0.431-6.196-7.849-7.828-10.567C174.877,47.477,172.231,44.871,168.545,42.532z"/>
		<path fill-rule="evenodd" clip-rule="evenodd" fill="#03669D" d="M180.677,59.36c1.113,1.81-1.731,1.182-1.957,2.739
			c0.175,3.216-0.402,7.187,0.392,9.784c5.055,0.415,13.588,1.118,18.002-0.392c0.868-2.523,0.164-6.619,0.392-9.784
			c-1.093-2.428-7.112,0.069-8.61-1.956c0.504-2.898,6.671-1.296,9.002-1.174c3.351,2.672,3.678,14.288-0.392,16.046
			c-1.149,0.495-2.608,0.284-3.913,0.391c-0.732,0.061-2.674-0.734-3.131,0.782c-0.465,2.541,3.037,1.496,4.305,1.566
			c5.04,0.276,11.771-0.207,16.828,0c3.697,0.811,2.74,10.083,2.74,15.262c0,5.934,1.316,15.823-2.349,17.612
			c-2.579,1.258-8.024,0.392-12.524,0.392c-10.004,0-14.693,0-25.046,0c-4.673,0-9.509,0.666-11.351-1.175
			c-2.412-2.414-1.174-11.115-1.174-14.088c0-5.819,0-10.256,0-15.264c0.898-0.537,1.259-1.612,1.957-2.349
			c1.176-0.521,2.994-0.396,4.697-0.391c1.107,0.064-0.326-2.413,0.782-2.349c1.305,0,2.608,0,3.913,0
			c1.414-0.37,0.547,1.542,0.783,2.349c1.765-0.068,4.256,0.087,6.653,0c1.947-0.071,5.245,0.907,5.087-1.566
			c-1.574-1.831-4.624-0.141-7.044-1.173c-2.038-0.87-4.185-7.879-2.739-12.916C176.518,59.835,179.237,56.998,180.677,59.36z
			 M202.593,86.756c2.348,0,4.696,0,7.044,0c0-1.565,0-3.131,0-4.696c-2.348,0-4.696,0-7.044,0
			C202.593,83.625,202.593,85.19,202.593,86.756z M177.545,96.539c2.08,10.841,18.062,9.495,20.742,1.175
			c3.023-9.386-4.545-15.48-12.132-14.089C180.433,84.675,176.18,89.414,177.545,96.539z"/>
		<path fill-rule="evenodd" clip-rule="evenodd" fill="#03669D" d="M186.156,87.146c4.115-1.031,7.491,0.726,8.61,3.522
			c5.087,12.711-17.209,14.083-13.697,0.783C181.368,90.32,183.53,87.805,186.156,87.146z"/>
	</g>
</g>
<g>
	<g>
		<path fill-rule="evenodd" clip-rule="evenodd" fill="#03669D" d="M59.782,37.049c-3.051-15.603,16.479-16.699,19.446-6.481
			C82.779,42.791,64.396,48.633,59.782,37.049z"/>
		<path fill-rule="evenodd" clip-rule="evenodd" fill="#03669D" d="M61.511,50.879c-2.469-2.775-1.285-7.142-5.186-7.779
			c-9.065-1.486-3.692,12.725-0.432,15.988c-2.049,5.521-6.118,8.763-6.482,14.262c-0.202,3.066,1.333,6.156,1.728,9.504
			c0.804,6.827,0.378,13.918-0.864,21.178c-0.658,3.848-1.078,7.77-3.024,9.072c-2.989,2.003-8.311,0.273-9.075-3.023
			c-0.781-3.363,1.833-10.146,2.161-15.988c0.327-5.82-0.112-13.01-1.729-17.719c-0.896-2.613-3.129-4.423-3.456-6.482
			c-1.354-8.541,8.903-25.018,14.26-28.521C56.634,36.646,66.553,42.053,61.511,50.879z"/>
		<path fill-rule="evenodd" clip-rule="evenodd" fill="#03669D" d="M80.957,61.681c-1.222-1.915-4.281-1.894-6.049-2.161
			c0.357-1.083,1.514-1.367,2.16-2.161c-1.74-0.833-0.247-2.171,0.864-2.592c-2.41-7.579,2.195-14.739,10.803-13.828
			c14.472,1.528,9.019,25.358-5.185,19.448C82.02,60.15,82.488,61.915,80.957,61.681z M89.6,57.791
			c7.633-1.941,5.132-14.947-3.457-13.396C76.386,46.157,80.379,60.137,89.6,57.791z"/>
		<path fill-rule="evenodd" clip-rule="evenodd" fill="#03669D" d="M79.661,61.248c4.951,8.266-9.346,6.719-14.693,4.322
			c-3.878-1.738-9.31-6.84-11.668-12.102c-0.503-1.121-2.092-5.312-1.729-6.914c0.363-1.588,2.958-3.967,5.618-2.591
			c1.665,0.858,3.172,7.327,4.322,9.073c2.488,3.785,6.648,6.506,11.668,7.35C75.938,60.846,76.717,59.679,79.661,61.248z"/>
		<path fill-rule="evenodd" clip-rule="evenodd" fill="#03669D" d="M72.314,68.163c-1.023,1.136-1.715,2.604-3.457,3.024
			c-0.476-1.557-3.496-2.331-2.593-3.887C67.979,66.357,69.846,68.471,72.314,68.163z"/>
	</g>
	<g>
		<path fill-rule="evenodd" clip-rule="evenodd" fill="#03669D" d="M110.504,46.766V36.202c0-2.595-2.12-4.714-4.713-4.714h-4.498
			h-5.141h-6.179h-6.179h-5.14h-4.5c-2.594,0-4.712,2.119-4.712,4.714v51.659c0,2.594,2.119,4.714,4.712,4.714h4.5h5.14h6.179h6.179
			h5.141h4.498c2.593,0,4.713-2.12,4.713-4.714V53.216l-4.044,3.68v15.503c0,2.08-1.703,3.783-3.784,3.783h-1.383h-5.141h-6.179
			h-6.179h-5.14h-1.383c-2.083,0-3.786-1.703-3.786-3.783V38.678c0-2.084,1.703-3.779,3.786-3.779h1.383h5.14h6.179h6.179h5.141
			h1.383c2.081,0,3.784,1.695,3.784,3.779v12.647C107.735,49.888,109.086,48.367,110.504,46.766z M101.293,83.355
			c0.979,0,1.773,0.788,1.773,1.764c0,0.98-0.794,1.773-1.773,1.773c-0.975,0-1.767-0.793-1.767-1.773
			C99.526,84.144,100.318,83.355,101.293,83.355z M96.151,83.355L96.151,83.355c0.98,0,1.771,0.788,1.771,1.764
			c0,0.98-0.792,1.771-1.771,1.773h-0.001c-0.974,0-1.768-0.793-1.768-1.773C94.383,84.144,95.177,83.355,96.151,83.355z
			 M89.973,82.109c1.665,0,3.014,1.348,3.014,3.01c0,1.664-1.349,3.015-3.014,3.015c-1.665,0-3.015-1.351-3.015-3.015
			C86.958,83.457,88.308,82.109,89.973,82.109z M83.794,83.355c0.977,0,1.767,0.788,1.767,1.764c0,0.98-0.791,1.773-1.767,1.773
			c-0.977,0-1.771-0.793-1.771-1.773C82.023,84.144,82.817,83.355,83.794,83.355z M78.654,83.355c0.977,0,1.768,0.788,1.768,1.764
			c0,0.98-0.792,1.773-1.768,1.773c-0.98,0-1.773-0.793-1.773-1.773C76.88,84.144,77.673,83.355,78.654,83.355z"/>
		<path fill-rule="evenodd" clip-rule="evenodd" fill="#03669D" d="M122.658,38.055L122.658,38.055
			c-0.023-0.021-0.052-0.053-0.084-0.086l0,0c-0.04-0.04-0.077-0.074-0.109-0.106c-0.457-0.403-1.042-0.611-1.617-0.616
			c-0.571-0.004-1.131,0.195-1.55,0.609c-0.032,0.033-0.062,0.066-0.086,0.094l0,0c-6.014,6.826-11.111,12.562-15.27,17.244
			c-8.976,10.104-13.516,15.216-13.481,15.25c0.039,0.039,5.338-4.779,16.06-14.527c4.341-3.951,9.581-8.717,16.067-14.582
			c0.022-0.021,0.047-0.045,0.077-0.072V41.26c0.425-0.424,0.63-0.998,0.627-1.575C123.288,39.101,123.071,38.511,122.658,38.055z"
			/>
	</g>
</g>
<g>
	<path fill-rule="evenodd" clip-rule="evenodd" fill="#03669D" d="M427.893,19.154c13.641-3.193,15.305,17.771,2.561,17.92
		C420.986,37.184,417.184,21.662,427.893,19.154z"/>
	<path fill-rule="evenodd" clip-rule="evenodd" fill="#03669D" d="M385.474,33.051c1.639,1.406,2.249,3.807,2.926,5.852
		c2.053,6.199,4.1,12.797,6.216,19.014c7.199,0.239,15.351-0.479,21.941,0.366c0,0.853,0,1.706,0,2.56
		c-11.15,0.996-15.562,0.246-27.425,0.365c0.013-1.693-0.482-3.896,1.828-3.291c-1.332-4.117-2.632-8.293-4.021-12.433
		c-1.308-3.894-3.652-7.839-3.292-12.066C384.679,33.719,384.593,32.9,385.474,33.051z"/>
	<path fill-rule="evenodd" clip-rule="evenodd" fill="#03669D" d="M419.848,79.855c0.91,8.11,1.521,16.518,2.195,24.865
		c-1.561-0.148-3.77,0.354-4.754-0.365c-0.096-7.705-1.295-14.305-1.463-21.939c-3.439,5.159-0.996,22.623-8.045,23.035
		c-2.682,0.16-3.232-1.281-4.754-2.924c1.322-10.867,2.869-21.508,5.852-30.716c1.303-0.769,2.832-1.312,5.117-1.098
		c-2.314-2.871-8.184-1.828-13.527-1.828c-5.477,0-13.648-1.079-16.458,0.731c-3.106,2.004-2.484,12.217-2.924,16.821
		c-0.617,6.45-1.427,12.27-1.463,18.282c-1.586,0-3.168,0-4.754,0c1.297-11.744,1.419-24.666,3.657-35.468
		c-0.736-0.606-2.221-0.464-2.56-1.464c0.282-2.359-0.287-3.344,0.365-5.119c3.072-0.928,6.59-0.381,10.238-0.367
		c11.426,0.045,24.167-0.518,34.008,0.367c0.734,1.092,0.205,3.451,0.365,5.119c-0.203,1.259-2.412,0.514-2.561,1.828
		c1.27,2.266,6.492,0.576,9.508,1.097c0.848-5.077,1.979-11.15,1.098-16.819c3.594-2.215,11.227-4.547,9.873-9.509
		c-1.611-5.901-8.082,1.757-10.238,2.926c-1.143-7.163,6.938-11.836,12.432-6.948c5.135,4.571,6.576,28.482,1.096,35.471
		C437.646,81.581,431.412,79.524,419.848,79.855z"/>
	<path fill-rule="evenodd" clip-rule="evenodd" fill="#03669D" d="M434.84,42.924c8.066,1.174,0.588,7.498-4.754,9.871
		c-4.646,2.068-9.363,2.692-12.797,2.928c-4.441,0.303-11.238,0.518-10.971-2.928c0.27-3.494,6.221-1.748,12.066-2.191
		C424.176,50.164,432.734,46.844,434.84,42.924z"/>
	<path fill-rule="evenodd" clip-rule="evenodd" fill="#03669D" d="M451.295,82.05c1.227,7.427,2.711,14.599,3.656,22.306
		c-9.873,0-19.744,0-29.619,0c1.289-7.486,2.24-15.313,4.023-22.306C436.668,82.05,443.982,82.05,451.295,82.05z"/>
</g>
</svg>
