<?xml version="1.0" encoding="utf-8"?>
<!-- Generator: Adobe Illustrator 15.0.0, SVG Export Plug-In . SVG Version: 6.00 Build 0)  -->
<!DOCTYPE svg PUBLIC "-//W3C//DTD SVG 1.1//EN" "http://www.w3.org/Graphics/SVG/1.1/DTD/svg11.dtd">
<svg version="1.1" id="Layer_1" xmlns="http://www.w3.org/2000/svg" xmlns:xlink="http://www.w3.org/1999/xlink" x="0px" y="0px"
	 width="214px" height="134px" viewBox="0 0 214 134" enable-background="new 0 0 214 134" xml:space="preserve">
<g>
	<g>
		<path fill="#D8D5C3" d="M97.127,50.141c-13.727,0-24.855,11.107-24.855,24.809S83.4,99.758,97.127,99.758
			c13.723,0,24.852-11.107,24.852-24.809S110.85,50.141,97.127,50.141z"/>
		<path fill="#8A8A8A" d="M72.1,84.383c5.039,14.01,20.504,21.285,34.535,16.258c14.037-5.033,21.326-20.469,16.287-34.479
			s-20.504-21.289-34.541-16.26C74.346,54.936,67.061,70.371,72.1,84.383z M87.572,55.041l4.277,11.893
			c-3.729,2.52-5.424,7.322-3.832,11.742c0.309,0.859,0.721,1.646,1.223,2.363l-8.223,9.629c-2.039-2.178-3.682-4.795-4.754-7.777
			C72.334,71.969,77.369,60.02,87.572,55.041z M102.242,73.576c0.941,2.609-0.42,5.482-3.033,6.424
			c-2.613,0.932-5.49-0.422-6.43-3.029c-0.941-2.611,0.414-5.486,3.029-6.424C98.426,69.609,101.309,70.965,102.242,73.576z
			 M118.758,67.656c1.051,2.918,1.461,5.912,1.299,8.83l-12.508-2.166c-0.076-0.82-0.256-1.641-0.545-2.449
			c-1.559-4.328-5.771-6.928-10.145-6.646l-4.293-11.939C103.523,50.818,114.861,56.828,118.758,67.656z M85.068,94.078l8.234-9.654
			c2.316,1.055,5.035,1.252,7.611,0.324c2.643-0.945,4.641-2.873,5.738-5.225l12.494,2.17c-1.977,6.631-6.982,12.268-14.006,14.789
			C98.18,98.977,90.799,97.85,85.068,94.078z"/>
	</g>
	<g>
		<g>
			<path fill="#B5B5B5" d="M160.301,81.596v-2.381c0-0.984-0.795-1.781-1.785-1.781c-0.988,0-1.787,0.797-1.787,1.781v2.381
				c0,0.984,0.799,1.785,1.787,1.785C159.506,83.381,160.301,82.58,160.301,81.596z"/>
			<path fill="#B5B5B5" d="M158.516,76.297c-0.988,0-1.787-0.799-1.787-1.785v-4.705c0-0.986,0.799-1.783,1.787-1.783
				c0.99,0,1.785,0.797,1.785,1.783v4.705C160.301,75.498,159.506,76.297,158.516,76.297z M158.516,66.887
				c-0.988,0-1.787-0.799-1.787-1.785v-4.703c0-0.984,0.799-1.785,1.787-1.785c0.99,0,1.785,0.801,1.785,1.785v4.703
				C160.301,66.088,159.506,66.887,158.516,66.887z"/>
			<path fill="#B5B5B5" d="M160.301,55.693v-2.379c0-0.984-0.795-1.783-1.785-1.783c-0.988,0-1.787,0.799-1.787,1.783v2.379
				c0,0.984,0.799,1.785,1.787,1.785C159.506,57.479,160.301,56.678,160.301,55.693z"/>
			<g>
				<polygon fill="#B5B5B5" points="149.658,55.916 158.562,40.508 167.473,55.916 				"/>
			</g>
		</g>
		<path fill="#B5B5B5" d="M158.633,95.85c3.775,0,6.832-3.049,6.832-6.812c0-3.762-3.057-6.812-6.832-6.812
			c-3.773,0-6.83,3.051-6.83,6.812C151.803,92.801,154.859,95.85,158.633,95.85z M158.633,93.547c-2.496,0-4.523-2.02-4.523-4.51
			s2.027-4.508,4.523-4.508c2.498,0,4.525,2.018,4.525,4.508S161.131,93.547,158.633,93.547z"/>
	</g>
	<g>
		<g>
			<path fill="#B5B5B5" d="M12.643,113.941h2.383c0.984,0,1.785-0.801,1.785-1.785s-0.801-1.783-1.785-1.783h-2.383
				c-0.988,0-1.789,0.799-1.789,1.783S11.654,113.941,12.643,113.941z"/>
			<path fill="#B5B5B5" d="M18.012,112.156c0-0.984,0.801-1.783,1.789-1.783h4.775c0.984,0,1.783,0.799,1.783,1.783
				s-0.799,1.785-1.783,1.785h-4.775C18.812,113.941,18.012,113.141,18.012,112.156z M27.566,112.156
				c0-0.984,0.801-1.783,1.785-1.783h4.773c0.99,0,1.789,0.799,1.789,1.783s-0.799,1.785-1.789,1.785h-4.773
				C28.367,113.941,27.566,113.141,27.566,112.156z M37.117,112.156c0-0.984,0.799-1.783,1.787-1.783h4.775
				c0.984,0,1.785,0.799,1.785,1.783s-0.801,1.785-1.785,1.785h-4.775C37.916,113.941,37.117,113.141,37.117,112.156z
				 M46.672,112.156c0-0.984,0.799-1.783,1.783-1.783h4.775c0.988,0,1.789,0.799,1.789,1.783s-0.801,1.785-1.789,1.785h-4.775
				C47.471,113.941,46.672,113.141,46.672,112.156z M56.221,112.156c0-0.984,0.801-1.783,1.785-1.783h4.779
				c0.988,0,1.783,0.799,1.783,1.783s-0.795,1.785-1.783,1.785h-4.779C57.021,113.941,56.221,113.141,56.221,112.156z
				 M65.775,112.156c0-0.984,0.795-1.783,1.789-1.783h4.77c0.99,0,1.789,0.799,1.789,1.783s-0.799,1.785-1.789,1.785h-4.77
				C66.57,113.941,65.775,113.141,65.775,112.156z M75.326,112.156c0-0.984,0.799-1.783,1.787-1.783h4.775
				c0.984,0,1.785,0.799,1.785,1.783s-0.801,1.785-1.785,1.785h-4.775C76.125,113.941,75.326,113.141,75.326,112.156z
				 M84.879,112.156c0-0.984,0.801-1.783,1.785-1.783h4.779c0.984,0,1.785,0.799,1.785,1.783s-0.801,1.785-1.785,1.785h-4.779
				C85.68,113.941,84.879,113.141,84.879,112.156z M94.43,112.156c0-0.984,0.801-1.783,1.785-1.783h4.779
				c0.984,0,1.787,0.799,1.787,1.783s-0.803,1.785-1.787,1.785h-4.779C95.23,113.941,94.43,113.141,94.43,112.156z M103.984,112.156
				c0-0.984,0.801-1.783,1.785-1.783h4.773c0.99,0,1.789,0.799,1.789,1.783s-0.799,1.785-1.789,1.785h-4.773
				C104.785,113.941,103.984,113.141,103.984,112.156z M113.535,112.156c0-0.984,0.799-1.783,1.787-1.783h2.008
				c0.008,0,1-0.004,2.504-0.23c0.977-0.146,1.889,0.523,2.031,1.5c0.15,0.975-0.523,1.883-1.5,2.027
				c-1.791,0.27-2.986,0.271-3.035,0.271h-2.008C114.334,113.941,113.535,113.141,113.535,112.156z M123.055,111.357
				c-0.318-0.932,0.18-1.949,1.111-2.268c1.439-0.494,2.781-1.111,3.982-1.842c0.842-0.512,1.943-0.244,2.455,0.6
				c0.51,0.842,0.242,1.941-0.604,2.451c-1.42,0.863-2.994,1.594-4.674,2.168c-0.193,0.066-0.387,0.096-0.578,0.096
				C124.006,112.562,123.311,112.098,123.055,111.357z M131.562,107.098c-0.717-0.684-0.738-1.811-0.055-2.521
				c0.98-1.027,1.814-2.188,2.48-3.453c0.455-0.873,1.537-1.209,2.408-0.75c0.875,0.455,1.215,1.535,0.754,2.41
				c-0.822,1.559-1.848,2.992-3.062,4.26c-0.352,0.363-0.82,0.553-1.289,0.553C132.35,107.596,131.91,107.43,131.562,107.098z
				 M136.803,99.234c-0.959-0.229-1.551-1.189-1.324-2.148c0.322-1.354,0.516-2.822,0.578-4.369
				c0.043-0.988,0.859-1.746,1.855-1.715c0.988,0.039,1.756,0.871,1.717,1.855c-0.07,1.775-0.301,3.479-0.674,5.055
				c-0.197,0.82-0.93,1.373-1.738,1.373C137.084,99.285,136.941,99.268,136.803,99.234z M136.078,88.016v-4.77
				c0-0.988,0.799-1.783,1.789-1.783c0.984,0,1.783,0.795,1.783,1.783v4.77c0,0.986-0.799,1.787-1.783,1.787
				C136.877,89.803,136.078,89.002,136.078,88.016z"/>
			<path fill="#B5B5B5" d="M137.867,80.252c0.984,0,1.783-0.801,1.783-1.787v-2.377c0-0.984-0.799-1.783-1.783-1.783
				c-0.99,0-1.789,0.799-1.789,1.783v2.377C136.078,79.451,136.877,80.252,137.867,80.252z"/>
			<g>
				<polygon fill="#B5B5B5" points="129.008,78.693 137.912,63.283 146.822,78.693 				"/>
			</g>
		</g>
		<path fill="#B5B5B5" d="M0,112.086c0,3.77,3.055,6.824,6.82,6.824s6.818-3.055,6.818-6.824c0-3.768-3.053-6.824-6.818-6.824
			S0,108.318,0,112.086z M2.305,112.086c0-2.492,2.023-4.516,4.516-4.516s4.516,2.023,4.516,4.516c0,2.496-2.023,4.518-4.516,4.518
			S2.305,114.582,2.305,112.086z"/>
	</g>
	<path fill="#B59E77" d="M179.004,12.744c-2.053,0.445-3.967,1.252-5.676,2.35l-3.012-3.004l-5.211,5.191l3.016,3.008
		c-1.102,1.707-1.91,3.615-2.354,5.662h-4.256v7.35h4.256c0.443,2.047,1.252,3.955,2.354,5.66l-3.016,3.006l5.211,5.197l3.012-3.006
		c1.709,1.1,3.623,1.906,5.676,2.35v4.248h7.363v-4.248c2.053-0.443,3.967-1.25,5.676-2.35l3.012,3.006l5.211-5.197l-3.012-3.006
		c1.102-1.705,1.908-3.613,2.354-5.66h4.252v-7.35h-4.252c-0.445-2.047-1.252-3.955-2.354-5.662l3.012-3.008l-5.211-5.191
		l-3.012,3.004c-1.709-1.098-3.623-1.904-5.676-2.35V8.5h-7.363V12.744z M182.686,17.217c0.191,0,0.385,0.008,0.572,0.012
		c0.064,0.006,0.119,0.01,0.178,0.012c0.137,0.008,0.271,0.021,0.414,0.033c0.055,0.004,0.113,0.008,0.172,0.016
		c0.184,0.02,0.369,0.041,0.549,0.07c0.02,0.004,0.041,0.01,0.066,0.01c0.16,0.027,0.318,0.057,0.482,0.086
		c0.062,0.014,0.125,0.025,0.188,0.039c0.127,0.029,0.244,0.057,0.365,0.086c0.062,0.016,0.125,0.031,0.188,0.047
		c0.168,0.045,0.336,0.088,0.504,0.139l0.004,0.004c0.736,0.227,1.445,0.523,2.115,0.877c0.121,0.066,0.242,0.135,0.363,0.199
		c0.029,0.021,0.059,0.033,0.084,0.051c0.117,0.07,0.234,0.139,0.352,0.209c0.014,0.012,0.029,0.021,0.047,0.029
		c0.373,0.24,0.725,0.488,1.068,0.758c0.021,0.018,0.037,0.029,0.055,0.045c0.104,0.086,0.209,0.168,0.314,0.262
		c0.023,0.02,0.045,0.039,0.07,0.059c0.443,0.381,0.859,0.799,1.24,1.236c0.021,0.025,0.041,0.047,0.062,0.068
		c0.084,0.107,0.172,0.211,0.26,0.316c0.012,0.018,0.025,0.033,0.037,0.051c0.273,0.344,0.527,0.701,0.768,1.068
		c0.004,0.02,0.016,0.031,0.025,0.045c0.07,0.117,0.143,0.234,0.213,0.352c0.018,0.029,0.029,0.055,0.047,0.084
		c0.07,0.117,0.137,0.242,0.201,0.365c0.355,0.666,0.652,1.373,0.879,2.107v0.004c0.051,0.17,0.1,0.338,0.143,0.506
		c0.016,0.059,0.033,0.123,0.045,0.186c0.035,0.119,0.059,0.242,0.088,0.363c0.014,0.062,0.025,0.123,0.039,0.189
		c0.033,0.16,0.062,0.322,0.088,0.484c0,0.021,0.008,0.041,0.008,0.064c0.029,0.18,0.055,0.363,0.07,0.543
		c0.01,0.059,0.014,0.117,0.018,0.176c0.014,0.137,0.025,0.273,0.033,0.414c0.004,0.059,0.004,0.109,0.01,0.17
		c0.008,0.191,0.012,0.385,0.012,0.576c0,0.193-0.004,0.383-0.012,0.572c-0.006,0.057-0.006,0.115-0.01,0.172
		c-0.008,0.141-0.02,0.277-0.033,0.414c-0.004,0.053-0.008,0.115-0.018,0.174c-0.016,0.188-0.041,0.365-0.07,0.549
		c0,0.021-0.008,0.039-0.008,0.057c-0.025,0.164-0.055,0.328-0.088,0.488c-0.014,0.062-0.025,0.127-0.039,0.189
		c-0.029,0.121-0.053,0.242-0.088,0.367c-0.012,0.059-0.029,0.123-0.045,0.184c-0.043,0.172-0.092,0.336-0.143,0.508l0,0
		c-0.227,0.738-0.523,1.439-0.879,2.107c-0.068,0.125-0.135,0.248-0.201,0.369c-0.018,0.025-0.029,0.055-0.047,0.074
		c-0.066,0.123-0.143,0.24-0.213,0.359c-0.01,0.012-0.018,0.025-0.025,0.035c-0.234,0.377-0.494,0.73-0.768,1.076
		c-0.012,0.02-0.025,0.033-0.037,0.053c-0.088,0.107-0.176,0.209-0.26,0.316c-0.021,0.021-0.041,0.041-0.062,0.064
		c-0.381,0.441-0.797,0.857-1.24,1.238c-0.025,0.02-0.047,0.041-0.07,0.061c-0.105,0.09-0.211,0.176-0.314,0.258
		c-0.018,0.016-0.033,0.031-0.055,0.045c-0.344,0.271-0.699,0.523-1.068,0.76c-0.018,0.008-0.033,0.018-0.047,0.029
		c-0.117,0.07-0.234,0.139-0.355,0.213c-0.025,0.012-0.051,0.029-0.074,0.041c-0.127,0.072-0.248,0.139-0.369,0.205
		c-0.67,0.354-1.379,0.65-2.115,0.877l-0.004,0.002c-0.168,0.047-0.336,0.096-0.504,0.141c-0.062,0.016-0.125,0.033-0.188,0.049
		c-0.121,0.027-0.238,0.057-0.365,0.08c-0.062,0.018-0.125,0.029-0.188,0.043c-0.164,0.033-0.322,0.062-0.482,0.084
		c-0.025,0.004-0.047,0.012-0.066,0.012c-0.18,0.029-0.365,0.051-0.549,0.07c-0.059,0.004-0.117,0.01-0.172,0.018
		c-0.143,0.012-0.277,0.023-0.414,0.031c-0.059,0.002-0.113,0.006-0.178,0.01c-0.188,0.01-0.381,0.014-0.572,0.014
		c-0.193,0-0.381-0.004-0.574-0.014c-0.059-0.004-0.113-0.008-0.172-0.01c-0.139-0.008-0.277-0.02-0.414-0.031
		c-0.059-0.008-0.117-0.014-0.172-0.018c-0.189-0.02-0.369-0.041-0.553-0.07c-0.021-0.004-0.039-0.008-0.059-0.012
		c-0.164-0.021-0.328-0.051-0.49-0.084c-0.059-0.014-0.123-0.025-0.189-0.043c-0.121-0.023-0.242-0.053-0.363-0.08
		c-0.064-0.016-0.123-0.033-0.189-0.045c-0.918-0.244-1.797-0.592-2.621-1.027c-0.123-0.062-0.24-0.129-0.361-0.195
		c-0.029-0.018-0.059-0.035-0.088-0.051c-0.117-0.07-0.23-0.139-0.348-0.209c-0.016-0.012-0.033-0.021-0.051-0.035
		c-0.367-0.23-0.725-0.482-1.068-0.752c-0.016-0.016-0.037-0.031-0.053-0.047c-0.105-0.082-0.211-0.168-0.311-0.254
		c-0.025-0.023-0.051-0.045-0.076-0.064c-0.439-0.383-0.854-0.797-1.234-1.232c-0.021-0.029-0.043-0.049-0.064-0.076
		c-0.088-0.102-0.176-0.203-0.264-0.311c-0.008-0.02-0.025-0.035-0.041-0.057c-0.268-0.342-0.523-0.695-0.754-1.064
		c-0.014-0.016-0.021-0.031-0.029-0.045c-0.076-0.117-0.143-0.234-0.213-0.354c-0.018-0.023-0.035-0.053-0.051-0.082
		c-0.068-0.123-0.135-0.244-0.201-0.361c-0.352-0.672-0.65-1.373-0.875-2.111l0,0c-0.055-0.172-0.102-0.338-0.146-0.508
		c-0.018-0.061-0.035-0.125-0.047-0.184c-0.033-0.125-0.059-0.246-0.084-0.371c-0.018-0.062-0.025-0.123-0.041-0.184
		c-0.035-0.162-0.064-0.328-0.088-0.496c0-0.012-0.01-0.033-0.01-0.051c-0.029-0.184-0.049-0.361-0.07-0.549
		c-0.004-0.059-0.008-0.115-0.018-0.174c-0.012-0.137-0.02-0.273-0.029-0.414c-0.004-0.057-0.008-0.115-0.008-0.172
		c-0.008-0.189-0.018-0.379-0.018-0.572c0-0.191,0.01-0.385,0.018-0.576c0-0.053,0.004-0.111,0.008-0.166
		c0.01-0.145,0.018-0.281,0.029-0.42c0.01-0.057,0.014-0.115,0.018-0.17c0.021-0.184,0.041-0.367,0.07-0.553
		c0-0.016,0.01-0.033,0.01-0.049c0.023-0.168,0.053-0.332,0.088-0.494c0.016-0.066,0.023-0.123,0.041-0.186
		c0.025-0.125,0.051-0.248,0.084-0.371c0.012-0.061,0.029-0.123,0.047-0.182c0.045-0.168,0.092-0.336,0.141-0.506l0.006-0.004
		c0.225-0.734,0.523-1.441,0.875-2.107c0.066-0.123,0.133-0.248,0.201-0.365c0.016-0.029,0.033-0.055,0.051-0.084
		c0.066-0.117,0.137-0.234,0.213-0.348c0.008-0.018,0.016-0.033,0.029-0.049c0.23-0.367,0.486-0.725,0.754-1.064
		c0.016-0.021,0.033-0.037,0.041-0.055c0.088-0.105,0.176-0.209,0.264-0.312c0.021-0.025,0.043-0.047,0.064-0.072
		c0.381-0.438,0.795-0.855,1.238-1.236c0.021-0.02,0.047-0.039,0.068-0.059c0.104-0.094,0.209-0.176,0.314-0.262
		c0.016-0.016,0.037-0.027,0.053-0.045c0.344-0.27,0.705-0.523,1.072-0.758c0.014-0.008,0.031-0.018,0.043-0.025
		c0.121-0.074,0.238-0.143,0.355-0.213c0.025-0.018,0.055-0.029,0.08-0.043c0.121-0.072,0.242-0.141,0.369-0.207
		c0.82-0.434,1.699-0.775,2.617-1.02c0.066-0.016,0.125-0.031,0.189-0.047c0.121-0.029,0.242-0.057,0.363-0.086
		c0.066-0.014,0.131-0.025,0.189-0.039c0.162-0.029,0.326-0.059,0.49-0.086c0.02,0,0.037-0.006,0.059-0.01
		c0.184-0.029,0.363-0.051,0.553-0.07c0.055-0.008,0.113-0.012,0.172-0.016c0.137-0.012,0.275-0.025,0.414-0.033
		c0.059-0.002,0.113-0.006,0.172-0.012C182.305,17.225,182.492,17.217,182.686,17.217z"/>
</g>
</svg>
