<?xml version="1.0" encoding="utf-8"?>
<!-- Generator: Adobe Illustrator 15.0.0, SVG Export Plug-In . SVG Version: 6.00 Build 0)  -->
<!DOCTYPE svg PUBLIC "-//W3C//DTD SVG 1.1//EN" "http://www.w3.org/Graphics/SVG/1.1/DTD/svg11.dtd">
<svg version="1.1" id="Layer_1" xmlns="http://www.w3.org/2000/svg" xmlns:xlink="http://www.w3.org/1999/xlink" x="0px" y="0px"
	 width="392.425px" height="124px" viewBox="0 0 392.425 124" enable-background="new 0 0 392.425 124" xml:space="preserve">
<g>
	<g>
		<defs>
			<polygon id="SVGID_1_" points="315.875,112.285 368.422,112.285 348.85,92.381 368.422,72.145 315.875,72.145 			"/>
		</defs>
		<linearGradient id="SVGID_2_" gradientUnits="userSpaceOnUse" x1="315.875" y1="92.2148" x2="368.4219" y2="92.2148">
			<stop  offset="0.1104" style="stop-color:#1191B6"/>
			<stop  offset="1" style="stop-color:#086079"/>
		</linearGradient>
		<use xlink:href="#SVGID_1_"  overflow="visible" fill="url(#SVGID_2_)"/>
		<clipPath id="SVGID_3_">
			<use xlink:href="#SVGID_1_"  overflow="visible"/>
		</clipPath>
		
			<linearGradient id="SVGID_4_" gradientUnits="userSpaceOnUse" x1="-211.8271" y1="369.5" x2="-211.1289" y2="369.5" gradientTransform="matrix(-75.2354 0 0 -75.2354 -15568.4424 27891.7363)">
			<stop  offset="0.1104" style="stop-color:#1191B6"/>
			<stop  offset="1" style="stop-color:#086079"/>
		</linearGradient>
		<rect x="315.875" y="72.145" clip-path="url(#SVGID_3_)" fill="url(#SVGID_4_)" width="52.547" height="40.141"/>
	</g>
	<rect y="66.871" fill="#1191B6" width="334.848" height="40.14"/>
	<text transform="matrix(1 0 0 1 19.8828 97.3262)" fill="#FFFFFF" font-family="'Hooge0853'" font-size="33.1056">PARA EMPRESAS</text>
	<path fill="#1191B6" d="M280.228,55.303V44.707c0-0.908-0.244-3.703-3.796-3.703c-0.051,0-0.095,0.005-0.145,0.007
		c-0.424-1.399-1.562-2.985-4.579-2.985c-4.521,0-4.83,3.558-4.83,4.715v12.562h-1.364v-2.729c0,0-0.482-0.077-1.31-0.211
		c-0.412-6.77-0.919-18.443-1.2-37.441h-3.71c-0.268,18.12-0.74,29.574-1.142,36.469c-5.872-0.945-13.657-2.203-17.086-2.771V38.341
		l-1.746-0.403v-3.917c0-1.419-0.546-5.785-8.513-5.785s-8.514,4.366-8.514,5.785v3.446c-2.529,0-5.595,0-7.312,0.001
		c-1.781-0.003-3.273,0.347-4.311,1.435c-1.015,1.1-1.252,2.538-1.256,4.131v4.225c-3.556,0.775-6.221,3.938-6.221,7.727
		c0,3.209,1.914,5.966,4.659,7.207l-1.878,4.68h1.858l1.837-4.11c0.467,0.085,0.944,0.137,1.437,0.137
		c0.456,0,0.899-0.048,1.334-0.121l1.83,4.095h1.857l-1.859-4.635c2.255-0.985,3.956-2.99,4.532-5.434v10.068h51.514v-0.082
		c0.791,0.096,1.393,0.081,1.393,0.081s0.86,0.022,1.882-0.153v0.154h10.04V55.303H280.228z M212.579,40.698
		c0.273-0.304,0.909-0.61,2.402-0.612h7.312v12.318c-2.014,0.477-3.394,0.802-3.477,0.821c-0.734-3.229-3.438-5.703-6.783-6.095
		v-4.098C212.03,41.68,212.285,40.988,212.579,40.698z M239.32,46.418l0.244,1.948c-0.18-0.032-0.265-0.048-0.244-0.048V46.418z"/>
	<path fill="#1191B6" d="M304.006,46.769l-3.76,0.976l-0.949-28.533c0,0-0.604-0.749-2.421-0.749c-1.815,0-2.421,0.749-2.421,0.749
		l-1.007,30.296L283.057,52.2v15.13h51.791V50.454L304.006,46.769z"/>
	<path fill="#1191B6" d="M164.978,46.769l-3.76,0.976l-0.949-3.533c0,0-0.604-0.749-2.421-0.749c-1.815,0-2.421,0.749-2.421,0.749
		l-1.007,5.296L144.028,52.2v15.13h51.791V50.454L164.978,46.769z"/>
	<rect x="101.759" y="23.672" fill="#1191B6" width="29.333" height="43.199"/>
	<rect x="80.093" y="55.396" fill="#1191B6" width="16" height="11.475"/>
	<rect x="75.628" y="52.673" fill="#1191B6" width="24.465" height="3.724"/>
</g>
</svg>
