<?xml version="1.0" encoding="utf-8"?>
<!-- Generator: Adobe Illustrator 15.0.0, SVG Export Plug-In . SVG Version: 6.00 Build 0)  -->
<!DOCTYPE svg PUBLIC "-//W3C//DTD SVG 1.1//EN" "http://www.w3.org/Graphics/SVG/1.1/DTD/svg11.dtd">
<svg version="1.1" id="Layer_1" xmlns="http://www.w3.org/2000/svg" xmlns:xlink="http://www.w3.org/1999/xlink" x="0px" y="0px"
	 width="588px" height="226px" viewBox="0 0 588 226" enable-background="new 0 0 588 226" xml:space="preserve">
<g>
	<g>
		
			<linearGradient id="SVGID_1_" gradientUnits="userSpaceOnUse" x1="9.0659" y1="52.4878" x2="61.6128" y2="52.4878" gradientTransform="matrix(1 0 0 -1 0 227)">
			<stop  offset="0.1104" style="stop-color:#1191B6"/>
			<stop  offset="1" style="stop-color:#086079"/>
		</linearGradient>
		<polygon fill="url(#SVGID_1_)" points="61.613,194.583 9.066,194.583 28.638,174.68 9.066,154.441 61.613,154.441 		"/>
		
			<linearGradient id="SVGID_2_" gradientUnits="userSpaceOnUse" x1="520.5781" y1="53.4878" x2="573.125" y2="53.4878" gradientTransform="matrix(1 0 0 -1 0 227)">
			<stop  offset="0.1104" style="stop-color:#1191B6"/>
			<stop  offset="1" style="stop-color:#086079"/>
		</linearGradient>
		<polygon fill="url(#SVGID_2_)" points="520.578,193.583 573.125,193.583 553.553,173.68 573.125,153.441 520.578,153.441 		"/>
		<rect x="36.703" y="148.169" fill="#1191B6" width="508.848" height="40.14"/>
	</g>
	<g>
		<path fill="#FFFFFF" d="M55.622,157.286h21.867v13.121H59.995v8.747h-4.374L55.622,157.286L55.622,157.286z M73.115,166.033
			v-4.374h-13.12v4.374H73.115z"/>
		<path fill="#FFFFFF" d="M102.89,179.152h-4.374v-8.746h-13.12v8.746h-4.374v-21.867h21.867v8.747h-4.374v4.374h4.374
			L102.89,179.152L102.89,179.152z M98.447,166.033v-4.374h-13.05v4.374H98.447z"/>
		<path fill="#FFFFFF" d="M128.291,161.659h-17.494v4.374h13.12v4.374h-13.12v4.374h17.494v4.373h-21.867v-21.867h21.867V161.659z"
			/>
		<path fill="#FFFFFF" d="M136.199,161.659v4.374h17.494v13.121h-21.867v-4.375h17.494v-4.373h-17.494v-13.121h21.867v4.374H136.199
			z"/>
		<path fill="#FFFFFF" d="M179.093,161.659H161.6v4.374h13.12v4.374H161.6v4.374h17.493v4.373h-21.867v-21.867h21.867V161.659z"/>
		<path fill="#FFFFFF" d="M182.627,157.286h21.867v21.868h-4.373V161.66H187v17.494h-4.373V157.286z"/>
		<path fill="#FFFFFF" d="M229.896,157.286v4.374h-8.747v17.494h-4.373V161.66h-8.747v-4.374H229.896z"/>
		<path fill="#FFFFFF" d="M233.43,157.286h21.867v21.868h-4.373v-8.747h-13.121v8.747h-4.373V157.286z M250.924,166.033v-4.374
			h-13.121v4.374H250.924z"/>
		<path fill="#FFFFFF" d="M280.699,161.659h-17.494v13.12h17.494v4.375h-21.867v-21.868h21.867V161.659z"/>
		<path fill="#FFFFFF" d="M284.233,157.286h4.373v21.868h-4.373V157.286z"/>
		<path fill="#FFFFFF" d="M314.007,157.286v21.868H292.14v-21.868H314.007z M309.634,174.779v-13.12h-13.12v13.12H309.634z"/>
		<path fill="#FFFFFF" d="M317.542,157.286h21.867v21.868h-4.373V161.66h-13.121v17.494h-4.373V157.286L317.542,157.286z"/>
		<path fill="#FFFFFF" d="M372.717,161.659h4.373v13.12h-4.373v4.375h-17.494v-21.868h17.494V161.659z M372.646,161.659h-13.051
			v13.12h13.051V161.659z"/>
		<path fill="#FFFFFF" d="M402.492,161.659h-17.494v4.374h13.121v4.374h-13.121v4.374h17.494v4.373h-21.867v-21.867h21.867V161.659z
			"/>
		<path fill="#FFFFFF" d="M418.306,157.286h4.373v21.868h-4.373V157.286z"/>
		<path fill="#FFFFFF" d="M443.708,161.659h4.373v13.12h-4.373v4.375h-17.494v-21.868h17.494V161.659z M443.637,161.659h-13.051
			v13.12h13.051V161.659z"/>
		<path fill="#FFFFFF" d="M473.482,161.659h-17.494v4.374h13.121v4.374h-13.121v4.374h17.494v4.373h-21.867v-21.867h21.867V161.659z
			"/>
		<path fill="#FFFFFF" d="M477.016,157.286h21.867v21.868h-4.373v-8.747h-13.121v8.747h-4.373V157.286L477.016,157.286z
			 M494.51,166.033v-4.374h-13.121v4.374H494.51z"/>
		<path fill="#FFFFFF" d="M506.791,161.659v4.374h17.494v13.121h-21.867v-4.375h17.494v-4.373h-17.494v-13.121h21.867v4.374H506.791
			z"/>
	</g>
	<g>
		<path d="M240.643,204.734l-0.443,2.049h-4.039l-2.241,10.4h-3.983l3.983-18.479c-2.13,0.083-3.596,1.3-3.596,5.727
			c0,1.41,0.359,1.633,0.387,1.881c-1.909,0-2.96-0.69-2.96-2.684c0-3.679,2.601-7.191,9.434-7.191c1.106,0,2.849,0.332,4.592,0.332
			c0.857,0,1.715-0.084,2.49-0.332c-0.388,1.162-0.47,2.85-2.628,3.318c-1.272,0-2.6-0.249-3.873-0.525l-1.162,5.506h4.039V204.734z
			"/>
		<path d="M251.21,207.529c0.11,0.056,0.221,0.056,0.304,0.056c1.272,0,3.071-0.83,4.26-1.66l0.249,0.747
			c-1.051,1.135-2.877,1.965-4.896,2.297c-0.443,5.117-3.209,8.326-6.612,8.326c-2.573,0-4.426-1.217-4.426-4.371
			c0-3.181,1.881-9.82,7.58-9.82C250.048,203.104,251.21,204.625,251.21,207.529z M248.831,209.052
			c-0.581-0.139-0.747-0.608-0.747-1.161c0-0.774,0.36-1.272,0.858-1.494c-0.056-1.162-0.332-1.604-1.051-1.604
			c-1.964,0-3.679,5.062-3.679,7.772c0,1.826,0.359,2.242,1.411,2.242C246.977,214.807,248.388,212.314,248.831,209.052z"/>
		<path d="M258.762,203.354l-0.359,1.715c0.968-0.83,2.02-1.715,3.347-1.715c1.245,0,1.909,1.022,1.909,2.074
			c0,0.969-0.636,2.021-1.992,2.021c-1.549,0-0.774-1.826-1.604-1.826s-1.328,0.415-2.02,1.051l-2.213,10.513h-3.984l2.933-13.832
			H258.762L258.762,203.354z"/>
		<path d="M277.379,205.759c-0.996,0-1.743,1.162-2.158,2.546l-1.881,8.881h-3.984l2.02-9.545c0.055-0.222,0.083-0.441,0.083-0.69
			c0-0.609-0.221-1.218-0.83-1.218c-1.079,0-1.826,1.188-2.241,2.572l-1.881,8.881h-3.984l2.933-13.832h3.983l-0.304,1.438
			c1.162-1.328,2.407-1.577,3.375-1.577c1.466,0,2.545,0.664,2.85,2.38c1.328-2.048,2.822-2.352,3.845-2.352
			c1.771,0,3.071,0.912,3.071,3.126c0,2.239-1.328,5.588-1.328,7.137c0,0.692,0.277,1.162,1.106,1.162
			c1.217,0,1.715-0.996,2.324-2.435h1.162c-1.549,4.537-3.679,5.117-5.146,5.117c-2.407,0-3.264-1.549-3.264-3.125
			c0-1.882,1.245-5.285,1.245-7.056C278.375,206.257,278.043,205.759,277.379,205.759z"/>
		<path d="M297.352,203.354l-1.992,9.404c-0.082,0.36-0.11,0.637-0.11,0.887c0,0.773,0.36,1.022,1.134,1.022
			c1.079,0,1.826-1.051,2.241-2.435h1.162c-1.577,4.51-4.067,5.117-5.561,5.117c-1.577,0-2.573-0.912-2.739-2.627
			c-1.383,2.269-2.932,2.627-4.094,2.627c-1.66,0-2.96-0.996-2.96-3.318c0-0.526,0.083-1.135,0.221-1.799l1.881-8.881h3.983
			l-1.992,9.405c-0.055,0.277-0.083,0.526-0.083,0.775c0,0.636,0.221,1.134,0.83,1.134c1.079,0,1.798-1.051,2.213-2.436l1.881-8.879
			h3.985V203.354z"/>
		<path d="M305.955,197.818l-3.182,14.938c-0.082,0.36-0.11,0.638-0.11,0.886c0,0.774,0.358,1.023,1.135,1.023
			c1.078,0,2.074-1.051,2.489-2.436h1.162c-1.577,4.511-4.315,5.119-5.811,5.119c-1.66,0-2.959-0.996-2.959-3.32
			c0-0.525,0.082-1.135,0.221-1.799l2.959-13.858L305.955,197.818z"/>
		<path d="M319.843,203.354l-1.991,9.404c-0.084,0.36-0.11,0.637-0.11,0.887c0,0.773,0.358,1.188,1.134,1.188
			c1.079,0,1.826-1.217,2.241-2.601h1.161c-1.576,4.51-4.066,5.117-5.562,5.117c-1.549,0-2.545-0.886-2.711-2.545
			c-0.856,1.272-2.157,2.545-4.122,2.545c-1.881,0-3.679-1.162-3.679-4.453c0-3.734,2.296-9.684,7.108-9.684
			c1.578,0,2.242,0.609,2.242,1.411v0.192l0.303-1.465h3.985V203.354z M310.298,212.51c0,2.131,0.886,2.157,1.384,2.157
			c0.803,0,1.965-0.83,2.297-2.435l1.328-6.252c0-0.332-0.25-1.051-1.136-1.051C311.818,204.93,310.298,209.909,310.298,212.51z"/>
		<path d="M327.256,203.354l-0.359,1.715c0.969-0.83,2.02-1.715,3.348-1.715c1.245,0,1.908,1.022,1.908,2.074
			c0,0.969-0.637,2.021-1.991,2.021c-1.55,0-0.774-1.826-1.604-1.826s-1.328,0.415-2.02,1.051l-2.213,10.513h-3.983l2.933-13.832
			H327.256L327.256,203.354z"/>
		<path d="M337.934,203.354l-1.992,9.404c-0.082,0.36-0.109,0.637-0.109,0.887c0,0.773,0.359,1.022,1.134,1.022
			c1.079,0,2.075-1.051,2.49-2.435h1.161c-1.576,4.51-4.315,5.117-5.811,5.117c-1.658,0-2.959-0.996-2.959-3.318
			c0-0.526,0.082-1.135,0.221-1.799l1.882-8.881h3.983V203.354z M336.688,197.46c1.217,0,2.213,0.996,2.213,2.213
			c0,1.218-0.996,2.187-2.213,2.187s-2.186-0.969-2.186-2.187C334.503,198.456,335.471,197.46,336.688,197.46z"/>
		<path d="M350.354,206.838c0.969-0.193,1.66-1.383,1.965-1.908h0.886c-0.554,1.189-1.384,2.904-2.851,3.707
			c-0.332,5.312-3.099,8.658-6.584,8.658c-2.572,0-4.427-1.217-4.427-4.371c0-3.181,1.8-9.82,7.497-9.82
			C349.025,203.104,350.188,204.376,350.354,206.838z M348.003,209.052c-0.442-0.166-0.664-0.554-0.664-1.245
			c0-0.746,0.306-1.218,0.774-1.438c-0.055-1.162-0.359-1.577-1.051-1.577c-1.965,0-3.598,5.062-3.598,7.772
			c0,1.826,0.36,2.242,1.411,2.242C346.232,214.807,347.588,212.314,348.003,209.052z"/>
	</g>
	<g>
		<path fill="#F7FFE3" stroke="#000000" stroke-width="1.7281" stroke-miterlimit="10" d="M331.261,53.376
			c0-21.062-17.073-38.136-38.13-38.136c-21.06,0-38.139,17.074-38.139,38.136c0,10.173,4.013,19.393,10.505,26.231l-0.085,0.005
			c0,0,15.337,16.098,15.337,26.589c0,10.361,3.408,18.658,12.208,18.869v0.022c0.061,0,0.118-0.01,0.174-0.01
			c0.053,0,0.111,0.01,0.17,0.01v-0.022c8.801-0.211,12.211-8.508,12.211-18.869c0-10.491,15.334-26.589,15.334-26.589l-0.089-0.005
			C327.253,72.769,331.261,63.549,331.261,53.376z"/>
		<g>
			<path fill="#FFFFFF" stroke="#000000" stroke-width="0.8641" stroke-miterlimit="10" d="M278.707,104.383l1.419,18.846
				c0,1.494,1.208,2.701,2.698,2.701h20.701c1.488,0,2.695-1.207,2.695-2.701l1.039-17.725h0.078c0-2.772,3.932-5.257,4.066-5.341
				h-36.551C274.986,100.241,277.899,102.103,278.707,104.383z"/>
			<path fill="#FFFFFF" stroke="#000000" stroke-width="0.8641" stroke-miterlimit="10" d="M311.434,97.74h-36.605v2.401
				c0,0,0.022,0.017,0.027,0.021h36.552c0.003-0.005,0.026-0.021,0.026-0.021V97.74L311.434,97.74z"/>
		</g>
		<path fill="#FFFFFF" stroke="#000000" stroke-width="0.8641" stroke-miterlimit="10" d="M310.252,105.581
			c0.253,1.783-1.092,3.438-2.99,3.692l-27.365,3.645c-1.902,0.254-3.64-0.988-3.893-2.777l0,0
			c-0.246-1.787,1.088-3.432,2.993-3.686l27.36-3.653C308.262,102.552,310.004,103.793,310.252,105.581L310.252,105.581z"/>
		<path fill="#FFFFFF" stroke="#000000" stroke-width="0.8641" stroke-miterlimit="10" d="M309.818,115.855
			c0.205,1.785-1.133,3.398-2.992,3.598l-26.673,2.855c-1.851,0.196-3.522-1.09-3.719-2.884l0,0
			c-0.201-1.793,1.138-3.399,2.992-3.603l26.676-2.854C307.957,112.772,309.625,114.062,309.818,115.855L309.818,115.855z"/>
		<g>
			<path fill="#FFFFFF" stroke="#000000" stroke-width="0.8641" stroke-miterlimit="10" d="M300.064,126.312
				c0-0.155-0.035-0.254-0.045-0.383H286.24c-0.011,0.129-0.044,0.228-0.044,0.383c0,1.935,0.788,3.678,2.072,4.94h9.721
				C299.271,129.989,300.064,128.246,300.064,126.312z"/>
			<path fill="#FFFFFF" stroke="#000000" stroke-width="0.8641" stroke-miterlimit="10" d="M297.99,131.253h-9.721
				c1.247,1.228,2.961,1.986,4.857,1.986C295.027,133.239,296.742,132.48,297.99,131.253z"/>
		</g>
		
			<rect x="286.716" y="75.513" fill="#FDC548" stroke="#000000" stroke-width="1.2803" stroke-miterlimit="10" width="2.767" height="20.847"/>
		
			<rect x="294.878" y="75.513" fill="#FDC548" stroke="#000000" stroke-width="1.2803" stroke-miterlimit="10" width="2.767" height="20.847"/>
		<g>
			<path d="M302.241,40.447c-1.054,0.875-0.558,2.177-0.558,2.177c0.684,0.375,1.614,0.125,1.115-0.934
				c-0.496-1.055,0.748-1.055,0.934-1.735C303.92,39.272,303.299,39.584,302.241,40.447z"/>
			<path d="M303.299,51.509c0.498,0.683,0.684,0,0.994-0.808c0.311-0.809-0.436-2.547-1.057-2.423
				c-0.619,0.123,0.123,1.118,0.123,1.118C303.482,50.515,302.8,50.824,303.299,51.509z"/>
			<path d="M312.617,52.5c0,0-1.43,1.491-1.368,2.673c0.062,1.179-1.49,0.619-1.801,2.484c-0.312,1.862,0.622,0,0.931-0.188
				c0.312-0.186,0.87-0.684,1.305-1.118c0.437-0.434,0.063-2.296,0.996-3.168C313.609,52.315,312.864,52.564,312.617,52.5z"/>
			<path d="M320.195,44.985c0.807,0,0.869-3.23,0.31-4.223c-0.56-0.996-0.437,0.061-0.437,0.061S319.389,44.985,320.195,44.985z"/>
			<path d="M286.962,58.092c0.869,0.186-0.248-1.18-0.559-1.987c-0.312-0.808,0-2.113-0.745-2.049
				c-0.748,0.061-0.25,1.925-0.25,1.925C285.409,56.662,286.091,57.905,286.962,58.092z"/>
			<path d="M326.468,44.58c-1.211-5.59-3.819-6.521-3.819-6.521c-2.517-4.846-4.381-5.402-5.685-7.174
				c-1.305-1.771-2.889-3.728-4.938-4.009c-2.049-0.277-2.422-1.583-4.099-2.326c-1.678-0.745-4.753-1.119-4.753-1.119
				c-2.422-1.771-5.217-0.465-5.217-0.465c-5.033-0.934-5.125,1.022-6.523,1.209c-1.398,0.186-2.33-1.305-4.472-0.744
				c-2.144,0.558-4.566,2.236-4.566,2.236c-4.844-0.094-3.448,2.144-5.125,2.144c-1.677,0-5.403,1.118-6.242,2.89
				c-0.838,1.768-1.862,0.837-3.914,3.073c-2.05,2.236-2.516,3.818-2.516,3.818c-0.373,1.398-1.397,1.959-1.397,1.959
				c-2.982,3.448-2.794,7.081-2.794,7.081c-2.236,2.331-1.119,5.03-1.119,5.03c1.399,2.143,1.306,4.379,1.306,4.379
				c2.423,7.271,10.25,7.082,11.553,7.549c1.303,0.465,3.446,0.465,3.446,0.465c0.747,1.678,2.516,3.26,2.516,3.26
				c1.584,0,8.2,2.61,10.156,2.61c1.958,0,4.751-1.12,4.751-1.12c7.176,0.375,10.156-2.794,10.156-2.794
				c4.38,0.56,3.541-1.117,5.126-1.117c1.584,0,4.1-0.651,4.938-1.771c0.838-1.119,1.957-1.211,3.354-2.144
				c1.398-0.931,3.077-2.142,5.127-1.21c2.049,0.931,3.073,0.093,3.073,0.093C328.982,55.111,327.68,50.172,326.468,44.58z
				 M303.671,26.041c0,0-0.871-1.122,1.367-0.623c2.235,0.497,3.043,1.057,4.473,2.051c1.429,0.992,2.236,0.682,2.546,0.682
				c0.312,0,0.188,0.498-0.558,0.559c-0.745,0.062-1.679,0.311-3.354-0.993c-1.677-1.304-2.67-0.495-2.98,0.25
				c-0.311,0.743,0.062,2.173-0.809,2.173c-0.869,0-1.307-0.246-0.559-1.304C303.797,28.835,304.23,27.344,303.671,26.041z
				 M303.423,35.172c0.497,0.371-0.623,1.117-0.623,1.117c-0.807,0.124-1.114,0.188-2.296,1.303
				c-1.182,1.121-2.484,0.561-3.044-0.311c-0.56-0.868-0.933-0.746-0.933-0.746c-0.619,0.375,0.437,1.371,0.437,1.371
				c0.435,0.309,1.117,0.432,1.117,2.295c0,1.864-2.856,3.914-3.229,1.368c-0.375-2.549-1.43-2.549-1.68-4.598
				c-0.246-2.05,1.68-6.024,4.288-6.896c2.61-0.869,6.337,0.373,5.589,1.243C302.305,32.189,302.924,34.799,303.423,35.172z
				 M291.31,26.785c1.118-0.686,1.802-3.107,5.84-2.298c0,0,1.613,0.371,1.18,1.864c0,0-0.745,1.24,0.312,1.24
				c1.055,0,1.924-1.364,0.993-2.545c0,0-0.684-0.934,0.744-0.872c1.431,0.064,2.545,1.428,2.545,3.417c0,0,0.499,1.802-1.612,0.934
				c0,0-2.297-0.746-3.664,0.123c-1.369,0.87-2.359,0.87-3.542,0.559c0,0-0.559,0.559,0.312,0.745c0,0,1.429,0.621,0.62,0.807
				c-0.808,0.188-1.926,0.438-1.553,2.549c0,0-0.744,0.745-1.367-0.747c0,0-0.061-0.869-0.433-1.178
				c-0.375-0.312-0.872,0.372-0.375,1.49c0.498,1.119,0.933,1.242,0.87,2.483c-0.062,1.243,0.188,2.981,0.992,4.285
				c0.81,1.305,0.438,2.113,0.748,2.609c0.31,0.498,2.174,1.677,1.802,3.167c-0.373,1.49-1.058,2.921-2.98,2.921
				c-1.928,0-2.549,0.992-3.79,1.306c-1.243,0.31-4.349-0.498-4.286-5.902c0,0,0.123-2.052-1.49-5.217c0,0-0.25-2.049,0.494-2.486
				c0,0,0.375-2.047-0.806-2.236c0,0-0.434,0.498-0.125,0.934c0.311,0.436,0.187,0.991-0.247,1.367
				c-0.436,0.373-0.126,1.428-0.374,1.428c0,0-1.058,0.187-0.373-2.299c0,0-0.374-2.359,0.808-2.857
				c1.179-0.498,2.423-1.242,3.728-3.975c0,0,2.296-2.111,3.228-0.25c0,0,0.496,1.057-0.557,2.608
				c-1.056,1.554-0.933,1.864-0.872,2.859c0,0-1.738,1.491-1.799,2.298c-0.062,0.807-0.062,2.545,0.808,3.356
				c0,0,0.122,3.104,0.868,4.532c0.744,1.429,0.995,2.174,2.235,2.111c0,0,0.437-0.248-0.994-1.306c0,0-0.869-0.433-1.18-5.338
				c0,0-1.8-2.362,0.436-4.288c0,0,1.181-1.182,1.055-2.424c0,0,0.188-1.428,1.121-1.925
				C290.628,30.636,290.191,27.469,291.31,26.785z M267.768,45.418c0,0-1.677,2.486-1.926,0.25c0,0,1.864-2.732,3.23-2.732
				c1.368,0,2.858,2.482,2.113,5.091c0,0-0.56,1.742,0.745-0.122c0,0,0.683-1.552,0.372-2.357c0,0,0.684-0.313,1.988,1.86
				c1.304,2.175,2.485,2.547,3.789,2.733c1.305,0.187,2.236,1.863,2.236,2.485c0,0.618-1.49,0.126-2.856-0.435
				c-1.367-0.561-2.36-2.051-5.59-1.306c-3.23,0.745-5.219-3.353-2.983-5.154C268.885,45.731,268.825,44.551,267.768,45.418z
				 M277.521,48.775c-2.485-1.368-3.976-3.357-2.299-3.48c1.676-0.125,0.746,0.869,1.926,0.935c1.18,0.062-0.684-1.182-1.057-2.237
				c-0.372-1.057-0.372-3.417-0.372-3.791c0-0.371-0.745-0.683-0.684,0.934c0.062,1.614,0.125,4.471-2.546,3.354
				c0,0-1.678-0.496-1.118-3.292c0,0-0.187-0.749-0.684-0.062c0,0,0.063,0.806-1.306,0.31c0,0-2.11,0.125-2.608,1.677
				c0,0-0.992,1.119-0.559-0.249c0,0,0.807-2.482,1.863-3.354c1.058-0.869,2.362-2.049,3.169-3.292c0,0,0.621-0.621,1.428,0.309
				c0.808,0.935,1.554,1.12,0.994,3.295c-0.56,2.173-0.56,2.98,0.062,2.11c0.621-0.868,0.994-4.034,2.858-4.162
				c1.864-0.123,2.112,0.374,1.489,1.988c-0.62,1.616,0,2.051,0.56,0.681c0.56-1.361,0.746-3.354,2.983-2.109
				c0,0,0.869,1.246-0.25,2.361c-1.119,1.118-1.677,4.16-1.677,5.653C279.694,47.841,280.005,50.141,277.521,48.775z
				 M277.211,35.916c0,0,0.372,1.117-1.12,0.619c0,0-0.497,0.688-0.993,0.996c0,0-1.117-1.428-1.989-2.111
				c0,0-1.118-0.188-0.868-0.684c0,0,1.367-2.424,3.292-2.424c0,0,0.559-0.123,0.435,1.74
				C275.842,35.916,276.775,34.674,277.211,35.916z M282.055,41.69c0.808-0.991,1.428-0.308,1.306,0.687
				c-0.126,0.992,0.184,2.73,0.993,5.095c0.808,2.357-0.25,2.855-0.25,2.855c-0.559,1.677,0.684,0.622,0.684,0.622
				c0.188-0.744,1.057-1.491,1.057-1.491c1.613,0.371,0.124,2.173,0.124,2.173c-2.856,1.49-4.783,0-4.783,0
				C279.075,48.026,282.055,41.69,282.055,41.69z M282.675,26.785c0.993,0.123,1.864-0.558,1.864-0.558
				c1.12-1.181,3.728-1.554,5.096-0.935c1.365,0.622,0.497,1.615,0.497,1.615c-2.983-1.055-4.226,0.188-4.847,0.808
				c-0.62,0.622-0.187,2.236-2.61,3.043c-2.423,0.809-2.173,2.487-1.924,3.606c0.249,1.115-0.746,4.408-2.237,1.738
				c-1.492-2.672-1.553-1.242-1.492-3.292c0.062-2.053,2.549-1.429,2.549-1.429c1.986-0.126,1.986-1.555,2.05-2.734
				C281.682,27.469,282.675,26.785,282.675,26.785z M269.383,33.803c0.063-0.185-0.188-0.433,1.056-0.621
				c1.242-0.186,1.552-1.238,1.552-1.238c2.114-3.172,6.275-2.924,6.275-2.924c0.372-0.619,1.428-1.551,1.428-1.551
				c1.181-0.808,1.365-0.248,1.365-0.248c-0.433,0.123-0.495,0.992-0.495,0.992c0.247,2.049-1.243,1.99-1.243,1.99
				c-1.74-0.064-3.354,0.867-3.354,0.867c-5.404,1.68-3.851,3.48-5.28,4.102C269.259,35.791,269.383,33.803,269.383,33.803z
				 M265.098,40.327c0,0,1.242-0.932,1.242-2.982c0,0,0.869-1.925,1.861-2.423c0,0,0,1.555,1.431,1.243c0,0,0.124,0.683-0.994,1.366
				c-1.119,0.684-2.236,1.677-2.547,2.796c0,0-0.807,0.684-1.181,2.359c0,0-0.745,1.118-2.732,1.678
				C262.178,44.364,262.923,41.817,265.098,40.327z M264.288,44.61c1.431-0.37,0.872,0.375,0.872,0.375
				c-0.561,0.185-1.244,1.428-1.244,1.428c-1.925,1.12-0.931,3.169-0.931,3.169c-0.062,2.795-1.8,1.489-1.8,1.489
				C260.189,46.353,264.288,44.61,264.288,44.61z M262.424,54.613c0,0-0.123-0.993-0.745-1.43c0,0-0.495-0.992,1.12-0.992
				c0,0,1.801-0.561,1.74-1.74c0,0-0.623-0.993-0.497-1.801c0,0-0.126-1.554,1.18-1.742c1.304-0.183,1.8,1.246,1.739,2.361
				c-0.062,1.118,1.614,2.112,2.672,2.112c1.055,0-0.251,1.118-1.555,1.739c-1.304,0.622-1.615,1.555-4.719,0.747
				c0,0-0.374,2.112,4.596,0.619c0,0,1.24-0.432,1.738-1.117c0,0-0.186,2.175,0.56,3.23c0.745,1.057-1.368,4.038-6.337,1.554
				C263.916,58.154,262.053,57.16,262.424,54.613z M271.805,60.889c-0.06,2.172-4.783,0.618-6.335-1.058
				c0,0,2.049,1.058,4.534-0.124C270.003,59.707,271.868,58.712,271.805,60.889z M276.401,61.135
				c-0.247,0.933-0.682,1.244-1.986,1.244c-1.305,0-2.113-0.125-1.553-1.865c0,0,1.244,0.311,2.36-0.122
				C275.222,60.392,276.652,60.203,276.401,61.135z M271.682,58.961c-0.807-0.932-0.25-2.92-0.25-2.92
				c-1.8-2.797,0.187-4.162,0.187-4.162c3.542-0.621,3.479,0.995,6.21,1.554c2.735,0.559,1.615,1.117,1.615,1.117
				c-1.924,0.995-4.657,0.747-5.589,0.496c-0.931-0.248-1.987-0.184-0.87,0.499c1.12,0.683,3.79,0.56,3.79,0.56
				c1.304-0.496,1.181,0.62,1.181,0.62c-0.808,0.252-0.808,1.492-0.808,1.492C276.154,60.392,271.682,58.961,271.682,58.961z
				 M313.238,60.376c-1.024,1.768-2.562,3.073-4.008,3.121c-1.443,0.044,0.513-0.887-0.979-1.817c0,0-0.651-0.605-0.651,0.232
				c0,0,0.791,0.837-0.094,1.443c-0.885,0.605-1.445,1.538-6.15,1.584c0,0-2-0.046-5.17-3.494c0,0-0.838-1.491-1.351-1.817
				c0,0-0.467,0.094-0.188,0.702c0,0,0.42,1.115-0.278,1.256c-0.698,0.139-4.006,0.326-4.891,2.469c0,0-0.281,0.792,1.209-0.14
				c1.492-0.931,1.771-1.491,3.589-1.442c1.817,0.045,1.911,0.839,3.262,1.814c1.352,0.979,3.12,1.771,0.512,2.422
				c-2.607,0.653-4.239-0.277-6.849,1.072c-2.608,1.352-3.447,0.838-3.727,0.467c-0.279-0.373-0.092-1.119,1.167-1.211
				c1.256-0.094,3.631-0.467,3.68-1.305c0.047-0.839-0.232-1.49-0.513-1.211c-0.279,0.278,0,1.395-0.978,1.351
				c-0.978-0.046-3.308-0.14-4.426,0.56c-1.119,0.697-2.655,0.979-4.473-0.234c-1.817-1.211-3.215,2.004-4.612-3.912
				c0,0,0-2.145,1.118-2.982c0,0,0.202-1.009-0.109-1.459c0,0,0.435-2.11,2.609-2.919c0,0,0.808-2.237,4.472-1.305
				c0,0,1.679,0.06,1.989-1.927c0,0,0.682-1.242,3.106-1.306c0,0,0.87-0.124,1.614-0.93c0,0,1.243-0.127,1.988,0.311
				c0.745,0.437,0.932-0.869,1.305-1.244c0,0,0.637-1.474,2.361-0.265c1.723,1.213,1.862,3.45,2.842,4.194
				c0.979,0.744,0.697-0.324,0.324-0.886c-0.373-0.557-1.352-2.841-1.537-3.309c-0.187-0.463-0.187-2.419,1.582-2.419
				c0,0,0.935-0.607,2.75,0.603c1.816,1.215,3.681,1.726,4.52,1.583c0,0,0.839-0.368-0.465-0.555
				c-1.305-0.188-2.982-1.631-3.402-1.911c-0.418-0.279-0.139-1.397,0.562-1.68c0.696-0.276,1.909-3.538,3.493-3.773
				c0,0,0.744-0.092,1.164-0.37c0,0,0.188-0.515-0.467-0.421c0,0-0.466-1.258-0.418-2.421c0.047-1.168-1.397-4.101-2.517-4.101
				c0,0-0.373,0.232,0.094,0.84c0.466,0.604,1.862,2.7,1.304,5.355c0,0-0.093,0.607-0.885,0.84c0,0-0.652,2.468-2.609,2.843
				c-1.957,0.37-0.65,1.907-1.957,2.143c-1.305,0.232-1.908-0.747-3.213,0.884c0,0-0.886,2.049-1.771,0.793
				c-0.886-1.259,0.746-3.634,1.26-4.52c0.512-0.886,1.211-2.982,3.588-3.402c0,0,0.65,0.28,1.069-1.161
				c0.419-1.447,2.424-0.98,2.653-0.421c0.236,0.557,0.699,1.582,0.842,0.421c0,0-0.094-1.587-1.305-1.866
				c-1.213-0.277-1.631-2.142-1.262-3.212c0.375-1.074,1.539-1.214,3.869-0.515c0,0,1.164,1.07,2.004,1.07
				c0.838,0,0.188-0.65-0.232-0.838s-1.366-1.248-3.354-1.816c-0.979-0.28,0.419-2.143,1.911-1.071c0,0,2.141,1.115,4.007,0.604
				c0,0,2.188-0.372,2.794,1.305c0,0-0.141,0.187-0.979,0.187s-0.979,0.513-1.444,0.465c-0.465-0.046-0.139-0.509-1.862-1.21
				c-1.722-0.7-0.744,0.373-0.279,0.745c0.466,0.373,2.05,0.933,1.91,2.468c-0.139,1.541-1.91,2.752-1.91,5.685
				c0,2.936,0.42,5.312,1.025,5.312c0.604,0,0.094-0.466,0-1.771c-0.095-1.305-0.418-4.703,0.651-5.08
				c1.071-0.368,2.144-0.415,1.724-1.069c0,0-0.979-0.185-1.49,0c0,0-0.42-0.138,0.651-1.258c1.071-1.117,0.048-2.424,1.306-3.075
				c1.258-0.651,2.607,0.14,2.562,0.698c-0.044,0.559-1.211,0.235-1.489,1.492c-0.279,1.258-1.213,3.212,0.512,5.917
				c0,0,0.326,3.075,0.094,3.635c0,0,0.513,0.649,0.979-1.771c0.467-2.424-0.839-3.402-1.117-4.614
				c-0.279-1.209,0.278-3.259,1.023-3.259c0.746,0,1.354-0.605,2.98,2.188c1.631,2.797,1.91,2.935,1.867,5.219
				c-0.05,2.283,0.137,3.075,0.791,3.633c0.324,0.279-0.328,1.725-1.027,1.072c0,0-2.049-1.211-3.026-0.419
				c0,0-0.513-0.374,0.14-1.167c0,0,0.605-6.102-0.839-5.961c-1.442,0.142,0.791,0.186,0.048,4.566
				c-0.746,4.38-3.168,5.682-4.192,5.634c-1.026-0.047-1.212,0.188-0.326-1.954c0.884-2.144,1.808-6.462,0.7-6.29
				c-0.608,0.094-0.469,0.42-0.469,1.397c0,0.98-0.231,4.473-1.861,5.826c-1.631,1.35-1.121-0.562-1.725-1.26
				c-0.606-0.698-1.396-2.982-4.194-2.749c0,0-0.279,0.746,0.606,0.79c0.885,0.048,2.98,1.352,2.935,2.889
				c-0.046,1.539-0.14,1.447-1.304,2.191c-1.164,0.745-2.424,1.958-2.89,3.682c-0.465,1.723-3.446,2.699-6.194,2.374
				c-2.75-0.325-1.445-1.956-1.539-3.074c-0.092-1.117-0.232-2.563-1.071-1.861c0,0,0.048,0.276,0.235,1.208
				c0.184,0.933-0.652,0.467-0.701,1.491c-0.047,1.025-0.371,2.192-2.049,1.073c-1.676-1.119-0.559-0.84-0.419-2.843
				c0.14-2.002-1.678-2.656-1.306-1.723c0.374,0.931,0.653,1.024,0.187,2.468c-0.465,1.445,0.467,1.912-0.511,2.936
				c-0.978,1.025-2.936,2.049-4.473,2.514c-1.537,0.468-1.304,1.914-2.795,2.051c-1.489,0.141-0.744-1.724-2.05-1.816
				c0,0-0.792-0.092-0.324,0.699c0.465,0.791,1.768,1.306,0.977,2.236c0,0-0.977,0.977-2.935,0.793c0,0-0.606,0.838,1.305,0.559
				c1.911-0.28,2.935-1.025,4.611-2.797c0,0,1.492-0.932,3.586-1.49c2.099-0.559,2.423-1.674,4.055-1.864
				c1.63-0.186,2.7-0.37,4.612,0.468c0,0,1.49,0.279,3.027,0.185c0,0,0.56,0.233,0.56,1.352s2.003,1.817,2.562,2.237
				c0.56,0.418-0.047,2.749,0.373,2.934c0.422,0.186,0.793,0.233,0.793-1.256c0-1.493,0.512-1.913,1.909-2.146
				c1.396-0.229,3.82-1.022,5.218-0.651c0,0,0.887-0.605-0.699-0.932c-1.584-0.326-3.168,0.699-4.519,0.839
				c-1.35,0.139-3.959,1.212-4.379-1.815c-0.42-3.029,4.192-1.49,5.685-2.471c0,0,0.604-0.559-0.42-0.604
				c-1.024-0.046-2.377,0-2.701,0.372c0,0,0-0.232,0.744-1.443c0.746-1.211-0.14-1.632,1.211-2.377
				c1.354-0.746,2.656-1.539,3.494-1.631c0.84-0.094,2.795,0.653,2.844,2.19C314.027,53.573,314.264,58.604,313.238,60.376z
				 M318.455,57.967c-1.118-0.621-1.118-2.358-1.118-3.788c0-1.427-0.869-0.809-0.933,0.25c-0.062,1.055-0.248,2.917,0.248,3.292
				c0.498,0.371,0.373,0.496-0.248,1.24c-0.62,0.746-1.117,1.49-1.924,1.242c0,0,0.807-0.56,0.435-6.896
				c0,0,0.312-1.926,1.985-1.926c1.678,0,2.113,0.249,1.988,2.298c-0.123,2.054,0.188,3.045,0.559,3.666
				C319.82,57.967,319.57,58.59,318.455,57.967z M321.126,57.657c0,0-0.312,1.367-1.058-1.241c0,0-0.744-5.034,0.312-5.404
				c0,0,0.932-0.871,1.118-1.43c0.187-0.56-0.126-0.497-0.871,0.125c-0.744,0.62-0.808,1.675-2.299,0.434
				c0,0-1.429-0.559-2.298-0.062c0,0-0.496,0.808-1.057,0.808c0,0-0.744-0.869,0.621-1.489c1.366-0.621,1.614-0.746,2.051-1.801
				c0.436-1.058,3.976-0.124,4.473,1.427c0.497,1.551,1.429,3.293,0.621,5.033C321.936,55.792,321.064,55.545,321.126,57.657z
				 M323.549,58.464c0,0-2.049,0.685-0.808-1.925c1.241-2.608,1.553-0.435,1.304-6.024c0,0-0.372-1.802-0.807-2.176
				c-0.434-0.371-0.062-1.366,0.496-1.431c0.56-0.058-0.123-2.111-0.993-2.668c0,0-0.496-3.913-0.188-4.102
				c0,0,2.608,2.301,3.353,11.43C325.907,51.568,326.219,57.721,323.549,58.464z"/>
			<path d="M300.689,32.437c-1.119,2.362-2.049,0.683-3.293,0.683c-1.242,0-0.931,0.809-0.619,0.747
				c0.311-0.063,0.994,0.062,0.994,0.062c0.277-0.055,1.055,0.373,1.055,0.373c0.744,0.125,0.994,0.621,1.49,0.25
				c0.498-0.375,1.057-0.436,0.994-1.615C301.248,31.755,300.689,32.437,300.689,32.437z"/>
		</g>
	</g>
</g>
</svg>
