<?xml version="1.0" encoding="utf-8"?>
<!-- Generator: Adobe Illustrator 15.0.0, SVG Export Plug-In . SVG Version: 6.00 Build 0)  -->
<!DOCTYPE svg PUBLIC "-//W3C//DTD SVG 1.1//EN" "http://www.w3.org/Graphics/SVG/1.1/DTD/svg11.dtd">
<svg version="1.1" id="Layer_1" xmlns="http://www.w3.org/2000/svg" xmlns:xlink="http://www.w3.org/1999/xlink" x="0px" y="0px"
	 width="546px" height="174px" viewBox="0 0 546 174" enable-background="new 0 0 546 174" xml:space="preserve">
<g>
	<g>
		<defs>
			<polygon id="SVGID_1_" points="52.547,163.879 0,163.879 19.571,143.975 0,123.739 52.547,123.739 			"/>
		</defs>
		<clipPath id="SVGID_2_">
			<use xlink:href="#SVGID_1_"  overflow="visible"/>
		</clipPath>
		
			<linearGradient id="SVGID_3_" gradientUnits="userSpaceOnUse" x1="-1.9678" y1="619.0996" x2="-1.2695" y2="619.0996" gradientTransform="matrix(75.2349 0 0 -75.2349 148.0625 46721.6914)">
			<stop  offset="0" style="stop-color:#BC1622"/>
			<stop  offset="0.2852" style="stop-color:#B91622"/>
			<stop  offset="0.5025" style="stop-color:#AF1622"/>
			<stop  offset="0.6974" style="stop-color:#9F1622"/>
			<stop  offset="0.878" style="stop-color:#881621"/>
			<stop  offset="1" style="stop-color:#741621"/>
		</linearGradient>
		<rect y="123.739" clip-path="url(#SVGID_2_)" fill="url(#SVGID_3_)" width="52.547" height="40.141"/>
	</g>
	<g>
		<defs>
			<polygon id="SVGID_4_" points="483.512,164.879 536.059,164.879 516.486,144.975 536.059,124.739 483.512,124.739 			"/>
		</defs>
		<clipPath id="SVGID_5_">
			<use xlink:href="#SVGID_4_"  overflow="visible"/>
		</clipPath>
		
			<linearGradient id="SVGID_6_" gradientUnits="userSpaceOnUse" x1="1.3452" y1="619.084" x2="2.0439" y2="619.084" gradientTransform="matrix(-75.2354 0 0 -75.2354 637.3125 46721.8789)">
			<stop  offset="0" style="stop-color:#BC1622"/>
			<stop  offset="0.2852" style="stop-color:#B91622"/>
			<stop  offset="0.5025" style="stop-color:#AF1622"/>
			<stop  offset="0.6974" style="stop-color:#9F1622"/>
			<stop  offset="0.878" style="stop-color:#881621"/>
			<stop  offset="1" style="stop-color:#741621"/>
		</linearGradient>
		<rect x="483.512" y="124.739" clip-path="url(#SVGID_5_)" fill="url(#SVGID_6_)" width="52.547" height="40.141"/>
	</g>
	<rect x="33.637" y="119.465" fill="#E41922" width="468.848" height="40.14"/>
	<g>
		<path fill="#FFFFFF" d="M63.243,129.229v4.139h-8.276v16.553h-4.138v-16.553h-8.276v-4.139H63.243z"/>
		<path fill="#FFFFFF" d="M87.277,149.92H83.14v-8.276H70.725v8.276h-4.138v-20.691h20.69v8.276H83.14v4.139h4.138V149.92z
			 M83.073,137.505v-4.138H70.725v4.138H83.073z"/>
		<path fill="#FFFFFF" d="M90.622,129.229h20.69v20.691h-4.138v-8.276H94.76v8.276h-4.138V129.229z M107.175,137.505v-4.138H94.76
			v4.138H107.175z"/>
		<path fill="#FFFFFF" d="M114.656,129.229h20.69v8.276h-4.138v4.139h4.138v8.276h-20.69V129.229z M131.143,133.368h-12.349v4.138
			h12.349V133.368z M131.143,141.644h-12.349v4.138h12.349V141.644z"/>
		<path fill="#FFFFFF" d="M138.691,129.229h20.69v20.691h-4.138v-8.276h-12.415v8.276h-4.138V129.229z M155.244,137.505v-4.138
			h-12.415v4.138H155.244z"/>
		<path fill="#FFFFFF" d="M175.14,129.229h4.139v20.691h-16.553v-4.139h12.414V129.229z"/>
		<path fill="#FFFFFF" d="M203.312,133.368H186.76v4.138h12.415v4.139H186.76v4.138h16.553v4.139h-20.69v-20.691h20.69V133.368z"/>
		<path fill="#FFFFFF" d="M238.968,133.368h-16.553v12.414h16.553v4.139h-20.69v-20.691h20.69V133.368z"/>
		<path fill="#FFFFFF" d="M263.002,129.229v20.691h-20.69v-20.691H263.002z M258.864,145.782v-12.414h-12.415v12.414H258.864z"/>
		<path fill="#FFFFFF" d="M266.347,129.229h20.69v20.691h-4.138v-16.553h-12.415v16.553h-4.138V129.229z"/>
		<path fill="#FFFFFF" d="M302.001,129.229h20.69v20.691h-4.138v-16.553h-12.415v16.553h-4.138V129.229z"/>
		<path fill="#FFFFFF" d="M346.727,129.229v20.691h-20.69v-20.691H346.727z M342.589,145.782v-12.414h-12.415v12.414H342.589z"/>
		<path fill="#FFFFFF" d="M354.208,133.368v4.138h16.553v12.415h-20.69v-4.139h16.553v-4.138H350.07v-12.415h20.69v4.139H354.208z"
			/>
		<path fill="#FFFFFF" d="M394.795,129.229v20.691h-20.69v-20.691H394.795z M390.657,145.782v-12.414h-12.415v12.414H390.657z"/>
		<path fill="#FFFFFF" d="M418.83,129.229v4.139h-8.276v16.553h-4.138v-16.553h-8.276v-4.139H418.83z"/>
		<path fill="#FFFFFF" d="M442.864,149.92h-4.138v-8.276h-12.415v8.276h-4.138v-20.691h20.69v8.276h-4.138v4.139h4.138V149.92z
			 M438.66,137.505v-4.138h-12.349v4.138H438.66z"/>
		<path fill="#FFFFFF" d="M466.899,129.229v20.691h-20.69v-20.691H466.899z M462.762,145.782v-12.414h-12.415v12.414H462.762z"/>
		<path fill="#FFFFFF" d="M474.381,133.368v4.138h16.553v12.415h-20.69v-4.139h16.553v-4.138h-16.553v-12.415h20.69v4.139H474.381z"
			/>
	</g>
	<rect x="125.347" y="104.96" fill-rule="evenodd" clip-rule="evenodd" fill="#B3B3B3" width="339.438" height="2.649"/>
	<g>
		<path fill-rule="evenodd" clip-rule="evenodd" fill="#E41922" d="M341.645,40.906c-0.945-11.081,19.243-11.132,18.285,0
			l-0.55-0.184l-0.183,0.549c-1.47-3.357-3.681-6.799-8.045-6.948c-4.63-0.157-7.088,3.084-8.777,6.948l-0.182-0.549L341.645,40.906
			z"/>
		<path fill-rule="evenodd" clip-rule="evenodd" fill="#E41922" d="M360.111,42.917l-0.182-0.549c3.688,0.807,1.407,8.412,0,9.875
			l-0.257-0.623l-0.476-0.475c-0.44-2.297,1.416-4.913,0.366-8.412L360.111,42.917z"/>
		<path fill-rule="evenodd" clip-rule="evenodd" fill="#E41922" d="M356.454,54.01l0.55,0.426c-1.13,0.976-5.319,1.854-6.583,0.365
			c1.09-1.471,4.305-0.814,6.217-1.462L356.454,54.01z"/>
		<path fill-rule="evenodd" clip-rule="evenodd" fill="#E41922" d="M341.462,42.917l0.548,0.184
			c-0.883,1.754-0.081,4.613,0.731,5.851c-3.655,2.814-4.321-6.971-1.097-6.583L341.462,42.917z"/>
		<path fill-rule="evenodd" clip-rule="evenodd" fill="#E41922" d="M349.689,36.883c3.415-0.511,6.167,0.783,7.68,2.56
			c5.065,5.948-0.79,16.296-9.142,13.896C340.815,51.21,340.05,38.325,349.689,36.883z"/>
		<path fill-rule="evenodd" clip-rule="evenodd" fill="#E41922" d="M351.152,74.183c-1.23-1.502-0.717-3.427-1.463-4.754
			c-1.195-2.128-3.806-2.51-4.754-4.754c-1.479,0.712,0.487,1.141,0.366,2.56c-1.338-0.491-3.116-0.541-4.389-1.098
			c-0.565-0.531-0.321-1.871-0.365-2.925c-3.875,6.733,12.99,2.018,8.045,9.874c-7.477,2.221-14.761-1.795-14.993-7.68
			c-0.46-11.618,13.833-9.545,25.964-9.508c3.043,3.539,5.616,7.548,10.239,9.508c0,2.072,0,4.145,0,6.217
			c-3.853-0.658-6.125-2.896-8.776-4.754c0,2.682,0,5.363,0,8.045c-3.17,0-6.339,0-9.509,0l0.184-0.548L351.152,74.183z"/>
		<path fill-rule="evenodd" clip-rule="evenodd" fill="#E41922" d="M349.873,74.367l0.182,0.548c-0.73,0-1.462,0-2.193,0
			l0.183-0.366l-0.183-0.365c0.331-0.645,1.346-0.604,1.463-1.462c0.493,0.358,0.73,0.975,1.097,1.462L349.873,74.367z"/>
		<path fill-rule="evenodd" clip-rule="evenodd" fill="#E41922" d="M388.087,56.265c0,1.34,0,2.681,0,4.022
			c-5.852,0-11.702,0-17.554,0c0-1.342,0-2.683,0-4.022C376.385,56.265,382.235,56.265,388.087,56.265z"/>
		<path fill-rule="evenodd" clip-rule="evenodd" fill="#E41922" d="M388.087,61.018c0,1.341,0,2.683,0,4.023
			c-5.852,0-11.702,0-17.554,0c0-1.341,0-2.683,0-4.023C376.385,61.018,382.235,61.018,388.087,61.018z"/>
		<path fill-rule="evenodd" clip-rule="evenodd" fill="#E41922" d="M388.087,66.137c0,1.22,0,2.438,0,3.657
			c-5.852,0-11.702,0-17.554,0c0-1.219,0-2.438,0-3.657C376.385,66.137,382.235,66.137,388.087,66.137z"/>
		<path fill-rule="evenodd" clip-rule="evenodd" fill="#E41922" d="M388.087,70.892c0,1.341,0,2.682,0,4.022
			c-5.852,0-11.702,0-17.554,0c0-1.341,0-2.682,0-4.022C376.385,70.892,382.235,70.892,388.087,70.892z"/>
		<path fill-rule="evenodd" clip-rule="evenodd" fill="#E41922" d="M392.109,76.011c0.783,1.655,0.173,4.703,0.366,6.948
			c-0.68,1.028-2.718,0.695-4.389,0.731c0.361,9.269,1.253,18.007,1.097,27.792c-1.706,0-3.413,0-5.119,0
			c-0.377-9.254-0.518-18.742-1.464-27.427c-15.236-0.853-32.059-0.122-47.904-0.365c-0.753,8.998-1.294,18.21-1.463,27.792
			c-2.598,0.02-3.098,0.193-5.484,0c0.585-7.792,0.745-18.607,1.462-27.427c-0.909-0.919-3.891,0.234-4.388-1.097
			c0.372-2.431-0.942-6.549,1.097-7.313C347.861,75.889,370.776,75.159,392.109,76.011z"/>
		<path fill-rule="evenodd" clip-rule="evenodd" fill="#E41922" d="M365.414,84.422c2.355,6.247-0.233,15.826-2.194,21.575
			c-1.05,3.079-2.134,5.674-4.754,5.852c-2,0.136-4.312-1.207-4.754-2.926c-0.77-2.999,1.608-6.615,2.561-10.239
			c1.009-3.847,1.88-7.31,1.097-10.971c-2.956-0.822-7.413-0.144-10.971-0.365c-0.753,4.041-0.379,7.524,0.731,11.702
			c1.086,4.089,5.351,11.579-0.366,12.799c-4.133,0.881-5.682-2.834-6.947-6.948c-1.748-5.682-3.352-12.336-2.194-19.382
			c0.314-0.295,0.218-1.001,0.73-1.097C347.374,84.422,356.395,84.422,365.414,84.422z"/>
		<path fill-rule="evenodd" clip-rule="evenodd" fill="#E41922" d="M356.638,87.713c0.487,1.098,0.372,2.798,0.366,4.389
			c-1.463,0-2.927,0-4.389,0c0.169,6.987-0.934,16.848,2.193,19.747c-2.193,0-4.388,0-6.581,0c4.3-3.521,0.149-12.166,1.462-19.381
			c-0.389-0.831-2.299-0.14-3.291-0.366c-0.145-1.73,0.117-3.053,0.365-4.389C350.055,87.713,353.347,87.713,356.638,87.713z"/>
		<path fill-rule="evenodd" clip-rule="evenodd" fill="#E41922" d="M356.454,54.01c1.304-0.434,2.373-1.343,3.219-2.391"/>
		<path fill-rule="evenodd" clip-rule="evenodd" fill="#E41922" d="M360.111,42.917c-0.498-0.623-0.422-1.484-0.731-2.194"/>
		<path fill-rule="evenodd" clip-rule="evenodd" fill="#E41922" d="M341.462,42.917c0.635-0.594,0.436-1.467,0.731-2.194"/>
		<path fill-rule="evenodd" clip-rule="evenodd" fill="#E41922" d="M351.701,74.367c-0.609,0.213-1.219,0.187-1.828,0"/>
		<path fill-rule="evenodd" clip-rule="evenodd" fill="#E41922" d="M341.462,74.548c2.193-0.026,4.405,0.461,6.582,0"/>
	</g>
	<g>
		<path fill-rule="evenodd" clip-rule="evenodd" fill="#E41922" d="M432.454,35.543c12.503-2.928,14.029,16.289,2.347,16.426
			C426.123,52.069,422.638,37.843,432.454,35.543z"/>
		<path fill-rule="evenodd" clip-rule="evenodd" fill="#E41922" d="M393.573,48.282c1.502,1.288,2.061,3.488,2.681,5.362
			c1.882,5.684,3.758,11.731,5.698,17.429c6.598,0.22,14.07-0.438,20.11,0.337c0,0.781,0,1.563,0,2.346
			c-10.22,0.913-14.265,0.227-25.138,0.336c0.011-1.553-0.442-3.572,1.676-3.019c-1.222-3.772-2.413-7.602-3.687-11.395
			c-1.199-3.57-3.348-7.187-3.017-11.062C392.844,48.894,392.766,48.144,393.573,48.282z"/>
		<path fill-rule="evenodd" clip-rule="evenodd" fill="#E41922" d="M425.08,91.184c0.835,7.435,1.396,15.142,2.012,22.793
			c-1.43-0.137-3.455,0.324-4.357-0.335c-0.088-7.062-1.187-13.113-1.341-20.11c-3.152,4.729-0.912,20.737-7.374,21.115
			c-2.458,0.146-2.963-1.175-4.357-2.681c1.212-9.961,2.631-19.716,5.363-28.156c1.193-0.704,2.596-1.201,4.691-1.005
			c-2.121-2.633-7.502-1.676-12.4-1.676c-5.021,0-12.51-0.99-15.085,0.67c-2.848,1.837-2.277,11.198-2.681,15.419
			c-0.565,5.912-1.308,11.247-1.341,16.759c-1.453,0-2.904,0-4.357,0c1.188-10.766,1.301-22.609,3.353-32.512
			c-0.675-0.555-2.035-0.425-2.347-1.342c0.259-2.162-0.263-3.065,0.335-4.691c2.816-0.852,6.041-0.35,9.385-0.337
			c10.474,0.04,22.152-0.475,31.173,0.337c0.674,1.001,0.189,3.162,0.335,4.691c-0.187,1.154-2.211,0.472-2.347,1.676
			c1.163,2.078,5.951,0.528,8.715,1.006c0.777-4.654,1.814-10.222,1.006-15.418c3.295-2.031,10.291-4.166,9.051-8.716
			c-1.478-5.409-7.408,1.611-9.386,2.682c-1.047-6.566,6.36-10.849,11.396-6.368c4.707,4.189,6.027,26.108,1.005,32.514
			C441.395,92.766,435.681,90.88,425.08,91.184z"/>
		<path fill-rule="evenodd" clip-rule="evenodd" fill="#E41922" d="M438.822,57.332c7.394,1.076,0.539,6.873-4.357,9.049
			c-4.26,1.896-8.583,2.467-11.73,2.683c-4.07,0.277-10.301,0.475-10.056-2.683c0.247-3.203,5.701-1.604,11.061-2.01
			C429.047,63.968,436.894,60.925,438.822,57.332z"/>
		<path fill-rule="evenodd" clip-rule="evenodd" fill="#E41922" d="M453.906,93.196c1.124,6.808,2.484,13.381,3.351,20.446
			c-9.05,0-18.099,0-27.148,0c1.181-6.863,2.052-14.037,3.686-20.446C440.498,93.196,447.202,93.196,453.906,93.196z"/>
	</g>
	<g>
		<path fill-rule="evenodd" clip-rule="evenodd" fill="#03669D" d="M66.574,4.075c16.328,0.295,33.836-0.592,49.423,0.444
			c2.772,5.567,2.814,12.134,4.007,18.256c3.469,17.802,7.268,36.983,10.686,55.21c0.754,1.621,3.65,1.099,4.008,3.117
			c0.721,1.653,0.369,4.379,0.445,6.678c2.226,0,4.452,0,6.679,0c0-27.902,0-55.803,0-83.705c2.522,0,5.046,0,7.568,0
			c-0.009,29.863,0.007,63.497,0,94.837c11.577,1.038,25.082,0.147,37.4,0.444c-2.12,4.228-7.831,4.146-12.912,4.898
			c-9.268,1.372-21.03,1.933-32.057,2.227c0-3.414,0-6.827,0-10.241c-1.2-1.026-4.295-0.158-6.234-0.445
			c-0.716,2.846-0.324,6.8-2.671,8.015c-1.781,0-3.562,0-5.343,0c1.532-23.01-35.8-24.254-34.729,0c-3.414,0-6.827,0-10.241,0
			c0.848-23.307-35.43-24.298-34.729,0c-1.633,0-3.266,0-4.897,0c-3.16-3.807-1.782-11.475-1.782-19.146c0-4.008,0-8.015,0-12.021
			c0-3.672-0.85-7.749,1.336-10.24c7.491-0.939,14.255,2.647,21.817,3.116c1.364-18.984-0.487-42.492,0.89-60.107
			C65.488,4.769,65.934,4.323,66.574,4.075z M114.661,22.33c-0.646-3.479-1.748-10.792-3.562-12.022
			c-2.772-1.879-9.655-0.289-13.803-0.444c-9.123-0.345-17.114-0.299-25.379,0c-2.619,2.704-1.78,7.161-1.78,11.131
			c0,13.127,0,27.286,0,39.627c2.82,0,5.64,0,8.46,0c-1.34-9.294-0.674-21.203,7.568-22.263c5.109-0.656,8.466,2.756,8.46,9.351
			c-2.431-1.28-3.096-4.325-5.343-5.788c-2.163-0.086-4.257-0.102-5.343,0.891c-2.842,8.499,5.632,12.945,11.576,15.583
			c0.052,1.136,0.084,2.291,1.336,2.227c5.584,0.538,9.339-0.753,13.803-1.336c0.007,0.651-1.878,1.411,0,1.336
			c1.353-0.279,3.835,0.569,4.451-0.445c-1.148-0.243-2.893-1.062-1.78-2.227c3.374-1.349,3.851,3.796,8.46,2.672
			C119.104,48.554,117.085,35.402,114.661,22.33z"/>
		<path fill-rule="evenodd" clip-rule="evenodd" fill="#03669D" d="M89.727,16.541c15.729-2.84,16.402,22.102,0.446,20.036
			C79.529,35.2,77.94,18.67,89.727,16.541z"/>
		<path fill-rule="evenodd" clip-rule="evenodd" d="M185.01,26.336c1.494,4.12,0.89,10.169,0.89,16.029
			c0,5.439,0.905,11.666-1.335,15.138c-3.966,1.538-10.069,0.891-15.584,0.891c-5.688,0-11.612,0.902-15.139-1.336
			c-1.486-3.059-0.89-9.481-0.89-15.583c0-5.556-0.859-13.367,1.336-15.139c2.568-1.521,10.541-0.891,16.474-0.891
			C176.085,25.446,181.439,24.815,185.01,26.336z"/>
		<path fill-rule="evenodd" clip-rule="evenodd" fill="#03669D" d="M114.216,52.606c0,1.188,0,2.375,0,3.562
			c-5.816,4.711-16.624,3.777-23.153-0.445c-2.77-1.79-7.637-6.631-7.568-9.35c0.043-1.714,1.387-3.908,3.562-4.007
			c3.146-0.145,4.076,3.905,6.233,5.788c1.708,1.49,5.137,3.191,8.015,3.562C107.639,52.531,109.516,48.778,114.216,52.606z"/>
		<path fill-rule="evenodd" clip-rule="evenodd" fill="#03669D" d="M116.887,49.044c0.045,1.974-0.527,3.331-2.226,3.562
			c-0.339-1.146-1.081-1.888-2.227-2.226C112.881,48.655,115.473,47.219,116.887,49.044z"/>
		<path fill-rule="evenodd" clip-rule="evenodd" d="M185.01,63.292c1.485,8.299,1.438,22.415,0,30.722
			c-8.386,1.718-21.611,0.935-30.722,0.445c-2.252-3.635-1.336-10.487-1.336-16.474c0-6.021-1.069-12.436,1.78-15.583
			C162.232,62.2,177.982,60.612,185.01,63.292z"/>
		<path fill-rule="evenodd" clip-rule="evenodd" fill="#03669D" d="M62.123,88.67c10.953-1.948,20.357,6.34,17.81,18.255
			c-0.979,4.57-5.544,10.167-12.022,11.132c-9.63,1.434-18.439-5.444-17.81-16.029C50.548,94.528,54.879,89.959,62.123,88.67z
			 M65.238,109.152c7.256-0.153,7.436-12.763-0.89-11.576C56.229,98.732,58.962,109.284,65.238,109.152z"/>
		<path fill-rule="evenodd" clip-rule="evenodd" fill="#03669D" d="M107.093,88.67c8.923-1.587,17.948,4.159,18.254,13.803
			c0.436,13.719-16.944,21.976-26.715,10.686C91.622,105.058,95.407,90.749,107.093,88.67z M110.208,109.152
			c7.119-0.149,7.582-12.838-0.89-11.576C101.173,98.788,103.92,109.284,110.208,109.152z"/>
	</g>
</g>
</svg>
