<?xml version="1.0" encoding="utf-8"?>
<!-- Generator: Adobe Illustrator 15.0.0, SVG Export Plug-In . SVG Version: 6.00 Build 0)  -->
<!DOCTYPE svg PUBLIC "-//W3C//DTD SVG 1.1//EN" "http://www.w3.org/Graphics/SVG/1.1/DTD/svg11.dtd">
<svg version="1.1" id="Layer_1" xmlns="http://www.w3.org/2000/svg" xmlns:xlink="http://www.w3.org/1999/xlink" x="0px" y="0px"
	 width="428px" height="202px" viewBox="0 0 428 202" enable-background="new 0 0 428 202" xml:space="preserve">
<g>
	<g>
		<g>
			<polygon fill="#1191B6" points="357.506,50.263 334.146,50.263 334.146,47.305 322.639,47.305 322.639,50.263 315.559,50.263 
				315.559,47.305 312.785,47.305 312.785,38.885 325.436,38.885 325.436,28.681 320.823,28.681 320.823,7.911 299.296,7.911 
				299.296,28.681 294.686,28.681 294.686,38.885 306.635,38.885 306.635,47.305 304.046,47.305 304.046,50.263 293.189,50.263 
				293.189,71.79 268.193,71.79 268.193,68.552 265.402,68.552 265.402,63.121 277.956,63.121 277.956,52.911 273.346,52.911 
				273.346,32.145 251.816,32.145 251.816,52.911 247.206,52.911 247.206,63.121 259.252,63.121 259.252,68.552 256.688,68.552 
				256.688,80.061 268.193,80.061 268.193,77.94 299.34,77.94 299.34,56.413 304.046,56.413 304.046,58.813 315.559,58.813 
				315.559,56.413 322.639,56.413 322.639,58.813 325.875,58.813 325.875,68.308 318.32,68.308 318.32,89.771 313.71,89.771 
				313.71,99.979 344.458,99.979 344.458,89.771 339.85,89.771 339.85,68.308 332.025,68.308 332.025,58.813 334.146,58.813 
				334.146,56.413 351.387,56.413 351.715,119.354 357.865,119.322 			"/>
			<rect x="303.118" y="11.589" fill="#FFFFFF" width="13.879" height="13.896"/>
			<rect x="322.145" y="72.227" fill="#FFFFFF" width="13.883" height="13.898"/>
			<rect x="255.641" y="35.972" fill="#FFFFFF" width="13.883" height="13.896"/>
		</g>
		<path fill="#1191B6" d="M146.688,63.474c0,3.808-0.722,7.521-2.146,11.031c-0.757,1.867,0.143,3.991,2.008,4.749
			c0.45,0.183,0.913,0.269,1.369,0.269c1.439,0,2.805-0.858,3.379-2.275c1.779-4.387,2.684-9.021,2.684-13.773
			c0-20.431-16.794-37.052-37.434-37.052c-6.883,0-13.615,1.87-19.472,5.403c-1.419,0.859-2.081,2.563-1.611,4.152
			c0.458,1.554,1.884,2.616,3.495,2.616c0.037,0,0.074-0.003,0.113-0.003l0.357-0.012c0.316-0.012,0.633-0.021,0.953-0.021
			c1.412,0,2.635-0.803,3.242-1.976c4.018-1.884,8.43-2.867,12.922-2.867C133.166,33.715,146.688,47.063,146.688,63.474z
			 M132.764,78.698c0.297,0.119,0.605,0.177,0.91,0.177c0.962,0,1.87-0.573,2.254-1.52c1.175-2.903,1.771-5.963,1.771-9.091
			c0-13.488-11.09-24.461-24.723-24.461c-4.543,0-8.987,1.231-12.852,3.564c-0.945,0.57-1.389,1.709-1.074,2.77
			c0.309,1.059,1.261,1.836,2.404,1.74c0.002,0,0.244-0.008,0.247-0.008l0.618-0.014c0.938,0,1.75-0.532,2.156-1.31
			c2.644-1.237,5.545-1.882,8.5-1.882c10.952,0,19.861,8.791,19.861,19.6c0,2.5-0.478,4.945-1.418,7.269
			C130.917,76.777,131.52,78.194,132.764,78.698z M78.998,105.036v8.127c0,3.142,3.285,4.869,9.25,4.869h34.328
			c5.967,0,9.252-1.729,9.252-4.869v-8.127c0-3.142-3.285-4.869-9.252-4.869h-20.567l1.328-10.293
			c3.191,1.13,6.394,1.643,9.702,1.537c1.98-0.064,3.611-0.185,5.131-0.559c1.752-0.424,3.019-1.045,3.862-1.892
			c0.931-0.921,1.405-2.206,1.405-3.81c0-1.529-0.425-3.268-1.297-5.319c-0.801-1.89-1.949-3.935-3.412-6.07
			c-1.122-1.646-2.414-3.312-3.853-4.97l1.415-1.547c1.236-0.023,2.39-0.513,3.301-1.412c0.944-0.951,1.434-2.136,1.434-3.442
			c0-1.333-0.479-2.532-1.389-3.464c-1.881-1.89-5.059-1.914-6.99-0.061c-0.977,0.938-1.488,2.155-1.488,3.524
			c0,0.04,0,0.093,0.004,0.153l-1.119,1.246c-3.045-2.854-6.145-5.248-9.232-7.127c-6.311-3.824-10.895-4.502-13.244-2.153
			c-0.841,0.839-1.465,2.096-1.898,3.839c-0.371,1.51-0.561,3.281-0.561,5.27c0,2.146,0.254,4.406,0.755,6.72
			c0.509,2.343,1.338,4.673,2.467,6.929c1.163,2.313,2.661,4.411,4.454,6.235c0.043,0.044,0.614,0.609,1.623,1.417l-8.254,15.327
			C81.518,100.617,78.998,102.286,78.998,105.036z M106,78.774l5.541-6.265c1.719,2.036,3.136,4.042,4.231,5.984
			c1.647,2.923,1.992,4.584,1.992,5.466c0,0.438-0.081,0.606-0.099,0.641c0-0.003-0.002-0.003-0.007-0.003
			c-0.112,0.003-1.331,0.374-4.337-1.026c-1.689-0.781-3.572-1.941-5.598-3.452C107.148,79.69,106.574,79.242,106,78.774z
			 M100.895,74.068c-2.715-2.791-4.915-5.553-6.553-8.23c-2.096-3.414-2.536-5.347-2.536-6.367c0-0.367,0.069-0.528,0.089-0.552
			c0.062-0.043,1.121-0.491,4.387,1.06c1.762,0.842,3.701,2.052,5.762,3.599c1.586,1.189,3.159,2.515,4.691,3.953L100.895,74.068z"
			/>
		<g>
			
				<linearGradient id="SVGID_1_" gradientUnits="userSpaceOnUse" x1="27.4712" y1="60.7964" x2="80.0181" y2="60.7964" gradientTransform="matrix(1 0 0 -1 0 203)">
				<stop  offset="0.1104" style="stop-color:#1191B6"/>
				<stop  offset="1" style="stop-color:#086079"/>
			</linearGradient>
			<polygon fill="url(#SVGID_1_)" points="80.018,162.273 27.471,162.273 47.042,142.37 27.471,122.134 80.018,122.134 			"/>
			
				<linearGradient id="SVGID_2_" gradientUnits="userSpaceOnUse" x1="347.9824" y1="61.7964" x2="400.5293" y2="61.7964" gradientTransform="matrix(1 0 0 -1 0 203)">
				<stop  offset="0.1104" style="stop-color:#1191B6"/>
				<stop  offset="1" style="stop-color:#086079"/>
			</linearGradient>
			<polygon fill="url(#SVGID_2_)" points="347.982,161.273 400.529,161.273 380.957,141.37 400.529,121.134 347.982,121.134 			"/>
			<rect x="55.107" y="115.859" fill="#1191B6" width="317.848" height="40.141"/>
		</g>
		<g>
			<path fill="#FFFFFF" d="M95.893,129.352H78.399v13.121h17.494v4.373H74.026v-21.867h21.867V129.352z"/>
			<path fill="#FFFFFF" d="M121.294,124.977v21.869H99.427v-21.869H121.294z M116.921,142.471V129.35h-13.12v13.121H116.921z"/>
			<path fill="#FFFFFF" d="M124.828,124.977h21.867v21.869h-4.374v-17.494h-13.12v17.494h-4.374L124.828,124.977L124.828,124.977z"
				/>
			<path fill="#FFFFFF" d="M172.097,124.977v4.375h-8.747v17.494h-4.374v-17.494h-8.747v-4.375H172.097z"/>
			<path fill="#FFFFFF" d="M175.631,124.977h21.867v21.869h-4.373v-8.748h-13.12v8.748h-4.374V124.977L175.631,124.977z
				 M193.125,133.725v-4.375h-13.12v4.375H193.125z"/>
			<path fill="#FFFFFF" d="M222.898,129.352h-17.494v13.121h17.494v4.373h-21.866v-21.867h21.866V129.352z"/>
			<path fill="#FFFFFF" d="M248.3,124.977v4.375h-8.747v17.494h-4.373v-17.494h-8.746v-4.375H248.3z"/>
			<path fill="#FFFFFF" d="M273.702,129.352h-17.494v4.373h13.121v4.375h-13.121v4.373h17.494v4.375h-21.867v-21.869h21.867V129.352
				z"/>
			<path fill="#FFFFFF" d="M277.236,124.977h21.867v21.869h-4.373v-17.494h-13.121v17.494h-4.373V124.977L277.236,124.977z"/>
			<path fill="#FFFFFF" d="M324.504,124.977v21.869h-21.867v-21.869H324.504z M320.131,142.471V129.35H307.01v13.121H320.131z"/>
			<path fill="#FFFFFF" d="M332.412,129.352v4.373h17.494v13.121h-21.867v-4.373h17.494v-4.375h-17.494v-13.121h21.867v4.375
				H332.412z"/>
		</g>
	</g>
	<g>
		<path d="M104.42,172.427l-0.443,2.048h-4.039l-2.241,10.401h-3.983l3.983-18.479c-2.13,0.084-3.596,1.301-3.596,5.728
			c0,1.41,0.359,1.632,0.387,1.881c-1.909,0-2.96-0.69-2.96-2.685c0-3.678,2.601-7.191,9.434-7.191c1.106,0,2.849,0.332,4.592,0.332
			c0.857,0,1.715-0.083,2.49-0.332c-0.388,1.162-0.47,2.85-2.628,3.319c-1.272,0-2.6-0.249-3.873-0.525l-1.162,5.505L104.42,172.427
			L104.42,172.427z"/>
		<path d="M114.987,175.221c0.11,0.057,0.221,0.057,0.304,0.057c1.272,0,3.071-0.83,4.26-1.66l0.249,0.746
			c-1.051,1.136-2.877,1.966-4.896,2.298c-0.443,5.116-3.209,8.325-6.612,8.325c-2.573,0-4.426-1.217-4.426-4.37
			c0-3.181,1.881-9.82,7.58-9.82C113.825,170.795,114.987,172.316,114.987,175.221z M112.608,176.743
			c-0.581-0.14-0.747-0.609-0.747-1.162c0-0.774,0.36-1.272,0.858-1.494c-0.056-1.162-0.332-1.604-1.051-1.604
			c-1.964,0-3.679,5.062-3.679,7.773c0,1.826,0.359,2.241,1.411,2.241C110.754,182.497,112.166,180.007,112.608,176.743z"/>
		<path d="M122.539,171.044l-0.359,1.715c0.968-0.829,2.02-1.715,3.347-1.715c1.245,0,1.909,1.022,1.909,2.075
			c0,0.968-0.636,2.02-1.992,2.02c-1.549,0-0.774-1.826-1.604-1.826s-1.328,0.416-2.02,1.052l-2.213,10.513h-3.984l2.933-13.832
			L122.539,171.044L122.539,171.044z"/>
		<path d="M141.156,173.45c-0.996,0-1.743,1.161-2.158,2.546l-1.881,8.88h-3.984l2.02-9.544c0.055-0.223,0.083-0.441,0.083-0.691
			c0-0.608-0.221-1.218-0.83-1.218c-1.079,0-1.826,1.188-2.241,2.573l-1.881,8.88H126.3l2.933-13.832h3.983l-0.304,1.438
			c1.162-1.328,2.407-1.577,3.375-1.577c1.466,0,2.545,0.663,2.85,2.38c1.328-2.049,2.822-2.352,3.845-2.352
			c1.771,0,3.071,0.912,3.071,3.125c0,2.24-1.328,5.588-1.328,7.137c0,0.693,0.277,1.162,1.106,1.162
			c1.217,0,1.715-0.996,2.324-2.435h1.162c-1.549,4.537-3.679,5.118-5.146,5.118c-2.407,0-3.264-1.549-3.264-3.126
			c0-1.881,1.245-5.284,1.245-7.056C142.152,173.948,141.82,173.45,141.156,173.45z"/>
		<path d="M161.129,171.044l-1.992,9.405c-0.083,0.359-0.111,0.637-0.111,0.886c0,0.774,0.36,1.022,1.134,1.022
			c1.079,0,1.826-1.051,2.241-2.435h1.162c-1.577,4.511-4.067,5.118-5.561,5.118c-1.577,0-2.573-0.913-2.739-2.628
			c-1.383,2.269-2.932,2.628-4.094,2.628c-1.66,0-2.96-0.996-2.96-3.318c0-0.527,0.083-1.136,0.221-1.8l1.881-8.88h3.983
			l-1.992,9.405c-0.055,0.276-0.083,0.526-0.083,0.774c0,0.637,0.221,1.135,0.83,1.135c1.079,0,1.798-1.051,2.213-2.436l1.881-8.88
			h3.986V171.044z"/>
		<path d="M169.732,165.511l-3.181,14.938c-0.083,0.359-0.111,0.637-0.111,0.886c0,0.774,0.36,1.022,1.134,1.022
			c1.079,0,2.075-1.051,2.49-2.435h1.162c-1.577,4.511-4.316,5.118-5.81,5.118c-1.66,0-2.96-0.996-2.96-3.318
			c0-0.527,0.083-1.136,0.221-1.8l2.96-13.858L169.732,165.511z"/>
		<path d="M183.62,171.044l-1.992,9.405c-0.083,0.359-0.111,0.637-0.111,0.886c0,0.774,0.36,1.188,1.134,1.188
			c1.079,0,1.826-1.217,2.241-2.601h1.162c-1.577,4.511-4.067,5.118-5.561,5.118c-1.549,0-2.545-0.887-2.711-2.545
			c-0.858,1.271-2.158,2.545-4.122,2.545c-1.881,0-3.68-1.162-3.68-4.454c0-3.733,2.296-9.683,7.11-9.683
			c1.577,0,2.241,0.609,2.241,1.41v0.193l0.304-1.466h3.985V171.044z M174.076,180.201c0,2.13,0.885,2.156,1.383,2.156
			c0.802,0,1.964-0.83,2.296-2.435l1.328-6.252c0-0.332-0.249-1.051-1.134-1.051C175.597,172.621,174.076,177.602,174.076,180.201z"
			/>
		<path d="M191.033,171.044l-0.359,1.715c0.968-0.829,2.019-1.715,3.347-1.715c1.245,0,1.909,1.022,1.909,2.075
			c0,0.968-0.636,2.02-1.992,2.02c-1.549,0-0.774-1.826-1.604-1.826s-1.328,0.416-2.02,1.052l-2.213,10.513h-3.984l2.933-13.832
			L191.033,171.044L191.033,171.044z"/>
		<path d="M201.711,171.044l-1.992,9.405c-0.083,0.359-0.111,0.637-0.111,0.886c0,0.774,0.36,1.022,1.134,1.022
			c1.079,0,2.075-1.051,2.49-2.435h1.162c-1.577,4.511-4.316,5.118-5.81,5.118c-1.66,0-2.96-0.996-2.96-3.318
			c0-0.527,0.083-1.136,0.221-1.8l1.881-8.88L201.711,171.044L201.711,171.044z M200.466,165.15c1.217,0,2.213,0.996,2.213,2.214
			s-0.996,2.186-2.213,2.186c-1.217,0-2.186-0.968-2.186-2.186C198.281,166.146,199.249,165.15,200.466,165.15z"/>
		<path d="M214.132,174.529c0.968-0.193,1.66-1.383,1.964-1.908h0.885c-0.554,1.189-1.383,2.904-2.85,3.707
			c-0.332,5.312-3.099,8.658-6.584,8.658c-2.573,0-4.426-1.217-4.426-4.371c0-3.182,1.798-9.82,7.497-9.82
			C212.804,170.795,213.966,172.066,214.132,174.529z M211.78,176.743c-0.442-0.166-0.664-0.554-0.664-1.245
			c0-0.747,0.305-1.219,0.775-1.438c-0.055-1.162-0.36-1.578-1.051-1.578c-1.964,0-3.596,5.062-3.596,7.773
			c0,1.826,0.359,2.241,1.411,2.241C210.01,182.497,211.365,180.007,211.78,176.743z"/>
		<path d="M237.979,165.511l-3.182,14.938c-0.083,0.359-0.111,0.637-0.111,0.886c0,0.774,0.36,1.022,1.135,1.022
			c1.078,0,1.826-1.051,2.24-2.435h1.162c-1.576,4.511-4.065,4.952-5.561,4.952c-1.494,0-2.49-0.83-2.711-2.379
			c-0.83,1.271-2.131,2.545-4.094,2.545c-1.881,0-3.68-1.162-3.68-4.454c0-3.733,2.295-9.683,7.109-9.683
			c1.577,0,2.24,0.609,2.24,1.41v0.11l1.356-6.362L237.979,165.511z M230.923,179.924l1.354-6.335
			c-0.055-0.332-0.303-0.968-1.133-0.968c-2.352,0-3.873,4.979-3.873,7.58c0,2.13,0.885,2.156,1.383,2.156
			c0.775,0,1.908-0.773,2.269-2.295V179.924L230.923,179.924z"/>
		<path d="M243.759,182.414c1.052,0,2.38-0.691,3.265-1.467c-0.58,3.154-2.571,4.095-4.785,4.095c-2.572,0-4.288-1.272-4.288-4.397
			c0-3.183,1.799-9.85,7.47-9.85c2.462,0,3.043,1.271,3.043,2.655c0,3.21-3.043,5.644-6.361,5.838
			c-0.028,0.276-0.057,0.581-0.057,0.83C242.044,181.859,242.791,182.414,243.759,182.414z M245.641,172.261
			c-1.384,0-2.767,3.071-3.348,5.699c2.158-0.11,4.039-2.241,4.039-4.563C246.332,172.704,246.166,172.261,245.641,172.261z"/>
		<path d="M269.486,180.173c-1.467,3.707-5.367,5.146-7.885,5.146c-4.095,0-6.06-1.824-6.06-6.805
			c0-5.008,2.407-14.386,9.655-14.386c2.601,0,4.619,1.022,4.619,3.707c0,1.466-0.525,2.545-1.937,2.545
			c-0.442,0-1.052-0.11-1.577-0.719c0.664-0.332,1.272-1.494,1.272-2.546c0-0.885-0.442-1.688-1.688-1.688
			c-3.043,0-5.754,7.276-5.754,12.921c0,2.545,0.664,4.314,3.319,4.314c2.157,0,4.122-1.053,5.396-2.768L269.486,180.173z"/>
		<path d="M279.775,175.221c0.111,0.057,0.223,0.057,0.306,0.057c1.272,0,3.069-0.83,4.26-1.66l0.249,0.746
			c-1.051,1.136-2.877,1.966-4.896,2.298c-0.441,5.116-3.209,8.325-6.61,8.325c-2.573,0-4.427-1.217-4.427-4.37
			c0-3.181,1.882-9.82,7.58-9.82C278.615,170.795,279.775,172.316,279.775,175.221z M277.396,176.743
			c-0.58-0.14-0.746-0.609-0.746-1.162c0-0.774,0.359-1.272,0.856-1.494c-0.055-1.162-0.332-1.604-1.051-1.604
			c-1.964,0-3.681,5.062-3.681,7.773c0,1.826,0.36,2.241,1.412,2.241C275.544,182.497,276.955,180.007,277.396,176.743z"/>
		<path d="M288.436,173.45c-0.996,0-1.742,1.161-2.158,2.546l-1.881,8.88h-3.982l2.932-13.832h3.984l-0.305,1.438
			c1.162-1.328,2.379-1.549,3.236-1.549c1.771,0,3.07,0.912,3.07,3.125c0,2.24-1.328,5.588-1.328,7.137
			c0,0.693,0.276,1.162,1.105,1.162c1.219,0,1.716-0.996,2.324-2.435h1.162c-1.55,4.537-3.68,5.118-5.146,5.118
			c-2.406,0-3.264-1.549-3.264-3.126c0-1.881,1.244-5.284,1.244-7.056C289.432,173.948,289.1,173.45,288.436,173.45z"/>
		<path d="M302.516,166.673l-0.939,4.371h1.658l-0.221,1.106h-1.66l-1.771,8.299c-0.083,0.359-0.11,0.637-0.11,0.886
			c0,0.774,0.359,1.022,1.135,1.022c1.078,0,2.074-1.051,2.49-2.435h1.16c-1.576,4.511-4.314,5.118-5.81,5.118
			c-1.659,0-2.96-0.996-2.96-3.318c0-0.527,0.082-1.136,0.222-1.8l1.66-7.772h-0.913l0.221-1.106h0.913l0.83-3.817L302.516,166.673z
			"/>
		<path d="M316.65,171.044l-1.99,9.405c-0.083,0.359-0.11,0.637-0.11,0.886c0,0.774,0.359,1.188,1.134,1.188
			c1.08,0,1.826-1.217,2.241-2.601h1.161c-1.576,4.511-4.066,5.118-5.561,5.118c-1.549,0-2.545-0.887-2.711-2.545
			c-0.857,1.271-2.157,2.545-4.123,2.545c-1.881,0-3.678-1.162-3.678-4.454c0-3.733,2.295-9.683,7.108-9.683
			c1.577,0,2.241,0.609,2.241,1.41v0.193l0.304-1.466h3.983V171.044z M307.107,180.201c0,2.13,0.886,2.156,1.384,2.156
			c0.802,0,1.964-0.83,2.296-2.435l1.328-6.252c0-0.332-0.249-1.051-1.135-1.051C308.629,172.621,307.107,177.602,307.107,180.201z"
			/>
		<path d="M326.25,173.396c0-0.691-0.248-1.136-0.773-1.136c-1.742,0-3.541,5.062-3.541,8.134c0,1.881,0.664,2.323,1.992,2.323
			c2.186,0,3.514-1.217,4.896-2.794h0.94c-1.578,2.545-3.929,5.118-7.607,5.118c-2.602,0-4.315-1.272-4.315-4.397
			c0-3.209,1.825-9.85,7.441-9.85c2.462,0,3.069,1.271,3.069,2.545c0,1.355-0.662,2.02-1.465,2.02c-0.306,0-0.638-0.109-0.969-0.332
			C326.141,174.419,326.25,173.865,326.25,173.396z"/>
		<path d="M335.904,166.673l-0.94,4.371h1.659l-0.221,1.106h-1.66l-1.771,8.299c-0.082,0.359-0.109,0.637-0.109,0.886
			c0,0.774,0.359,1.022,1.134,1.022c1.079,0,2.075-1.051,2.489-2.435h1.162c-1.576,4.511-4.315,5.118-5.811,5.118
			c-1.659,0-2.96-0.996-2.96-3.318c0-0.527,0.083-1.136,0.222-1.8l1.66-7.772h-0.912l0.221-1.106h0.912l0.83-3.817L335.904,166.673z
			"/>
		<path d="M347.385,174.529c0.969-0.193,1.66-1.383,1.965-1.908h0.885c-0.553,1.189-1.383,2.904-2.85,3.707
			c-0.332,5.312-3.099,8.658-6.584,8.658c-2.572,0-4.427-1.217-4.427-4.371c0-3.182,1.799-9.82,7.497-9.82
			C346.057,170.795,347.219,172.066,347.385,174.529z M345.033,176.743c-0.442-0.166-0.664-0.554-0.664-1.245
			c0-0.747,0.305-1.219,0.773-1.438c-0.055-1.162-0.358-1.578-1.051-1.578c-1.964,0-3.597,5.062-3.597,7.773
			c0,1.826,0.36,2.241,1.411,2.241C343.264,182.497,344.618,180.007,345.033,176.743z"/>
	</g>
</g>
</svg>
