<?xml version="1.0" encoding="utf-8"?>
<!-- Generator: Adobe Illustrator 15.0.0, SVG Export Plug-In . SVG Version: 6.00 Build 0)  -->
<!DOCTYPE svg PUBLIC "-//W3C//DTD SVG 1.1//EN" "http://www.w3.org/Graphics/SVG/1.1/DTD/svg11.dtd">
<svg version="1.1" id="Layer_1" xmlns="http://www.w3.org/2000/svg" xmlns:xlink="http://www.w3.org/1999/xlink" x="0px" y="0px"
	 width="152.824px" height="38.694px" viewBox="0 0 152.824 38.694" enable-background="new 0 0 152.824 38.694"
	 xml:space="preserve">
<g>
	<rect y="-1" fill="#231F20" width="152.824" height="39.694"/>
	<g>
		<g id="bag_2_">
			<g id="handles_2_">
				<path fill="#FFFFFF" d="M19.173,7.486c-1.146,0.402-1.984,0.746-1.984,2.939v1.051l0.687-0.137V10.43
					c-0.015-1.486,0.37-1.798,1.374-2.23C19.241,7.92,19.217,7.681,19.173,7.486z"/>
				<path fill="#FFFFFF" d="M21.17,7.015c0.048,0.213,0.082,0.444,0.107,0.692c1.795-0.259,1.762,0.482,1.762,2.029v0.569
					l0.681-0.139V9.735C23.719,7.336,23.342,6.691,21.17,7.015z"/>
				<path fill="#FFFFFF" d="M14.094,12.097V8.938c-0.021-1.958,0.987-2.558,2.854-2.993c2.812-0.659,2.988,1.151,2.988,2.305v2.678
					l0.688-0.139v-2.48c-0.008-2.181-0.688-3.813-3.812-3.105c-1.686,0.382-3.405,0.811-3.405,3.67v3.36L14.094,12.097z"/>
			</g>
			<path fill="#FFFFFF" d="M27.156,10.312L8.25,14.091v13.752l18.906,3.781l3.781-1.376V11.687L27.156,10.312z M16.552,24.998
				l-4.235-0.59v-3.545h4.235V24.998z M16.552,20.546h-4.235v-3.351l4.235-0.592V20.546z M22.324,25.805l-5.459-0.773v-4.168h5.459
				V25.805z M22.324,20.546h-5.459v-3.975l5.459-0.774V20.546z"/>
		</g>
	</g>
	<g>
		<g>
			<path fill="#FFFFFF" d="M38.714,9.108c0.575-0.098,1.26-0.163,2.01-0.163c1.358,0,2.323,0.326,2.966,0.912
				c0.663,0.598,1.042,1.445,1.042,2.629c0,1.195-0.379,2.173-1.054,2.846c-0.694,0.686-1.824,1.055-3.247,1.055
				c-0.685,0-1.238-0.033-1.717-0.088V9.108z M39.658,15.582c0.239,0.033,0.587,0.044,0.955,0.044c2.033,0,3.119-1.13,3.119-3.106
				c0.01-1.728-0.967-2.824-2.967-2.824c-0.488,0-0.857,0.043-1.107,0.098V15.582L39.658,15.582z"/>
			<path fill="#FFFFFF" d="M50.613,13.648c0,1.945-1.357,2.792-2.617,2.792c-1.412,0-2.521-1.042-2.521-2.704
				c0-1.749,1.163-2.781,2.605-2.781C49.593,10.955,50.613,12.053,50.613,13.648z M46.454,13.703c0,1.152,0.651,2.021,1.585,2.021
				c0.912,0,1.597-0.858,1.597-2.042c0-0.891-0.443-2.01-1.574-2.01C46.943,11.672,46.454,12.715,46.454,13.703z"/>
			<path fill="#FFFFFF" d="M51.953,11.064l0.706,2.672c0.143,0.586,0.282,1.129,0.38,1.672h0.033
				c0.119-0.531,0.293-1.097,0.467-1.661l0.858-2.683H55.2l0.815,2.629c0.194,0.629,0.348,1.184,0.467,1.715h0.033
				c0.086-0.531,0.228-1.086,0.4-1.705l0.749-2.639h0.945l-1.694,5.257h-0.868l-0.805-2.509c-0.186-0.587-0.337-1.108-0.467-1.728
				h-0.021c-0.131,0.63-0.293,1.173-0.479,1.738L53.43,16.32h-0.869l-1.586-5.257L51.953,11.064L51.953,11.064z"/>
			<path fill="#FFFFFF" d="M59.467,12.486c0-0.553-0.012-0.987-0.045-1.422h0.849l0.055,0.869h0.021
				c0.261-0.49,0.868-0.979,1.736-0.979c0.729,0,1.858,0.435,1.858,2.238v3.128h-0.957v-3.03c0-0.848-0.313-1.553-1.216-1.553
				c-0.618,0-1.108,0.444-1.282,0.977c-0.043,0.119-0.064,0.283-0.064,0.445v3.161h-0.956L59.467,12.486L59.467,12.486z"/>
			<path fill="#FFFFFF" d="M65.314,8.609h0.955v7.712h-0.955V8.609z"/>
			<path fill="#FFFFFF" d="M72.506,13.648c0,1.945-1.356,2.792-2.616,2.792c-1.413,0-2.521-1.042-2.521-2.704
				c0-1.749,1.162-2.781,2.607-2.781C71.483,10.955,72.506,12.053,72.506,13.648z M68.346,13.703c0,1.152,0.649,2.021,1.586,2.021
				c0.912,0,1.596-0.858,1.596-2.042c0-0.891-0.445-2.01-1.574-2.01C68.834,11.672,68.346,12.715,68.346,13.703z"/>
			<path fill="#FFFFFF" d="M77.304,15.06c0,0.457,0.021,0.902,0.074,1.261h-0.856l-0.076-0.663h-0.033
				c-0.293,0.414-0.856,0.782-1.606,0.782c-1.064,0-1.607-0.749-1.607-1.51c0-1.271,1.129-1.966,3.161-1.956v-0.107
				c0-0.424-0.12-1.217-1.195-1.205c-0.499,0-1.011,0.141-1.379,0.391l-0.218-0.642c0.435-0.271,1.076-0.456,1.738-0.456
				c1.607,0,1.999,1.098,1.999,2.141L77.304,15.06L77.304,15.06z M76.381,13.638c-1.043-0.022-2.229,0.162-2.229,1.184
				c0,0.631,0.413,0.912,0.893,0.912c0.694,0,1.142-0.435,1.292-0.879c0.032-0.109,0.044-0.219,0.044-0.305V13.638z"/>
			<path fill="#FFFFFF" d="M83.243,8.609v6.354c0,0.468,0.021,1,0.044,1.358h-0.848l-0.044-0.913h-0.032
				c-0.282,0.587-0.914,1.032-1.771,1.032c-1.271,0-2.259-1.075-2.259-2.672c-0.012-1.749,1.086-2.813,2.355-2.813
				c0.814,0,1.348,0.381,1.587,0.793h0.021V8.609H83.243z M82.298,13.204c0-0.12-0.011-0.283-0.044-0.402
				c-0.141-0.598-0.661-1.097-1.379-1.097c-0.987,0-1.573,0.869-1.573,2.02c0,1.064,0.53,1.945,1.553,1.945
				c0.64,0,1.228-0.436,1.399-1.141c0.033-0.131,0.044-0.262,0.044-0.413V13.204z"/>
			<path fill="#FFFFFF" d="M87.238,16.321v-4.529H86.51v-0.728h0.729v-0.25c0-0.738,0.174-1.412,0.608-1.836
				c0.358-0.348,0.837-0.489,1.281-0.489c0.348,0,0.63,0.077,0.814,0.152L89.812,9.38c-0.143-0.065-0.326-0.119-0.608-0.119
				c-0.812,0-1.021,0.705-1.021,1.52v0.283h1.27v0.728h-1.27v4.529H87.238z"/>
			<path fill="#FFFFFF" d="M90.246,12.704c0-0.619-0.011-1.151-0.043-1.64h0.835l0.044,1.042h0.032
				c0.239-0.706,0.825-1.151,1.467-1.151c0.1,0,0.173,0.012,0.262,0.021v0.902c-0.099-0.021-0.195-0.021-0.326-0.021
				c-0.673,0-1.152,0.499-1.282,1.216c-0.021,0.131-0.032,0.294-0.032,0.445v2.803h-0.955L90.246,12.704L90.246,12.704z"/>
			<path fill="#FFFFFF" d="M98.354,13.648c0,1.945-1.357,2.792-2.617,2.792c-1.414,0-2.521-1.042-2.521-2.704
				c0-1.749,1.162-2.781,2.606-2.781C97.332,10.955,98.354,12.053,98.354,13.648z M94.192,13.703c0,1.152,0.651,2.021,1.587,2.021
				c0.912,0,1.596-0.858,1.596-2.042c0-0.891-0.443-2.01-1.573-2.01C94.682,11.672,94.192,12.715,94.192,13.703z"/>
			<path fill="#FFFFFF" d="M99.428,12.486c0-0.553-0.021-0.987-0.045-1.422h0.838l0.043,0.857h0.032
				c0.293-0.5,0.781-0.967,1.662-0.967c0.705,0,1.248,0.435,1.478,1.054h0.021c0.162-0.304,0.381-0.521,0.599-0.685
				c0.313-0.238,0.651-0.369,1.15-0.369c0.706,0,1.737,0.456,1.737,2.281v3.085h-0.935v-2.966c0-1.021-0.38-1.617-1.141-1.617
				c-0.554,0-0.967,0.4-1.141,0.857c-0.043,0.141-0.075,0.304-0.075,0.478v3.248h-0.936v-3.149c0-0.837-0.368-1.434-1.097-1.434
				c-0.587,0-1.032,0.477-1.185,0.955c-0.056,0.13-0.076,0.305-0.076,0.467v3.161h-0.935v-3.834H99.428z"/>
			<path fill="#FFFFFF" d="M39.908,29.803l-1.856-7.32h1l0.868,3.703c0.218,0.912,0.412,1.824,0.542,2.531h0.021
				c0.12-0.729,0.348-1.598,0.599-2.543l0.978-3.691h0.987l0.892,3.715c0.207,0.869,0.401,1.736,0.511,2.509h0.021
				c0.15-0.803,0.357-1.618,0.587-2.53l0.968-3.692h0.966l-2.074,7.321H43.93l-0.925-3.812c-0.229-0.936-0.38-1.65-0.479-2.391
				h-0.021c-0.12,0.729-0.293,1.444-0.564,2.391l-1.043,3.812h-0.989V29.803z"/>
			<path fill="#FFFFFF" d="M48.863,23.068c0,0.324-0.229,0.586-0.609,0.586c-0.348,0-0.575-0.262-0.575-0.586
				c0-0.326,0.238-0.598,0.598-0.598C48.623,22.471,48.863,22.73,48.863,23.068z M47.798,29.803v-5.258h0.956v5.258H47.798z"/>
			<path fill="#FFFFFF" d="M50.151,25.969c0-0.555-0.011-0.988-0.044-1.424h0.848l0.056,0.869h0.021
				c0.261-0.488,0.868-0.979,1.738-0.979c0.729,0,1.855,0.436,1.855,2.238v3.129h-0.954v-3.031c0-0.848-0.315-1.553-1.218-1.553
				c-0.62,0-1.107,0.444-1.282,0.978c-0.043,0.119-0.063,0.282-0.063,0.444v3.162h-0.956V25.969L50.151,25.969z"/>
			<path fill="#FFFFFF" d="M60.577,22.09v6.355c0,0.467,0.022,0.998,0.044,1.357h-0.847l-0.044-0.912h-0.032
				c-0.282,0.586-0.912,1.03-1.771,1.03c-1.271,0-2.261-1.075-2.261-2.672c-0.01-1.749,1.086-2.813,2.357-2.813
				c0.813,0,1.348,0.381,1.586,0.793h0.021V22.09H60.577L60.577,22.09z M59.633,26.686c0-0.121-0.011-0.283-0.044-0.402
				c-0.141-0.598-0.661-1.098-1.38-1.098c-0.987,0-1.574,0.869-1.574,2.021c0,1.063,0.532,1.943,1.553,1.943
				c0.643,0,1.229-0.435,1.401-1.142c0.033-0.13,0.044-0.26,0.044-0.412V26.686z"/>
			<path fill="#FFFFFF" d="M66.795,27.131c0,1.943-1.356,2.791-2.616,2.791c-1.412,0-2.521-1.043-2.521-2.705
				c0-1.748,1.162-2.779,2.605-2.779C65.774,24.436,66.795,25.533,66.795,27.131z M62.635,27.184c0,1.151,0.651,2.021,1.585,2.021
				c0.912,0,1.599-0.857,1.599-2.042c0-0.892-0.446-2.01-1.576-2.01C63.124,25.153,62.635,26.196,62.635,27.184z"/>
			<path fill="#FFFFFF" d="M68.133,24.545l0.706,2.672c0.144,0.588,0.283,1.131,0.382,1.674h0.032
				c0.119-0.532,0.293-1.098,0.467-1.662l0.857-2.684h0.805l0.814,2.629c0.195,0.631,0.347,1.185,0.467,1.717h0.033
				c0.086-0.532,0.228-1.086,0.401-1.705l0.749-2.641h0.944l-1.693,5.258h-0.869l-0.805-2.51c-0.185-0.586-0.337-1.107-0.467-1.727
				h-0.021c-0.131,0.63-0.293,1.173-0.479,1.738l-0.848,2.498h-0.868l-1.586-5.259L68.133,24.545L68.133,24.545z"/>
			<path fill="#FFFFFF" d="M75.444,28.836c0.293,0.174,0.793,0.369,1.271,0.369c0.686,0,1.011-0.337,1.011-0.781
				c0-0.457-0.272-0.695-0.966-0.957c-0.957-0.348-1.402-0.857-1.402-1.488c0-0.848,0.695-1.541,1.813-1.541
				c0.532,0,1,0.142,1.281,0.324l-0.229,0.696c-0.205-0.132-0.586-0.315-1.074-0.315c-0.566,0-0.869,0.326-0.869,0.718
				c0,0.435,0.303,0.63,0.988,0.901c0.901,0.336,1.379,0.793,1.379,1.574c0,0.934-0.728,1.586-1.955,1.586
				c-0.575,0-1.107-0.152-1.478-0.369L75.444,28.836z"/>
			<path fill="#FFFFFF" d="M82.211,22.568c0.456-0.076,1.055-0.141,1.813-0.141c0.935,0,1.618,0.217,2.053,0.606
				c0.392,0.349,0.643,0.88,0.643,1.531c0,0.663-0.195,1.185-0.565,1.563c-0.511,0.532-1.315,0.805-2.237,0.805
				c-0.281,0-0.543-0.012-0.761-0.065v2.935h-0.944L82.211,22.568L82.211,22.568z M83.155,26.098
				c0.206,0.055,0.467,0.076,0.782,0.076c1.14,0,1.836-0.564,1.836-1.554c0-0.978-0.696-1.444-1.729-1.444
				c-0.411,0-0.728,0.032-0.891,0.076L83.155,26.098L83.155,26.098z"/>
			<path fill="#FFFFFF" d="M87.666,22.09h0.955v3.293h0.021c0.151-0.272,0.392-0.522,0.685-0.686
				c0.282-0.163,0.618-0.262,0.979-0.262c0.707,0,1.836,0.436,1.836,2.238v3.129h-0.956v-3.021c0-0.848-0.315-1.553-1.218-1.553
				c-0.617,0-1.097,0.435-1.281,0.943c-0.054,0.143-0.064,0.283-0.064,0.457v3.172h-0.955L87.666,22.09L87.666,22.09z"/>
			<path fill="#FFFFFF" d="M98.314,27.131c0,1.943-1.358,2.791-2.617,2.791c-1.412,0-2.521-1.043-2.521-2.705
				c0-1.748,1.161-2.779,2.606-2.779C97.293,24.436,98.314,25.533,98.314,27.131z M94.153,27.184c0,1.151,0.653,2.021,1.587,2.021
				c0.912,0,1.597-0.857,1.597-2.042c0-0.892-0.445-2.01-1.574-2.01C94.643,25.153,94.153,26.196,94.153,27.184z"/>
			<path fill="#FFFFFF" d="M99.389,25.969c0-0.555-0.012-0.988-0.043-1.424h0.847l0.054,0.869h0.022
				c0.261-0.488,0.869-0.979,1.736-0.979c0.729,0,1.857,0.436,1.857,2.238v3.129h-0.955v-3.031c0-0.848-0.313-1.553-1.217-1.553
				c-0.619,0-1.107,0.444-1.281,0.978c-0.043,0.119-0.063,0.282-0.063,0.444v3.162h-0.957V25.969L99.389,25.969z"/>
			<path fill="#FFFFFF" d="M105.831,27.348c0.021,1.293,0.837,1.824,1.805,1.824c0.684,0,1.106-0.119,1.453-0.271l0.175,0.686
				c-0.337,0.15-0.924,0.336-1.76,0.336c-1.618,0-2.586-1.076-2.586-2.66c0-1.586,0.936-2.824,2.468-2.824
				c1.727,0,2.172,1.498,2.172,2.466c0,0.194-0.012,0.336-0.033,0.444H105.831L105.831,27.348z M108.633,26.663
				c0.01-0.597-0.25-1.542-1.325-1.542c-0.979,0-1.391,0.879-1.466,1.542H108.633z"/>
			<path fill="#FFFFFF" d="M112.955,28.65c0.424,0.271,1.031,0.479,1.684,0.479c0.967,0,1.531-0.51,1.531-1.248
				c0-0.674-0.391-1.076-1.38-1.445c-1.193-0.436-1.933-1.063-1.933-2.086c0-1.141,0.945-1.987,2.367-1.987
				c0.738,0,1.293,0.174,1.606,0.358l-0.26,0.771c-0.229-0.141-0.717-0.348-1.38-0.348c-0.999,0-1.38,0.599-1.38,1.098
				c0,0.686,0.444,1.021,1.455,1.412c1.239,0.479,1.858,1.074,1.858,2.15c0,1.129-0.827,2.117-2.555,2.117
				c-0.705,0-1.477-0.217-1.867-0.479L112.955,28.65z"/>
			<path fill="#FFFFFF" d="M119.187,23.285v1.26h1.369v0.729h-1.369v2.835c0,0.651,0.185,1.021,0.718,1.021
				c0.26,0,0.412-0.021,0.554-0.063l0.044,0.727c-0.186,0.066-0.479,0.132-0.848,0.132c-0.445,0-0.805-0.152-1.033-0.402
				c-0.26-0.293-0.369-0.76-0.369-1.379v-2.868h-0.813v-0.729h0.813v-0.978L119.187,23.285z"/>
			<path fill="#FFFFFF" d="M126.125,27.131c0,1.943-1.356,2.791-2.617,2.791c-1.412,0-2.521-1.043-2.521-2.705
				c0-1.748,1.161-2.779,2.606-2.779C125.104,24.436,126.125,25.533,126.125,27.131z M121.965,27.184
				c0,1.151,0.652,2.021,1.587,2.021c0.911,0,1.596-0.857,1.596-2.042c0-0.892-0.444-2.01-1.574-2.01
				C122.454,25.153,121.965,26.196,121.965,27.184z"/>
			<path fill="#FFFFFF" d="M127.199,26.186c0-0.619-0.012-1.152-0.044-1.642h0.837l0.044,1.043h0.032
				c0.239-0.706,0.825-1.151,1.467-1.151c0.099,0,0.173,0.012,0.26,0.021v0.901c-0.098-0.021-0.194-0.021-0.324-0.021
				c-0.674,0-1.151,0.5-1.282,1.218c-0.021,0.131-0.031,0.293-0.031,0.444v2.804H127.2L127.199,26.186L127.199,26.186z"/>
			<path fill="#FFFFFF" d="M131.086,27.348c0.023,1.293,0.837,1.824,1.806,1.824c0.685,0,1.106-0.119,1.455-0.271l0.174,0.686
				c-0.337,0.15-0.923,0.336-1.76,0.336c-1.619,0-2.585-1.076-2.585-2.66c0-1.586,0.935-2.824,2.466-2.824
				c1.727,0,2.172,1.498,2.172,2.466c0,0.194-0.012,0.336-0.033,0.444H131.086L131.086,27.348z M133.89,26.663
				c0.011-0.597-0.249-1.542-1.325-1.542c-0.979,0-1.392,0.879-1.467,1.542H133.89z"/>
		</g>
	</g>
</g>
</svg>
