<?xml version="1.0" encoding="utf-8"?>
<!-- Generator: Adobe Illustrator 15.0.0, SVG Export Plug-In . SVG Version: 6.00 Build 0)  -->
<!DOCTYPE svg PUBLIC "-//W3C//DTD SVG 1.1//EN" "http://www.w3.org/Graphics/SVG/1.1/DTD/svg11.dtd">
<svg version="1.1" id="Layer_1" xmlns="http://www.w3.org/2000/svg" xmlns:xlink="http://www.w3.org/1999/xlink" x="0px" y="0px"
	 width="49.25px" height="49.25px" viewBox="0 0 49.25 49.25" enable-background="new 0 0 49.25 49.25" xml:space="preserve">
<g>
	<polygon fill="#6D6D6D" points="14.111,26.697 15.895,26.697 15.895,35.555 17.617,35.555 17.617,26.697 19.399,26.697 
		19.399,25.189 14.111,25.189 	"/>
	<path fill="#6D6D6D" d="M24.692,19.338c0.233,0,0.419-0.062,0.556-0.189c0.139-0.131,0.207-0.309,0.207-0.533v-4.59
		c0-0.184-0.07-0.334-0.211-0.445c-0.14-0.115-0.324-0.172-0.552-0.172c-0.21,0-0.38,0.057-0.513,0.172
		c-0.13,0.111-0.195,0.262-0.195,0.445v4.59c0,0.23,0.061,0.408,0.184,0.533C24.289,19.275,24.465,19.338,24.692,19.338z"/>
	<path fill="#6D6D6D" d="M28.491,27.814c-0.238,0-0.474,0.061-0.706,0.182c-0.229,0.121-0.448,0.301-0.654,0.533v-3.34h-1.545
		v10.365h1.545v-0.587c0.199,0.236,0.419,0.408,0.653,0.521c0.231,0.111,0.499,0.166,0.8,0.166c0.451,0,0.801-0.144,1.038-0.432
		c0.239-0.291,0.36-0.705,0.36-1.246v-4.244c0-0.627-0.127-1.104-0.385-1.428C29.346,27.979,28.975,27.814,28.491,27.814z
		 M28.406,33.766c0,0.246-0.045,0.42-0.133,0.527c-0.088,0.109-0.225,0.162-0.412,0.162c-0.129,0-0.25-0.029-0.369-0.082
		c-0.117-0.053-0.239-0.146-0.361-0.27V29.34c0.104-0.107,0.209-0.186,0.314-0.234c0.105-0.053,0.215-0.075,0.324-0.075
		c0.205,0,0.364,0.065,0.477,0.196c0.107,0.135,0.16,0.33,0.16,0.59V33.766z"/>
	<path fill="#6D6D6D" d="M22.907,33.719c-0.144,0.164-0.301,0.299-0.474,0.408c-0.172,0.107-0.316,0.16-0.426,0.16
		c-0.144,0-0.248-0.039-0.314-0.121c-0.062-0.08-0.095-0.211-0.095-0.391v-5.867H20.07v6.395c0,0.457,0.09,0.793,0.269,1.025
		c0.181,0.227,0.444,0.34,0.799,0.34c0.287,0,0.583-0.078,0.888-0.242c0.306-0.166,0.599-0.4,0.882-0.709v0.838h1.529v-7.646h-1.529
		L22.907,33.719L22.907,33.719z"/>
	<path fill="#6D6D6D" d="M24.625,0C11.025,0,0,11.025,0,24.625C0,38.227,11.025,49.25,24.625,49.25
		c13.6,0,24.625-11.023,24.625-24.625C49.25,11.025,38.225,0,24.625,0z M28.604,12.162h1.719v6.459c0,0.201,0.039,0.344,0.111,0.432
		c0.069,0.09,0.188,0.137,0.35,0.137c0.126,0,0.285-0.061,0.48-0.178c0.191-0.121,0.369-0.271,0.528-0.457v-6.393h1.724v8.424
		h-1.724v-0.93c-0.313,0.342-0.646,0.604-0.989,0.783c-0.343,0.178-0.675,0.27-0.998,0.27c-0.398,0-0.697-0.127-0.9-0.379
		c-0.199-0.248-0.301-0.623-0.301-1.129V12.162z M22.213,14.088c0-0.65,0.231-1.17,0.694-1.561c0.464-0.383,1.087-0.578,1.868-0.578
		c0.713,0,1.295,0.205,1.752,0.611c0.453,0.406,0.681,0.934,0.681,1.578v4.35c0,0.723-0.224,1.287-0.667,1.695
		c-0.448,0.408-1.062,0.613-1.844,0.613c-0.752,0-1.355-0.211-1.807-0.631c-0.451-0.426-0.678-0.996-0.678-1.711L22.213,14.088
		L22.213,14.088z M17.525,9.168l1.259,4.562h0.122l1.198-4.562h1.969l-2.255,6.682v4.736H17.88v-4.525l-2.307-6.893H17.525
		L17.525,9.168z M40.064,33.201c0,3.047-2.471,5.52-5.519,5.52H15.371c-3.049,0-5.52-2.473-5.52-5.52v-4.438
		c0-3.05,2.471-5.521,5.52-5.521h19.176c3.049,0,5.52,2.471,5.52,5.521v4.438H40.064z"/>
	<path fill="#6D6D6D" d="M33.105,27.719c-0.686,0-1.24,0.207-1.674,0.627c-0.433,0.416-0.649,0.959-0.649,1.617V33.4
		c0,0.738,0.198,1.315,0.591,1.733c0.393,0.421,0.934,0.632,1.618,0.632c0.762,0,1.333-0.197,1.715-0.593
		c0.387-0.397,0.575-0.987,0.575-1.772v-0.394H33.71v0.349c0,0.451-0.054,0.742-0.151,0.873c-0.102,0.131-0.279,0.196-0.531,0.196
		c-0.244,0-0.418-0.075-0.52-0.229c-0.1-0.158-0.148-0.437-0.148-0.84v-1.439h2.923v-1.953c0-0.723-0.187-1.277-0.562-1.666
		C34.344,27.912,33.807,27.719,33.105,27.719z M33.71,30.727h-1.351v-0.772c0-0.32,0.05-0.554,0.156-0.687
		c0.106-0.143,0.28-0.211,0.524-0.211c0.231,0,0.403,0.068,0.508,0.211c0.106,0.133,0.161,0.365,0.161,0.687L33.71,30.727
		L33.71,30.727z"/>
</g>
</svg>
